ArgentumSans-Italic.ufo
<glyph name="exclam" format="2">
  <advance width="420"/>
  <unicode hex="0021"/>
  <outline>
    <contour>
      <point x="296" y="1400" type="line"/>
      <point x="225" y="1038" type="line"/>
      <point x="141" y="440" type="line"/>
      <point x="287" y="440" type="line"/>
      <point x="443" y="1038" type="line"/>
      <point x="514" y="1400" type="line"/>
    </contour>
    <contour>
      <point x="167" y="236" type="curve" smooth="yes"/>
      <point x="89" y="236"/>
      <point x="29" y="176"/>
      <point x="29" y="98" type="curve" smooth="yes"/>
      <point x="29" y="30"/>
      <point x="75" y="-18"/>
      <point x="143" y="-18" type="curve" smooth="yes"/>
      <point x="221" y="-18"/>
      <point x="281" y="44"/>
      <point x="281" y="122" type="curve" smooth="yes"/>
      <point x="281" y="190"/>
      <point x="235" y="236"/>
    </contour>
  </outline>
</glyph>
<glyph name="numbersign" format="2">
  <advance width="666"/>
  <unicode hex="0023"/>
  <outline>
    <contour>
      <point x="449" y="0" type="line"/>
      <point x="596" y="700" type="line"/>
      <point x="512" y="700" type="line"/>
      <point x="364" y="0" type="line"/>
    </contour>
    <contour>
      <point x="642" y="257" type="line"/>
      <point x="14" y="257" type="line"/>
      <point x="-2" y="176" type="line"/>
      <point x="627" y="176" type="line"/>
    </contour>
    <contour>
      <point x="186" y="0" type="line"/>
      <point x="334" y="700" type="line"/>
      <point x="249" y="700" type="line"/>
      <point x="102" y="0" type="line"/>
    </contour>
    <contour>
      <point x="698" y="518" type="line"/>
      <point x="69" y="518" type="line"/>
      <point x="54" y="437" type="line"/>
      <point x="683" y="437" type="line"/>
    </contour>
  </outline>
</glyph>
<glyph name="dollar" format="2">
  <advance width="592"/>
  <unicode hex="0024"/>
  <anchor x="262" y="0" name="bottom"/>
  <anchor x="345" y="700" name="top"/>
  <outline>
    <contour>
      <point x="197" y="55" type="line"/>
      <point x="158" y="-140" type="line"/>
      <point x="245" y="-140" type="line"/>
      <point x="284" y="55" type="line"/>
    </contour>
    <contour>
      <point x="350" y="831" type="line"/>
      <point x="314" y="644" type="line"/>
      <point x="401" y="644" type="line"/>
      <point x="438" y="831" type="line"/>
    </contour>
    <contour>
      <point x="343" y="705" type="curve"/>
      <point x="191" y="705"/>
      <point x="81" y="630"/>
      <point x="69" y="512" type="curve"/>
      <point x="44" y="263"/>
      <point x="426" y="352"/>
      <point x="410" y="191" type="curve"/>
      <point x="405" y="135"/>
      <point x="353" y="102"/>
      <point x="271" y="102" type="curve"/>
      <point x="196" y="102"/>
      <point x="109" y="138"/>
      <point x="44" y="204" type="curve"/>
      <point x="-17" y="107" type="line"/>
      <point x="49" y="42"/>
      <point x="148" y="-4"/>
      <point x="258" y="-4" type="curve"/>
      <point x="412" y="-4"/>
      <point x="530" y="74"/>
      <point x="542" y="197" type="curve"/>
      <point x="568" y="448"/>
      <point x="187" y="365"/>
      <point x="202" y="522" type="curve"/>
      <point x="207" y="571"/>
      <point x="255" y="598"/>
      <point x="324" y="598" type="curve"/>
      <point x="377" y="598"/>
      <point x="451" y="581"/>
      <point x="522" y="534" type="curve"/>
      <point x="581" y="633" type="line"/>
      <point x="520" y="676"/>
      <point x="434" y="705"/>
    </contour>
  </outline>
</glyph>
<glyph name="percent" format="2">
  <advance width="832"/>
  <unicode hex="0025"/>
  <outline>
    <contour>
      <point x="272" y="705" type="curve" smooth="yes"/>
      <point x="158" y="705"/>
      <point x="78" y="607"/>
      <point x="78" y="470" type="curve" smooth="yes"/>
      <point x="78" y="382"/>
      <point x="121" y="328"/>
      <point x="199" y="328" type="curve" smooth="yes"/>
      <point x="315" y="328"/>
      <point x="394" y="425"/>
      <point x="394" y="563" type="curve" smooth="yes"/>
      <point x="394" y="651"/>
      <point x="351" y="705"/>
    </contour>
    <contour>
      <point x="260" y="642" type="curve" smooth="yes"/>
      <point x="298" y="642"/>
      <point x="318" y="609"/>
      <point x="318" y="556" type="curve" smooth="yes"/>
      <point x="318" y="463"/>
      <point x="276" y="391"/>
      <point x="212" y="391" type="curve" smooth="yes"/>
      <point x="174" y="391"/>
      <point x="155" y="422"/>
      <point x="155" y="477" type="curve" smooth="yes"/>
      <point x="155" y="569"/>
      <point x="197" y="642"/>
    </contour>
    <contour>
      <point x="734" y="700" type="line"/>
      <point x="652" y="700" type="line"/>
      <point x="137" y="0" type="line"/>
      <point x="220" y="0" type="line"/>
    </contour>
    <contour>
      <point x="668" y="375" type="curve" smooth="yes"/>
      <point x="554" y="375"/>
      <point x="474" y="277"/>
      <point x="474" y="140" type="curve" smooth="yes"/>
      <point x="474" y="52"/>
      <point x="517" y="-2"/>
      <point x="595" y="-2" type="curve" smooth="yes"/>
      <point x="711" y="-2"/>
      <point x="790" y="95"/>
      <point x="790" y="233" type="curve" smooth="yes"/>
      <point x="790" y="321"/>
      <point x="747" y="375"/>
    </contour>
    <contour>
      <point x="656" y="312" type="curve" smooth="yes"/>
      <point x="694" y="312"/>
      <point x="714" y="279"/>
      <point x="714" y="226" type="curve" smooth="yes"/>
      <point x="714" y="133"/>
      <point x="672" y="61"/>
      <point x="608" y="61" type="curve" smooth="yes"/>
      <point x="570" y="61"/>
      <point x="551" y="92"/>
      <point x="551" y="147" type="curve" smooth="yes"/>
      <point x="551" y="239"/>
      <point x="593" y="312"/>
    </contour>
  </outline>
</glyph>
<glyph name="ampersand" format="2">
  <advance width="1392"/>
  <unicode hex="0026"/>
  <outline>
    <contour>
      <point x="688" y="853" type="line" smooth="yes"/>
      <point x="641" y="909"/>
      <point x="574" y="1001"/>
      <point x="574" y="1078" type="curve" smooth="yes"/>
      <point x="574" y="1189"/>
      <point x="655" y="1255"/>
      <point x="762" y="1255" type="curve" smooth="yes"/>
      <point x="860" y="1255"/>
      <point x="932" y="1209"/>
      <point x="982" y="1126" type="curve"/>
      <point x="1131" y="1222" type="line"/>
      <point x="1054" y="1362"/>
      <point x="924" y="1414"/>
      <point x="769" y="1414" type="curve" smooth="yes"/>
      <point x="564" y="1414"/>
      <point x="370" y="1288"/>
      <point x="370" y="1066" type="curve" smooth="yes"/>
      <point x="370" y="958"/>
      <point x="431" y="858"/>
      <point x="497" y="778" type="curve" smooth="yes"/>
      <point x="1155" y="-22" type="line"/>
      <point x="1303" y="122" type="line"/>
    </contour>
    <contour>
      <point x="568" y="832" type="line"/>
      <point x="226" y="686"/>
      <point x="48" y="540"/>
      <point x="48" y="318" type="curve" smooth="yes"/>
      <point x="48" y="112"/>
      <point x="232" y="-18"/>
      <point x="516" y="-18" type="curve" smooth="yes"/>
      <point x="862" y="-18"/>
      <point x="1160" y="200"/>
      <point x="1320" y="622" type="curve"/>
      <point x="1150" y="680" type="line"/>
      <point x="1018" y="338"/>
      <point x="784" y="166"/>
      <point x="532" y="166" type="curve" smooth="yes"/>
      <point x="360" y="166"/>
      <point x="268" y="244"/>
      <point x="268" y="356" type="curve" smooth="yes"/>
      <point x="268" y="490"/>
      <point x="376" y="574"/>
      <point x="640" y="690" type="curve"/>
    </contour>
  </outline>
</glyph>
<glyph name="quotesingle" format="2">
  <advance width="187"/>
  <unicode hex="0027"/>
  <outline>
    <contour>
      <point x="136" y="700" type="line"/>
      <point x="88" y="458" type="line"/>
      <point x="176" y="458" type="line"/>
      <point x="224" y="700" type="line"/>
    </contour>
  </outline>
</glyph>
<glyph name="parenleft" format="2">
  <advance width="624"/>
  <unicode hex="0028"/>
  <outline>
    <contour>
      <point x="579" y="1484" type="line"/>
      <point x="375" y="1264"/>
      <point x="231" y="960"/>
      <point x="167" y="636" type="curve" smooth="yes"/>
      <point x="99" y="296"/>
      <point x="129" y="-12"/>
      <point x="241" y="-248" type="curve"/>
      <point x="435" y="-248" type="line"/>
      <point x="335" y="-28"/>
      <point x="313" y="276"/>
      <point x="377" y="600" type="curve" smooth="yes"/>
      <point x="445" y="940"/>
      <point x="599" y="1248"/>
      <point x="789" y="1484" type="curve"/>
    </contour>
  </outline>
</glyph>
<glyph name="parenright" format="2">
  <advance width="624"/>
  <unicode hex="0029"/>
  <outline>
    <contour>
      <point x="89" y="-250" type="line"/>
      <point x="293" y="-30"/>
      <point x="437" y="274"/>
      <point x="501" y="598" type="curve" smooth="yes"/>
      <point x="569" y="938"/>
      <point x="539" y="1246"/>
      <point x="427" y="1482" type="curve"/>
      <point x="233" y="1482" type="line"/>
      <point x="333" y="1262"/>
      <point x="355" y="958"/>
      <point x="291" y="634" type="curve" smooth="yes"/>
      <point x="223" y="294"/>
      <point x="69" y="-14"/>
      <point x="-121" y="-250" type="curve"/>
    </contour>
  </outline>
</glyph>
<glyph name="asterisk" format="2">
  <advance width="696"/>
  <unicode hex="002A"/>
  <outline>
    <contour>
      <point x="765" y="1030" type="line"/>
      <point x="583" y="1132" type="line"/>
      <point x="765" y="1234" type="line"/>
      <point x="705" y="1340" type="line"/>
      <point x="527" y="1234" type="line"/>
      <point x="529" y="1442" type="line"/>
      <point x="407" y="1442" type="line"/>
      <point x="409" y="1234" type="line"/>
      <point x="231" y="1342" type="line"/>
      <point x="171" y="1234" type="line"/>
      <point x="351" y="1132" type="line"/>
      <point x="171" y="1030" type="line"/>
      <point x="231" y="926" type="line"/>
      <point x="411" y="1032" type="line"/>
      <point x="407" y="824" type="line"/>
      <point x="529" y="824" type="line"/>
      <point x="527" y="1030" type="line"/>
      <point x="705" y="924" type="line"/>
    </contour>
  </outline>
</glyph>
<glyph name="plus" format="2">
  <advance width="476"/>
  <unicode hex="002B"/>
  <outline>
    <contour>
      <point x="43" y="362" type="line"/>
      <point x="28" y="286" type="line"/>
      <point x="456" y="286" type="line"/>
      <point x="471" y="362" type="line"/>
    </contour>
    <contour>
      <point x="255" y="538" type="line"/>
      <point x="169" y="110" type="line"/>
      <point x="245" y="110" type="line"/>
      <point x="330" y="538" type="line"/>
    </contour>
  </outline>
</glyph>
<glyph name="comma" format="2">
  <advance width="270"/>
  <unicode hex="002C"/>
  <outline>
    <contour>
      <point x="64" y="46" type="line"/>
      <point x="-6" y="-110" type="line"/>
      <point x="53" y="-110" type="line"/>
      <point x="120" y="4" type="line"/>
      <point x="130" y="20"/>
      <point x="140" y="35"/>
      <point x="142" y="54" type="curve" smooth="yes"/>
      <point x="146" y="93"/>
      <point x="118" y="115"/>
      <point x="86" y="115" type="curve" smooth="yes"/>
      <point x="50" y="115"/>
      <point x="22" y="90"/>
      <point x="19" y="54" type="curve" smooth="yes"/>
      <point x="16" y="21"/>
      <point x="36" y="-7"/>
      <point x="86" y="-7" type="curve"/>
    </contour>
  </outline>
</glyph>
<glyph name="hyphen" format="2">
  <advance width="736"/>
  <unicode hex="002D"/>
  <outline>
    <contour>
      <point x="153" y="684" type="line"/>
      <point x="121" y="532" type="line"/>
      <point x="613" y="532" type="line"/>
      <point x="645" y="684" type="line"/>
    </contour>
  </outline>
</glyph>
<glyph name="period" format="2">
  <advance width="199"/>
  <unicode hex="002E"/>
  <outline>
    <contour>
      <point x="63" y="118" type="curve" smooth="yes"/>
      <point x="24" y="118"/>
      <point x="-6" y="88"/>
      <point x="-6" y="49" type="curve" smooth="yes"/>
      <point x="-6" y="15"/>
      <point x="17" y="-9"/>
      <point x="51" y="-9" type="curve" smooth="yes"/>
      <point x="90" y="-9"/>
      <point x="120" y="22"/>
      <point x="120" y="61" type="curve" smooth="yes"/>
      <point x="120" y="95"/>
      <point x="97" y="118"/>
    </contour>
  </outline>
</glyph>
<glyph name="slash" format="2">
  <advance width="296"/>
  <unicode hex="002F"/>
  <outline>
    <contour>
      <point x="299" y="817" type="line"/>
      <point x="-68" y="-118" type="line"/>
      <point x="30" y="-118" type="line"/>
      <point x="397" y="817" type="line"/>
    </contour>
  </outline>
</glyph>
<glyph name="zero" format="2">
  <advance width="707"/>
  <unicode hex="0030"/>
  <outline>
    <contour>
      <point x="429" y="705" type="curve" smooth="yes"/>
      <point x="234" y="705"/>
      <point x="104" y="608"/>
      <point x="58" y="379" type="curve" smooth="yes"/>
      <point x="12" y="152"/>
      <point x="94" y="-5"/>
      <point x="288" y="-5" type="curve" smooth="yes"/>
      <point x="481" y="-5"/>
      <point x="612" y="92"/>
      <point x="658" y="321" type="curve" smooth="yes"/>
      <point x="703" y="548"/>
      <point x="622" y="705"/>
    </contour>
    <contour>
      <point x="412" y="617" type="curve" smooth="yes"/>
      <point x="531" y="617"/>
      <point x="573" y="513"/>
      <point x="537" y="333" type="curve" smooth="yes"/>
      <point x="501" y="152"/>
      <point x="423" y="83"/>
      <point x="305" y="83" type="curve" smooth="yes"/>
      <point x="187" y="83"/>
      <point x="144" y="188"/>
      <point x="180" y="367" type="curve" smooth="yes"/>
      <point x="216" y="549"/>
      <point x="292" y="617"/>
    </contour>
  </outline>
</glyph>
<glyph name="one" format="2">
  <advance width="387"/>
  <unicode hex="0031"/>
  <outline>
    <contour>
      <point x="84" y="600" type="line"/>
      <point x="287" y="600" type="line"/>
      <point x="245" y="652" type="line"/>
      <point x="118" y="0" type="line"/>
      <point x="236" y="0" type="line"/>
      <point x="372" y="700" type="line"/>
      <point x="103" y="700" type="line"/>
    </contour>
  </outline>
</glyph>
<glyph name="two" format="2">
  <advance width="581"/>
  <unicode hex="0032"/>
  <outline>
    <contour>
      <point x="2" y="83" type="line"/>
      <point x="-14" y="0" type="line"/>
      <point x="499" y="0" type="line"/>
      <point x="518" y="100" type="line"/>
      <point x="108" y="100" type="line"/>
      <point x="118" y="64" type="line"/>
      <point x="392" y="301" type="line" smooth="yes"/>
      <point x="485" y="381"/>
      <point x="554" y="460"/>
      <point x="568" y="530" type="curve"/>
      <point x="589" y="636"/>
      <point x="509" y="705"/>
      <point x="372" y="705" type="curve" smooth="yes"/>
      <point x="280" y="705"/>
      <point x="182" y="667"/>
      <point x="92" y="606" type="curve"/>
      <point x="123" y="521" type="line"/>
      <point x="194" y="574"/>
      <point x="274" y="607"/>
      <point x="337" y="607" type="curve" smooth="yes"/>
      <point x="414" y="607"/>
      <point x="453" y="572"/>
      <point x="442" y="514" type="curve"/>
      <point x="434" y="473"/>
      <point x="387" y="415"/>
      <point x="323" y="360" type="curve" smooth="yes"/>
    </contour>
  </outline>
</glyph>
<glyph name="three" format="2">
  <advance width="593"/>
  <unicode hex="0033"/>
  <outline>
    <contour>
      <point x="269" y="412" type="line"/>
      <point x="276" y="372" type="line"/>
      <point x="588" y="630" type="line"/>
      <point x="602" y="700" type="line"/>
      <point x="142" y="700" type="line"/>
      <point x="124" y="600" type="line"/>
      <point x="488" y="600" type="line"/>
      <point x="479" y="640" type="line"/>
      <point x="192" y="403" type="line"/>
      <point x="179" y="333" type="line"/>
      <point x="281" y="333" type="line" smooth="yes"/>
      <point x="376" y="333"/>
      <point x="430" y="299"/>
      <point x="430" y="234" type="curve" smooth="yes"/>
      <point x="430" y="149"/>
      <point x="354" y="89"/>
      <point x="235" y="89" type="curve" smooth="yes"/>
      <point x="164" y="89"/>
      <point x="98" y="115"/>
      <point x="52" y="160" type="curve"/>
      <point x="-14" y="70" type="line"/>
      <point x="41" y="25"/>
      <point x="132" y="-5"/>
      <point x="225" y="-5" type="curve" smooth="yes"/>
      <point x="415" y="-5"/>
      <point x="547" y="104"/>
      <point x="547" y="247" type="curve" smooth="yes"/>
      <point x="547" y="339"/>
      <point x="475" y="396"/>
      <point x="361" y="405" type="curve" smooth="yes"/>
    </contour>
  </outline>
</glyph>
<glyph name="four" format="2">
  <advance width="595"/>
  <unicode hex="0034"/>
  <outline>
    <contour>
      <point x="560" y="174" type="line"/>
      <point x="579" y="274" type="line"/>
      <point x="99" y="274" type="line"/>
      <point x="118" y="231" type="line"/>
      <point x="459" y="700" type="line"/>
      <point x="345" y="700" type="line"/>
      <point x="21" y="258" type="line"/>
      <point x="5" y="174" type="line"/>
    </contour>
    <contour>
      <point x="312" y="0" type="line"/>
      <point x="422" y="0" type="line"/>
      <point x="508" y="444" type="line"/>
      <point x="398" y="444" type="line"/>
    </contour>
  </outline>
</glyph>
<glyph name="five" format="2">
  <advance width="1268"/>
  <unicode hex="0035"/>
  <outline>
    <contour>
      <point x="522" y="1304" type="line"/>
      <point x="396" y="1200" type="line"/>
      <point x="1170" y="1200" type="line"/>
      <point x="1208" y="1400" type="line"/>
      <point x="320" y="1400" type="line"/>
      <point x="178" y="666" type="line"/>
      <point x="280" y="678"/>
      <point x="486" y="686"/>
      <point x="550" y="686" type="curve" smooth="yes"/>
      <point x="742" y="686"/>
      <point x="836" y="610"/>
      <point x="836" y="486" type="curve" smooth="yes"/>
      <point x="836" y="308"/>
      <point x="686" y="186"/>
      <point x="470" y="186" type="curve" smooth="yes"/>
      <point x="332" y="186"/>
      <point x="198" y="238"/>
      <point x="98" y="330" type="curve"/>
      <point x="-32" y="150" type="line"/>
      <point x="92" y="54"/>
      <point x="282" y="-10"/>
      <point x="454" y="-10" type="curve" smooth="yes"/>
      <point x="828" y="-10"/>
      <point x="1094" y="218"/>
      <point x="1094" y="524" type="curve" smooth="yes"/>
      <point x="1094" y="734"/>
      <point x="928" y="886"/>
      <point x="646" y="886" type="curve" smooth="yes"/>
      <point x="574" y="886"/>
      <point x="434" y="886"/>
      <point x="388" y="882" type="curve"/>
      <point x="420" y="780" type="line"/>
    </contour>
  </outline>
</glyph>
<glyph name="six" format="2">
  <advance width="634"/>
  <unicode hex="0036"/>
  <outline>
    <contour>
      <point x="231" y="-5" type="curve" smooth="yes"/>
      <point x="403" y="-5"/>
      <point x="529" y="107"/>
      <point x="529" y="274" type="curve" smooth="yes"/>
      <point x="529" y="382"/>
      <point x="461" y="452"/>
      <point x="341" y="452" type="curve" smooth="yes"/>
      <point x="253" y="452"/>
      <point x="180" y="417"/>
      <point x="130" y="349" type="curve"/>
      <point x="155" y="506"/>
      <point x="240" y="612"/>
      <point x="376" y="612" type="curve" smooth="yes"/>
      <point x="429" y="612"/>
      <point x="485" y="596"/>
      <point x="522" y="568" type="curve"/>
      <point x="585" y="652" type="line"/>
      <point x="534" y="684"/>
      <point x="455" y="705"/>
      <point x="386" y="705" type="curve" smooth="yes"/>
      <point x="164" y="705"/>
      <point x="2" y="510"/>
      <point x="2" y="252" type="curve" smooth="yes"/>
      <point x="2" y="91"/>
      <point x="84" y="-5"/>
    </contour>
    <contour>
      <point x="244" y="91" type="curve" smooth="yes"/>
      <point x="143" y="91"/>
      <point x="112" y="163"/>
      <point x="125" y="225" type="curve"/>
      <point x="138" y="299"/>
      <point x="207" y="364"/>
      <point x="302" y="364" type="curve" smooth="yes"/>
      <point x="375" y="364"/>
      <point x="417" y="322"/>
      <point x="417" y="256" type="curve" smooth="yes"/>
      <point x="417" y="156"/>
      <point x="342" y="91"/>
    </contour>
  </outline>
</glyph>
<glyph name="seven" format="2">
  <advance width="564"/>
  <unicode hex="0037"/>
  <outline>
    <contour>
      <point x="67" y="501" type="line"/>
      <point x="172" y="501" type="line"/>
      <point x="204" y="651" type="line"/>
      <point x="141" y="600" type="line"/>
      <point x="541" y="600" type="line"/>
      <point x="520" y="646" type="line"/>
      <point x="83" y="0" type="line"/>
      <point x="208" y="0" type="line"/>
      <point x="623" y="615" type="line"/>
      <point x="639" y="700" type="line"/>
      <point x="106" y="700" type="line"/>
    </contour>
  </outline>
</glyph>
<glyph name="eight" format="2">
  <advance width="634"/>
  <unicode hex="0038"/>
  <outline>
    <contour>
      <point x="377" y="705" type="curve" smooth="yes"/>
      <point x="217" y="705"/>
      <point x="107" y="623"/>
      <point x="107" y="502" type="curve" smooth="yes"/>
      <point x="107" y="446"/>
      <point x="137" y="399"/>
      <point x="189" y="374" type="curve"/>
      <point x="81" y="340"/>
      <point x="8" y="264"/>
      <point x="8" y="163" type="curve" smooth="yes"/>
      <point x="8" y="59"/>
      <point x="94" y="-5"/>
      <point x="240" y="-5" type="curve" smooth="yes"/>
      <point x="424" y="-5"/>
      <point x="550" y="87"/>
      <point x="550" y="226" type="curve" smooth="yes"/>
      <point x="550" y="295"/>
      <point x="510" y="349"/>
      <point x="444" y="374" type="curve"/>
      <point x="524" y="407"/>
      <point x="579" y="471"/>
      <point x="579" y="554" type="curve" smooth="yes"/>
      <point x="579" y="647"/>
      <point x="505" y="705"/>
    </contour>
    <contour>
      <point x="303" y="325" type="curve" smooth="yes"/>
      <point x="391" y="325"/>
      <point x="439" y="287"/>
      <point x="439" y="225" type="curve" smooth="yes"/>
      <point x="439" y="138"/>
      <point x="369" y="83"/>
      <point x="257" y="83" type="curve" smooth="yes"/>
      <point x="170" y="83"/>
      <point x="122" y="120"/>
      <point x="122" y="184" type="curve" smooth="yes"/>
      <point x="122" y="271"/>
      <point x="192" y="325"/>
    </contour>
    <contour>
      <point x="362" y="624" type="curve" smooth="yes"/>
      <point x="436" y="624"/>
      <point x="476" y="592"/>
      <point x="476" y="537" type="curve" smooth="yes"/>
      <point x="476" y="461"/>
      <point x="418" y="412"/>
      <point x="321" y="412" type="curve" smooth="yes"/>
      <point x="247" y="412"/>
      <point x="206" y="444"/>
      <point x="206" y="499" type="curve" smooth="yes"/>
      <point x="206" y="576"/>
      <point x="266" y="624"/>
    </contour>
  </outline>
</glyph>
<glyph name="nine" format="2">
  <advance width="634"/>
  <unicode hex="0039"/>
  <outline>
    <contour>
      <point x="3" y="48" type="line"/>
      <point x="54" y="16"/>
      <point x="132" y="-5"/>
      <point x="201" y="-5" type="curve" smooth="yes"/>
      <point x="422" y="-5"/>
      <point x="584" y="190"/>
      <point x="584" y="448" type="curve" smooth="yes"/>
      <point x="584" y="609"/>
      <point x="502" y="705"/>
      <point x="356" y="705" type="curve" smooth="yes"/>
      <point x="185" y="705"/>
      <point x="60" y="592"/>
      <point x="60" y="426" type="curve" smooth="yes"/>
      <point x="60" y="318"/>
      <point x="127" y="248"/>
      <point x="246" y="248" type="curve" smooth="yes"/>
      <point x="334" y="248"/>
      <point x="406" y="283"/>
      <point x="456" y="351" type="curve"/>
      <point x="430" y="194"/>
      <point x="346" y="88"/>
      <point x="211" y="88" type="curve" smooth="yes"/>
      <point x="158" y="88"/>
      <point x="103" y="104"/>
      <point x="66" y="132" type="curve"/>
    </contour>
    <contour>
      <point x="343" y="609" type="curve" smooth="yes"/>
      <point x="444" y="609"/>
      <point x="474" y="537"/>
      <point x="461" y="475" type="curve"/>
      <point x="448" y="401"/>
      <point x="380" y="336"/>
      <point x="285" y="336" type="curve" smooth="yes"/>
      <point x="213" y="336"/>
      <point x="172" y="378"/>
      <point x="172" y="443" type="curve" smooth="yes"/>
      <point x="172" y="543"/>
      <point x="246" y="609"/>
    </contour>
  </outline>
</glyph>
<glyph name="less" format="2">
  <advance width="478"/>
  <unicode hex="003C"/>
  <outline>
    <contour>
      <point x="47" y="374" type="line"/>
      <point x="29" y="278" type="line"/>
      <point x="419" y="92" type="line"/>
      <point x="435" y="172" type="line"/>
      <point x="114" y="322" type="line"/>
      <point x="495" y="471" type="line"/>
      <point x="511" y="559" type="line"/>
    </contour>
  </outline>
</glyph>
<glyph name="equal" format="2">
  <advance width="477"/>
  <unicode hex="003D"/>
  <outline>
    <contour>
      <point x="65" y="466" type="line"/>
      <point x="50" y="391" type="line"/>
      <point x="478" y="391" type="line"/>
      <point x="493" y="466" type="line"/>
    </contour>
    <contour>
      <point x="23" y="257" type="line"/>
      <point x="8" y="182" type="line"/>
      <point x="436" y="182" type="line"/>
      <point x="451" y="257" type="line"/>
    </contour>
  </outline>
</glyph>
<glyph name="greater" format="2">
  <advance width="996"/>
  <unicode hex="003E"/>
  <outline>
    <contour>
      <point x="882" y="554" type="line"/>
      <point x="918" y="746" type="line"/>
      <point x="138" y="1118" type="line"/>
      <point x="106" y="958" type="line"/>
      <point x="748" y="658" type="line"/>
      <point x="-14" y="360" type="line"/>
      <point x="-46" y="184" type="line"/>
    </contour>
  </outline>
</glyph>
<glyph name="question" format="2">
  <advance width="1154"/>
  <unicode hex="003F"/>
  <outline>
    <contour>
      <point x="347" y="440" type="line"/>
      <point x="577" y="440" type="line"/>
      <point x="611" y="601" type="line"/>
      <point x="863" y="601"/>
      <point x="1085" y="738"/>
      <point x="1085" y="1020" type="curve" smooth="yes"/>
      <point x="1085" y="1298"/>
      <point x="827" y="1418"/>
      <point x="584" y="1418" type="curve" smooth="yes"/>
      <point x="403" y="1418"/>
      <point x="231" y="1360"/>
      <point x="99" y="1235" type="curve"/>
      <point x="245" y="1100" type="line"/>
      <point x="333" y="1185"/>
      <point x="442" y="1225"/>
      <point x="564" y="1225" type="curve" smooth="yes"/>
      <point x="699" y="1225"/>
      <point x="850" y="1164"/>
      <point x="850" y="1006" type="curve" smooth="yes"/>
      <point x="850" y="844"/>
      <point x="657" y="760"/>
      <point x="518" y="760" type="curve" smooth="yes"/>
      <point x="411" y="760" type="line"/>
    </contour>
    <contour>
      <point x="408" y="-12" type="curve" smooth="yes"/>
      <point x="501" y="-12"/>
      <point x="571" y="62"/>
      <point x="571" y="153" type="curve" smooth="yes"/>
      <point x="571" y="234"/>
      <point x="516" y="288"/>
      <point x="436" y="288" type="curve" smooth="yes"/>
      <point x="344" y="288"/>
      <point x="273" y="218"/>
      <point x="273" y="125" type="curve" smooth="yes"/>
      <point x="273" y="45"/>
      <point x="327" y="-12"/>
    </contour>
  </outline>
</glyph>
<glyph name="at" format="2">
  <advance width="958"/>
  <unicode hex="0040"/>
  <outline>
    <contour>
      <point x="546" y="702" type="curve" smooth="yes"/>
      <point x="266" y="702"/>
      <point x="22" y="487"/>
      <point x="22" y="217" type="curve" smooth="yes"/>
      <point x="22" y="3"/>
      <point x="181" y="-154"/>
      <point x="413" y="-154" type="curve" smooth="yes"/>
      <point x="489" y="-154"/>
      <point x="592" y="-127"/>
      <point x="657" y="-85" type="curve"/>
      <point x="626" y="-13" type="line"/>
      <point x="564" y="-53"/>
      <point x="484" y="-72"/>
      <point x="425" y="-72" type="curve" smooth="yes"/>
      <point x="238" y="-72"/>
      <point x="109" y="53"/>
      <point x="109" y="226" type="curve" smooth="yes"/>
      <point x="109" y="445"/>
      <point x="310" y="623"/>
      <point x="535" y="623" type="curve" smooth="yes"/>
      <point x="736" y="623"/>
      <point x="851" y="491"/>
      <point x="851" y="316" type="curve" smooth="yes"/>
      <point x="851" y="185"/>
      <point x="785" y="93"/>
      <point x="728" y="93" type="curve" smooth="yes"/>
      <point x="701" y="93"/>
      <point x="684" y="109"/>
      <point x="690" y="148" type="curve" smooth="yes"/>
      <point x="739" y="498" type="line"/>
      <point x="631" y="498" type="line"/>
      <point x="622" y="432" type="line"/>
      <point x="615" y="454"/>
      <point x="562" y="508"/>
      <point x="474" y="508" type="curve" smooth="yes"/>
      <point x="327" y="508"/>
      <point x="218" y="383"/>
      <point x="218" y="239" type="curve" smooth="yes"/>
      <point x="218" y="117"/>
      <point x="307" y="34"/>
      <point x="419" y="34" type="curve" smooth="yes"/>
      <point x="488" y="34"/>
      <point x="554" y="64"/>
      <point x="603" y="125" type="curve"/>
      <point x="602" y="104" type="line"/>
      <point x="606" y="48"/>
      <point x="646" y="22"/>
      <point x="707" y="22" type="curve" smooth="yes"/>
      <point x="835" y="22"/>
      <point x="938" y="143"/>
      <point x="938" y="326" type="curve" smooth="yes"/>
      <point x="938" y="545"/>
      <point x="780" y="702"/>
    </contour>
    <contour>
      <point x="481" y="410" type="curve" smooth="yes"/>
      <point x="552" y="410"/>
      <point x="594" y="358"/>
      <point x="594" y="292" type="curve" smooth="yes"/>
      <point x="594" y="206"/>
      <point x="532" y="131"/>
      <point x="444" y="131" type="curve" smooth="yes"/>
      <point x="376" y="131"/>
      <point x="337" y="186"/>
      <point x="337" y="254" type="curve" smooth="yes"/>
      <point x="337" y="339"/>
      <point x="400" y="410"/>
    </contour>
  </outline>
</glyph>
<glyph name="A" format="2">
  <advance width="1476"/>
  <unicode hex="0041"/>
  <anchor x="664" y="0" name="bottom"/>
  <anchor x="1368" y="0" name="ogonek"/>
  <anchor x="862" y="1400" name="top"/>
  <outline>
    <contour>
      <point x="744" y="1400" type="line"/>
      <point x="-104" y="0" type="line"/>
      <point x="140" y="0" type="line"/>
      <point x="870" y="1252" type="line"/>
      <point x="792" y="1262" type="line"/>
      <point x="1116" y="0" type="line"/>
      <point x="1368" y="0" type="line"/>
      <point x="986" y="1400" type="line"/>
    </contour>
    <contour>
      <point x="292" y="524" type="line"/>
      <point x="258" y="324" type="line"/>
      <point x="1094" y="324" type="line"/>
      <point x="1130" y="524" type="line"/>
    </contour>
  </outline>
</glyph>
<glyph name="B" format="2">
  <advance width="686"/>
  <unicode hex="0042"/>
  <outline>
    <contour>
      <point x="168" y="700" type="line"/>
      <point x="28" y="0" type="line"/>
      <point x="339" y="0" type="line" smooth="yes"/>
      <point x="518" y="0"/>
      <point x="637" y="87"/>
      <point x="637" y="226" type="curve" smooth="yes"/>
      <point x="637" y="301"/>
      <point x="594" y="355"/>
      <point x="517" y="369" type="curve"/>
      <point x="612" y="390"/>
      <point x="675" y="463"/>
      <point x="675" y="554" type="curve" smooth="yes"/>
      <point x="675" y="645"/>
      <point x="601" y="700"/>
      <point x="472" y="700" type="curve" smooth="yes"/>
    </contour>
    <contour>
      <point x="275" y="650" type="line"/>
      <point x="213" y="599" type="line"/>
      <point x="446" y="599" type="line" smooth="yes"/>
      <point x="512" y="599"/>
      <point x="549" y="572"/>
      <point x="549" y="523" type="curve" smooth="yes"/>
      <point x="549" y="453"/>
      <point x="494" y="409"/>
      <point x="408" y="409" type="curve" smooth="yes"/>
      <point x="211" y="409" type="line"/>
      <point x="191" y="308" type="line"/>
      <point x="388" y="308" type="line" smooth="yes"/>
      <point x="470" y="308"/>
      <point x="516" y="276"/>
      <point x="516" y="222" type="curve" smooth="yes"/>
      <point x="516" y="146"/>
      <point x="451" y="101"/>
      <point x="346" y="101" type="curve" smooth="yes"/>
      <point x="114" y="101" type="line"/>
      <point x="156" y="50" type="line"/>
    </contour>
  </outline>
</glyph>
<glyph name="C" format="2">
  <advance width="702"/>
  <unicode hex="0043"/>
  <anchor x="357" y="0" name="bottom"/>
  <anchor x="417" y="700" name="top"/>
  <outline>
    <contour>
      <point x="448" y="707" type="curve" smooth="yes"/>
      <point x="228" y="707"/>
      <point x="42" y="536"/>
      <point x="42" y="321" type="curve" smooth="yes"/>
      <point x="42" y="135"/>
      <point x="180" y="-8"/>
      <point x="372" y="-8" type="curve" smooth="yes"/>
      <point x="471" y="-8"/>
      <point x="576" y="37"/>
      <point x="655" y="107" type="curve"/>
      <point x="592" y="180" type="line"/>
      <point x="534" y="128"/>
      <point x="459" y="96"/>
      <point x="389" y="96" type="curve" smooth="yes"/>
      <point x="258" y="96"/>
      <point x="163" y="199"/>
      <point x="163" y="330" type="curve" smooth="yes"/>
      <point x="163" y="484"/>
      <point x="290" y="608"/>
      <point x="440" y="608" type="curve" smooth="yes"/>
      <point x="511" y="608"/>
      <point x="579" y="574"/>
      <point x="625" y="518" type="curve"/>
      <point x="703" y="599" type="line"/>
      <point x="642" y="666"/>
      <point x="547" y="707"/>
    </contour>
  </outline>
</glyph>
<glyph name="D" format="2">
  <advance width="755"/>
  <unicode hex="0044"/>
  <anchor x="305" y="0" name="bottom"/>
  <anchor x="220" y="350" name="center"/>
  <anchor x="425" y="700" name="top"/>
  <outline>
    <contour>
      <point x="168" y="700" type="line"/>
      <point x="29" y="0" type="line"/>
      <point x="329" y="0" type="line" smooth="yes"/>
      <point x="555" y="0"/>
      <point x="740" y="164"/>
      <point x="751" y="382" type="curve" smooth="yes"/>
      <point x="761" y="566"/>
      <point x="635" y="700"/>
      <point x="439" y="700" type="curve" smooth="yes"/>
    </contour>
    <contour>
      <point x="422" y="599" type="line" smooth="yes"/>
      <point x="550" y="599"/>
      <point x="638" y="505"/>
      <point x="631" y="372" type="curve" smooth="yes"/>
      <point x="623" y="215"/>
      <point x="496" y="101"/>
      <point x="351" y="101" type="curve" smooth="yes"/>
      <point x="115" y="101" type="line"/>
      <point x="157" y="50" type="line"/>
      <point x="276" y="650" type="line"/>
      <point x="214" y="599" type="line"/>
    </contour>
  </outline>
</glyph>
<glyph name="E" format="2">
  <advance width="634"/>
  <unicode hex="0045"/>
  <anchor x="304" y="0" name="bottom"/>
  <anchor x="540" y="0" name="ogonek"/>
  <anchor x="434" y="700" name="top"/>
  <anchor x="96" y="700" name="topleft"/>
  <outline>
    <contour>
      <point x="190" y="302" type="line"/>
      <point x="548" y="302" type="line"/>
      <point x="569" y="402" type="line"/>
      <point x="210" y="402" type="line"/>
    </contour>
    <contour>
      <point x="275" y="650" type="line"/>
      <point x="213" y="599" type="line"/>
      <point x="647" y="599" type="line"/>
      <point x="667" y="700" type="line"/>
      <point x="168" y="700" type="line"/>
      <point x="28" y="0" type="line"/>
      <point x="540" y="0" type="line"/>
      <point x="560" y="101" type="line"/>
      <point x="114" y="101" type="line"/>
      <point x="156" y="50" type="line"/>
    </contour>
  </outline>
</glyph>
<glyph name="F" format="2">
  <advance width="1150"/>
  <unicode hex="0046"/>
  <outline>
    <contour>
      <point x="399" y="582" type="line"/>
      <point x="1067" y="582" type="line"/>
      <point x="1107" y="782" type="line"/>
      <point x="439" y="782" type="line"/>
    </contour>
    <contour>
      <point x="573" y="1300" type="line"/>
      <point x="449" y="1198" type="line"/>
      <point x="1255" y="1198" type="line"/>
      <point x="1297" y="1400" type="line"/>
      <point x="359" y="1400" type="line"/>
      <point x="79" y="0" type="line"/>
      <point x="315" y="0" type="line"/>
    </contour>
  </outline>
</glyph>
<glyph name="G" format="2">
  <advance width="740"/>
  <unicode hex="0047"/>
  <anchor x="381" y="0" name="bottom"/>
  <anchor x="442" y="700" name="top"/>
  <outline>
    <contour>
      <point x="455" y="707" type="curve" smooth="yes"/>
      <point x="230" y="707"/>
      <point x="42" y="536"/>
      <point x="42" y="321" type="curve" smooth="yes"/>
      <point x="42" y="135"/>
      <point x="182" y="-8"/>
      <point x="376" y="-8" type="curve" smooth="yes"/>
      <point x="472" y="-8"/>
      <point x="567" y="29"/>
      <point x="645" y="84" type="curve"/>
      <point x="593" y="166" type="line"/>
      <point x="532" y="120"/>
      <point x="460" y="92"/>
      <point x="395" y="92" type="curve" smooth="yes"/>
      <point x="260" y="92"/>
      <point x="162" y="195"/>
      <point x="162" y="328" type="curve" smooth="yes"/>
      <point x="162" y="483"/>
      <point x="292" y="608"/>
      <point x="445" y="608" type="curve" smooth="yes"/>
      <point x="518" y="608"/>
      <point x="590" y="578"/>
      <point x="638" y="527" type="curve"/>
      <point x="714" y="608" type="line"/>
      <point x="651" y="669"/>
      <point x="555" y="707"/>
    </contour>
    <contour>
      <point x="550" y="140" type="line"/>
      <point x="645" y="84" type="line"/>
      <point x="685" y="395" type="line"/>
      <point x="410" y="395" type="line"/>
      <point x="398" y="301" type="line"/>
      <point x="570" y="301" type="line"/>
    </contour>
  </outline>
</glyph>
<glyph name="H" format="2">
  <advance width="1582"/>
  <unicode hex="0048"/>
  <anchor x="726" y="0" name="bottom"/>
  <anchor x="866" y="700" name="center"/>
  <anchor x="1006" y="1400" name="top"/>
  <anchor x="254" y="1400" name="topleft"/>
  <outline>
    <contour>
      <point x="596" y="1400" type="line"/>
      <point x="360" y="1400" type="line"/>
      <point x="80" y="0" type="line"/>
      <point x="316" y="0" type="line"/>
    </contour>
    <contour>
      <point x="1058" y="0" type="line"/>
      <point x="1294" y="0" type="line"/>
      <point x="1574" y="1400" type="line"/>
      <point x="1338" y="1400" type="line"/>
    </contour>
    <contour>
      <point x="400" y="586" type="line"/>
      <point x="1206" y="586" type="line"/>
      <point x="1246" y="786" type="line"/>
      <point x="440" y="786" type="line"/>
    </contour>
  </outline>
</glyph>
<glyph name="I" format="2">
  <advance width="604"/>
  <unicode hex="0049"/>
  <anchor x="196" y="0" name="bottom"/>
  <anchor x="314" y="0" name="ogonek"/>
  <anchor x="476" y="1400" name="top"/>
  <outline>
    <contour>
      <point x="358" y="1400" type="line"/>
      <point x="78" y="0" type="line"/>
      <point x="314" y="0" type="line"/>
      <point x="594" y="1400" type="line"/>
    </contour>
  </outline>
</glyph>
<glyph name="J" format="2">
  <advance width="998"/>
  <unicode hex="004A"/>
  <anchor x="898" y="1400" name="top"/>
  <outline>
    <contour>
      <point x="780" y="1400" type="line"/>
      <point x="588" y="436" type="line" smooth="yes"/>
      <point x="558" y="288"/>
      <point x="468" y="208"/>
      <point x="342" y="208" type="curve" smooth="yes"/>
      <point x="246" y="208"/>
      <point x="146" y="262"/>
      <point x="74" y="362" type="curve"/>
      <point x="-72" y="190" type="line"/>
      <point x="6" y="64"/>
      <point x="132" y="-10"/>
      <point x="300" y="-10" type="curve" smooth="yes"/>
      <point x="570" y="-10"/>
      <point x="768" y="150"/>
      <point x="824" y="430" type="curve" smooth="yes"/>
      <point x="1018" y="1400" type="line"/>
    </contour>
  </outline>
</glyph>
<glyph name="K" format="2">
  <advance width="696"/>
  <unicode hex="004B"/>
  <anchor x="289" y="0" name="bottom"/>
  <anchor x="428" y="700" name="top"/>
  <outline>
    <contour>
      <point x="286" y="700" type="line"/>
      <point x="168" y="700" type="line"/>
      <point x="28" y="0" type="line"/>
      <point x="146" y="0" type="line"/>
    </contour>
    <contour>
      <point x="325" y="323" type="line"/>
      <point x="498" y="0" type="line"/>
      <point x="637" y="0" type="line"/>
      <point x="419" y="417" type="line"/>
    </contour>
    <contour>
      <point x="165" y="150" type="line"/>
      <point x="764" y="700" type="line"/>
      <point x="615" y="700" type="line"/>
      <point x="200" y="319" type="line"/>
    </contour>
  </outline>
</glyph>
<glyph name="L" format="2">
  <advance width="512"/>
  <unicode hex="004C"/>
  <anchor x="246" y="0" name="bottom"/>
  <anchor x="407" y="390" name="center"/>
  <anchor x="229" y="700" name="top"/>
  <anchor x="394" y="699" name="topright"/>
  <outline>
    <contour>
      <point x="168" y="700" type="line"/>
      <point x="28" y="0" type="line"/>
      <point x="449" y="0" type="line"/>
      <point x="469" y="101" type="line"/>
      <point x="114" y="101" type="line"/>
      <point x="156" y="50" type="line"/>
      <point x="286" y="700" type="line"/>
    </contour>
  </outline>
</glyph>
<glyph name="M" format="2">
  <advance width="918"/>
  <unicode hex="004D"/>
  <anchor x="421" y="0" name="bottom"/>
  <anchor x="556" y="700" name="top"/>
  <outline>
    <contour>
      <point x="32" y="0" type="line"/>
      <point x="137" y="0" type="line"/>
      <point x="252" y="594" type="line"/>
      <point x="227" y="592" type="line"/>
      <point x="387" y="73" type="line"/>
      <point x="458" y="73" type="line"/>
      <point x="815" y="585" type="line"/>
      <point x="795" y="594" type="line"/>
      <point x="680" y="0" type="line"/>
      <point x="784" y="0" type="line"/>
      <point x="920" y="700" type="line"/>
      <point x="788" y="700" type="line"/>
      <point x="421" y="177" type="line"/>
      <point x="467" y="170" type="line"/>
      <point x="300" y="700" type="line"/>
      <point x="168" y="700" type="line"/>
    </contour>
  </outline>
</glyph>
<glyph name="N" format="2">
  <advance width="1584"/>
  <unicode hex="004E"/>
  <anchor x="686" y="0" name="bottom"/>
  <anchor x="966" y="1400" name="top"/>
  <outline>
    <contour>
      <point x="1340" y="1400" type="line"/>
      <point x="1114" y="272" type="line"/>
      <point x="1182" y="282" type="line"/>
      <point x="590" y="1400" type="line"/>
      <point x="358" y="1400" type="line"/>
      <point x="78" y="0" type="line"/>
      <point x="314" y="0" type="line"/>
      <point x="538" y="1126" type="line"/>
      <point x="470" y="1116" type="line"/>
      <point x="1060" y="0" type="line"/>
      <point x="1292" y="0" type="line"/>
      <point x="1572" y="1400" type="line"/>
    </contour>
  </outline>
</glyph>
<glyph name="O" format="2">
  <advance width="1620"/>
  <unicode hex="004F"/>
  <anchor x="784" y="0" name="bottom"/>
  <anchor x="846" y="702" name="center"/>
  <anchor x="1184" y="0" name="ogonek"/>
  <anchor x="956" y="1400" name="top"/>
  <anchor x="212" y="1400" name="topleft"/>
  <anchor x="1260" y="1400" name="topright"/>
  <outline>
    <contour>
      <point x="918" y="1414" type="curve" smooth="yes"/>
      <point x="474" y="1414"/>
      <point x="100" y="1074"/>
      <point x="100" y="642" type="curve" smooth="yes"/>
      <point x="100" y="270"/>
      <point x="382" y="-16"/>
      <point x="774" y="-16" type="curve" smooth="yes"/>
      <point x="1218" y="-16"/>
      <point x="1592" y="330"/>
      <point x="1592" y="760" type="curve" smooth="yes"/>
      <point x="1592" y="1132"/>
      <point x="1310" y="1414"/>
    </contour>
    <contour>
      <point x="900" y="1214" type="curve" smooth="yes"/>
      <point x="1154" y="1214"/>
      <point x="1348" y="1010"/>
      <point x="1348" y="744" type="curve" smooth="yes"/>
      <point x="1348" y="436"/>
      <point x="1088" y="184"/>
      <point x="798" y="184" type="curve" smooth="yes"/>
      <point x="540" y="184"/>
      <point x="340" y="392"/>
      <point x="340" y="658" type="curve" smooth="yes"/>
      <point x="340" y="966"/>
      <point x="604" y="1214"/>
    </contour>
  </outline>
</glyph>
<glyph name="P" format="2">
  <advance width="664"/>
  <unicode hex="0050"/>
  <outline>
    <contour>
      <point x="275" y="650" type="line"/>
      <point x="213" y="599" type="line"/>
      <point x="422" y="599" type="line" smooth="yes"/>
      <point x="515" y="599"/>
      <point x="567" y="562"/>
      <point x="567" y="488" type="curve" smooth="yes"/>
      <point x="567" y="375"/>
      <point x="492" y="314"/>
      <point x="365" y="314" type="curve" smooth="yes"/>
      <point x="192" y="314" type="line"/>
      <point x="172" y="213" type="line"/>
      <point x="350" y="213" type="line" smooth="yes"/>
      <point x="556" y="213"/>
      <point x="682" y="331"/>
      <point x="682" y="509" type="curve" smooth="yes"/>
      <point x="682" y="630"/>
      <point x="599" y="700"/>
      <point x="447" y="700" type="curve" smooth="yes"/>
      <point x="168" y="700" type="line"/>
      <point x="28" y="0" type="line"/>
      <point x="146" y="0" type="line"/>
    </contour>
  </outline>
</glyph>
<glyph name="Q" format="2">
  <advance width="840"/>
  <unicode hex="0051"/>
  <anchor x="384" y="0" name="bottom"/>
  <anchor x="415" y="351" name="center"/>
  <anchor x="584" y="0" name="ogonek"/>
  <anchor x="486" y="700" name="top"/>
  <anchor x="98" y="700" name="topleft"/>
  <anchor x="613" y="700" name="topright"/>
  <outline>
    <component base="O"/>
    <contour>
      <point x="660" y="0" type="line"/>
      <point x="784" y="0" type="line"/>
      <point x="556" y="266" type="line"/>
      <point x="432" y="266" type="line"/>
    </contour>
  </outline>
</glyph>
<glyph name="R" format="2">
  <advance width="1446"/>
  <unicode hex="0052"/>
  <anchor x="614" y="0" name="bottom"/>
  <anchor x="864" y="1400" name="top"/>
  <outline>
    <contour>
      <point x="756" y="518" type="line"/>
      <point x="966" y="0" type="line"/>
      <point x="1234" y="0" type="line"/>
      <point x="990" y="518" type="line"/>
    </contour>
    <contour>
      <point x="572" y="1300" type="line"/>
      <point x="448" y="1198" type="line"/>
      <point x="886" y="1198" type="line" smooth="yes"/>
      <point x="1072" y="1198"/>
      <point x="1176" y="1124"/>
      <point x="1176" y="976" type="curve" smooth="yes"/>
      <point x="1176" y="750"/>
      <point x="1028" y="628"/>
      <point x="772" y="628" type="curve" smooth="yes"/>
      <point x="406" y="628" type="line"/>
      <point x="366" y="426" type="line"/>
      <point x="732" y="426" type="line" smooth="yes"/>
      <point x="1152" y="426"/>
      <point x="1406" y="660"/>
      <point x="1406" y="1016" type="curve" smooth="yes"/>
      <point x="1406" y="1260"/>
      <point x="1236" y="1400"/>
      <point x="926" y="1400" type="curve" smooth="yes"/>
      <point x="358" y="1400" type="line"/>
      <point x="78" y="0" type="line"/>
      <point x="314" y="0" type="line"/>
    </contour>
  </outline>
</glyph>
<glyph name="S" format="2">
  <advance width="600"/>
  <unicode hex="0053"/>
  <anchor x="246" y="5" name="bottom"/>
  <anchor x="387" y="694" name="top"/>
  <outline>
    <contour>
      <point x="621" y="611" type="line"/>
      <point x="565" y="659"/>
      <point x="482" y="707"/>
      <point x="392" y="707" type="curve" smooth="yes"/>
      <point x="240" y="707"/>
      <point x="123" y="656"/>
      <point x="100" y="539" type="curve"/>
      <point x="50" y="286"/>
      <point x="444" y="339"/>
      <point x="412" y="176" type="curve"/>
      <point x="401" y="119"/>
      <point x="345" y="97"/>
      <point x="264" y="97" type="curve" smooth="yes"/>
      <point x="189" y="97"/>
      <point x="107" y="150"/>
      <point x="48" y="224" type="curve"/>
      <point x="-22" y="133" type="line"/>
      <point x="37" y="60"/>
      <point x="131" y="-8"/>
      <point x="241" y="-8" type="curve" smooth="yes"/>
      <point x="394" y="-8"/>
      <point x="519" y="45"/>
      <point x="544" y="168" type="curve"/>
      <point x="594" y="421"/>
      <point x="202" y="375"/>
      <point x="233" y="535" type="curve"/>
      <point x="243" y="584"/>
      <point x="293" y="601"/>
      <point x="362" y="601" type="curve" smooth="yes"/>
      <point x="414" y="601"/>
      <point x="487" y="571"/>
      <point x="553" y="516" type="curve"/>
    </contour>
  </outline>
</glyph>
<glyph name="T" format="2">
  <advance width="557"/>
  <unicode hex="0054"/>
  <anchor x="225" y="0" name="bottom"/>
  <anchor x="288" y="330" name="center"/>
  <anchor x="373" y="700" name="top"/>
  <outline>
    <contour>
      <point x="289" y="615" type="line"/>
      <point x="166" y="0" type="line"/>
      <point x="284" y="0" type="line"/>
      <point x="407" y="615" type="line"/>
    </contour>
    <contour>
      <point x="626" y="599" type="line"/>
      <point x="646" y="700" type="line"/>
      <point x="85" y="700" type="line"/>
      <point x="65" y="599" type="line"/>
    </contour>
  </outline>
</glyph>
<glyph name="U" format="2">
  <advance width="742"/>
  <unicode hex="0055"/>
  <anchor x="318" y="0" name="bottom"/>
  <anchor x="519" y="0" name="ogonek"/>
  <anchor x="458" y="700" name="top"/>
  <anchor x="733" y="700" name="topright"/>
  <outline>
    <contour>
      <point x="645" y="700" type="line"/>
      <point x="563" y="290" type="line"/>
      <point x="538" y="167"/>
      <point x="453" y="95"/>
      <point x="339" y="95" type="curve"/>
      <point x="224" y="95"/>
      <point x="165" y="168"/>
      <point x="190" y="290" type="curve"/>
      <point x="271" y="700" type="line"/>
      <point x="154" y="700" type="line"/>
      <point x="72" y="290" type="line"/>
      <point x="35" y="107"/>
      <point x="139" y="-5"/>
      <point x="328" y="-5" type="curve"/>
      <point x="517" y="-5"/>
      <point x="644" y="107"/>
      <point x="681" y="290" type="curve"/>
      <point x="763" y="700" type="line"/>
    </contour>
  </outline>
</glyph>
<glyph name="V" format="2">
  <advance width="668"/>
  <unicode hex="0056"/>
  <outline>
    <contour>
      <point x="640" y="700" type="line"/>
      <point x="302" y="79" type="line"/>
      <point x="338" y="73" type="line"/>
      <point x="206" y="700" type="line"/>
      <point x="79" y="700" type="line"/>
      <point x="242" y="0" type="line"/>
      <point x="365" y="0" type="line"/>
      <point x="763" y="700" type="line"/>
    </contour>
  </outline>
</glyph>
<glyph name="W" format="2">
  <advance width="2126"/>
  <unicode hex="0057"/>
  <anchor x="1247" y="1400" name="top"/>
  <outline>
    <contour>
      <point x="2049" y="1400" type="line"/>
      <point x="1477" y="154" type="line"/>
      <point x="1535" y="146" type="line"/>
      <point x="1371" y="1400" type="line"/>
      <point x="1139" y="1400" type="line"/>
      <point x="567" y="154" type="line"/>
      <point x="625" y="146" type="line"/>
      <point x="461" y="1400" type="line"/>
      <point x="207" y="1400" type="line"/>
      <point x="441" y="0" type="line"/>
      <point x="683" y="0" type="line"/>
      <point x="1247" y="1204" type="line"/>
      <point x="1189" y="1212" type="line"/>
      <point x="1351" y="0" type="line"/>
      <point x="1595" y="0" type="line"/>
      <point x="2293" y="1400" type="line"/>
    </contour>
  </outline>
</glyph>
<glyph name="X" format="2">
  <advance width="1384"/>
  <unicode hex="0058"/>
  <outline>
    <contour>
      <point x="1156" y="1400" type="line"/>
      <point x="730" y="902" type="line"/>
      <point x="472" y="1400" type="line"/>
      <point x="196" y="1400" type="line"/>
      <point x="558" y="718" type="line"/>
      <point x="-68" y="0" type="line"/>
      <point x="208" y="0" type="line"/>
      <point x="672" y="540" type="line"/>
      <point x="960" y="0" type="line"/>
      <point x="1244" y="0" type="line"/>
      <point x="852" y="728" type="line"/>
      <point x="1434" y="1400" type="line"/>
    </contour>
  </outline>
</glyph>
<glyph name="Y" format="2">
  <advance width="615"/>
  <unicode hex="0059"/>
  <anchor x="285" y="0" name="bottom"/>
  <anchor x="395" y="700" name="top"/>
  <anchor x="96" y="700" name="topleft"/>
  <outline>
    <contour>
      <point x="271" y="295" type="line"/>
      <point x="223" y="0" type="line"/>
      <point x="341" y="0" type="line"/>
      <point x="389" y="295" type="line"/>
    </contour>
    <contour>
      <point x="274" y="206" type="line"/>
      <point x="356" y="206" type="line"/>
      <point x="712" y="700" type="line"/>
      <point x="592" y="700" type="line"/>
      <point x="308" y="312" type="line"/>
      <point x="359" y="306" type="line"/>
      <point x="197" y="700" type="line"/>
      <point x="77" y="700" type="line"/>
    </contour>
  </outline>
</glyph>
<glyph name="Z" format="2">
  <advance width="656"/>
  <unicode hex="005A"/>
  <anchor x="305" y="0" name="bottom"/>
  <anchor x="405" y="700" name="top"/>
  <outline>
    <contour>
      <point x="113" y="700" type="line"/>
      <point x="97" y="599" type="line"/>
      <point x="563" y="599" type="line"/>
      <point x="547" y="636" type="line"/>
      <point x="-2" y="80" type="line"/>
      <point x="-15" y="0" type="line"/>
      <point x="576" y="0" type="line"/>
      <point x="592" y="101" type="line"/>
      <point x="109" y="101" type="line"/>
      <point x="125" y="64" type="line"/>
      <point x="673" y="620" type="line"/>
      <point x="686" y="700" type="line"/>
    </contour>
  </outline>
</glyph>
<glyph name="bracketleft" format="2">
  <advance width="308"/>
  <unicode hex="005B"/>
  <outline>
    <contour>
      <point x="167" y="742" type="line"/>
      <point x="-7" y="-124" type="line"/>
      <point x="220" y="-124" type="line"/>
      <point x="238" y="-37" type="line"/>
      <point x="114" y="-37" type="line"/>
      <point x="252" y="655" type="line"/>
      <point x="376" y="655" type="line"/>
      <point x="394" y="742" type="line"/>
    </contour>
  </outline>
</glyph>
<glyph name="bracketright" format="2">
  <advance width="658"/>
  <unicode hex="005D"/>
  <outline>
    <contour>
      <point x="347" y="-248" type="line"/>
      <point x="695" y="1484" type="line"/>
      <point x="241" y="1484" type="line"/>
      <point x="205" y="1310" type="line"/>
      <point x="453" y="1310" type="line"/>
      <point x="177" y="-74" type="line"/>
      <point x="-71" y="-74" type="line"/>
      <point x="-107" y="-248" type="line"/>
    </contour>
  </outline>
</glyph>
<glyph name="asciicircum" format="2">
  <advance width="1074"/>
  <unicode hex="005E"/>
  <outline>
    <contour>
      <point x="739" y="1052" type="line"/>
      <point x="547" y="1052" type="line"/>
      <point x="19" y="266" type="line"/>
      <point x="191" y="266" type="line"/>
      <point x="621" y="912" type="line"/>
      <point x="789" y="266" type="line"/>
      <point x="953" y="266" type="line"/>
    </contour>
  </outline>
</glyph>
<glyph name="underscore" format="2">
  <advance width="545"/>
  <unicode hex="005F"/>
  <outline>
    <contour>
      <point x="-91" y="-138" type="line"/>
      <point x="-105" y="-204" type="line"/>
      <point x="461" y="-204" type="line"/>
      <point x="475" y="-138" type="line"/>
    </contour>
  </outline>
</glyph>
<glyph name="a" format="2">
  <advance width="1172"/>
  <unicode hex="0061"/>
  <anchor x="570" y="0" name="bottom"/>
  <anchor x="1034" y="0" name="ogonek"/>
  <anchor x="680" y="1062" name="top"/>
  <outline>
    <contour>
      <point x="699" y="0" type="line"/>
      <point x="932" y="0" type="line"/>
      <point x="1058" y="646" type="line" smooth="yes"/>
      <point x="1063" y="673"/>
      <point x="1066" y="704"/>
      <point x="1066" y="734" type="curve" smooth="yes"/>
      <point x="1066" y="952"/>
      <point x="914" y="1070"/>
      <point x="635" y="1070" type="curve" smooth="yes"/>
      <point x="496" y="1070"/>
      <point x="371" y="1035"/>
      <point x="199" y="946" type="curve"/>
      <point x="249" y="786" type="line"/>
      <point x="377" y="857"/>
      <point x="499" y="894"/>
      <point x="609" y="894" type="curve" smooth="yes"/>
      <point x="757" y="894"/>
      <point x="835" y="827"/>
      <point x="835" y="700" type="curve" smooth="yes"/>
      <point x="835" y="684"/>
      <point x="833" y="668"/>
      <point x="829" y="646" type="curve" smooth="yes"/>
    </contour>
    <contour>
      <point x="834" y="474" type="line"/>
      <point x="866" y="638" type="line"/>
      <point x="516" y="638" type="line" smooth="yes"/>
      <point x="223" y="638"/>
      <point x="46" y="507"/>
      <point x="46" y="291" type="curve" smooth="yes"/>
      <point x="46" y="109"/>
      <point x="198" y="-10"/>
      <point x="431" y="-10" type="curve" smooth="yes"/>
      <point x="630" y="-10"/>
      <point x="844" y="162"/>
      <point x="888" y="357" type="curve"/>
      <point x="777" y="392" type="line"/>
      <point x="747" y="265"/>
      <point x="617" y="166"/>
      <point x="486" y="166" type="curve" smooth="yes"/>
      <point x="353" y="166"/>
      <point x="267" y="221"/>
      <point x="267" y="311" type="curve" smooth="yes"/>
      <point x="267" y="422"/>
      <point x="346" y="474"/>
      <point x="517" y="474" type="curve" smooth="yes"/>
    </contour>
  </outline>
</glyph>
<glyph name="b" format="2">
  <advance width="664"/>
  <unicode hex="0062"/>
  <anchor x="279" y="0" name="bottom"/>
  <anchor x="385" y="531" name="top"/>
  <outline>
    <contour>
      <point x="418" y="534" type="curve" smooth="yes"/>
      <point x="343" y="534"/>
      <point x="278" y="503"/>
      <point x="230" y="451" type="curve"/>
      <point x="288" y="742" type="line"/>
      <point x="174" y="742" type="line"/>
      <point x="26" y="0" type="line"/>
      <point x="140" y="0" type="line"/>
      <point x="163" y="113" type="line"/>
      <point x="191" y="35"/>
      <point x="255" y="-7"/>
      <point x="349" y="-7" type="curve" smooth="yes"/>
      <point x="514" y="-7"/>
      <point x="639" y="124"/>
      <point x="639" y="295" type="curve" smooth="yes"/>
      <point x="639" y="438"/>
      <point x="550" y="534"/>
    </contour>
    <contour>
      <point x="379" y="445" type="curve" smooth="yes"/>
      <point x="465" y="445"/>
      <point x="523" y="383"/>
      <point x="523" y="290" type="curve" smooth="yes"/>
      <point x="523" y="179"/>
      <point x="439" y="88"/>
      <point x="335" y="88" type="curve" smooth="yes"/>
      <point x="249" y="88"/>
      <point x="193" y="150"/>
      <point x="193" y="243" type="curve" smooth="yes"/>
      <point x="193" y="355"/>
      <point x="275" y="445"/>
    </contour>
  </outline>
</glyph>
<glyph name="c" format="2">
  <advance width="562"/>
  <unicode hex="0063"/>
  <anchor x="238" y="0" name="bottom"/>
  <anchor x="334" y="531" name="top"/>
  <outline>
    <contour>
      <point x="267" y="-4" type="curve" smooth="yes"/>
      <point x="369" y="-4"/>
      <point x="449" y="31"/>
      <point x="503" y="91" type="curve"/>
      <point x="445" y="154" type="line"/>
      <point x="406" y="111"/>
      <point x="349" y="89"/>
      <point x="282" y="89" type="curve" smooth="yes"/>
      <point x="197" y="89"/>
      <point x="140" y="153"/>
      <point x="140" y="246" type="curve" smooth="yes"/>
      <point x="140" y="360"/>
      <point x="217" y="440"/>
      <point x="317" y="440" type="curve" smooth="yes"/>
      <point x="381" y="440"/>
      <point x="430" y="417"/>
      <point x="463" y="379" type="curve"/>
      <point x="533" y="453" type="line"/>
      <point x="489" y="505"/>
      <point x="417" y="535"/>
      <point x="322" y="535" type="curve" smooth="yes"/>
      <point x="152" y="535"/>
      <point x="25" y="412"/>
      <point x="25" y="238" type="curve" smooth="yes"/>
      <point x="25" y="94"/>
      <point x="121" y="-4"/>
    </contour>
  </outline>
</glyph>
<glyph name="d" format="2">
  <advance width="1364"/>
  <unicode hex="0064"/>
  <anchor x="571" y="0" name="bottom"/>
  <anchor x="1155" y="1230" name="center"/>
  <anchor x="1507" y="1484" name="topright"/>
  <outline>
    <contour>
      <point x="509" y="-10" type="curve" smooth="yes"/>
      <point x="659" y="-10"/>
      <point x="789" y="52"/>
      <point x="885" y="156" type="curve"/>
      <point x="853" y="0" type="line"/>
      <point x="1081" y="0" type="line"/>
      <point x="1377" y="1484" type="line"/>
      <point x="1149" y="1484" type="line"/>
      <point x="1019" y="832" type="line"/>
      <point x="963" y="988"/>
      <point x="835" y="1072"/>
      <point x="647" y="1072" type="curve" smooth="yes"/>
      <point x="317" y="1072"/>
      <point x="67" y="810"/>
      <point x="67" y="468" type="curve" smooth="yes"/>
      <point x="67" y="182"/>
      <point x="245" y="-10"/>
    </contour>
    <contour>
      <point x="587" y="168" type="curve" smooth="yes"/>
      <point x="415" y="168"/>
      <point x="299" y="292"/>
      <point x="299" y="478" type="curve" smooth="yes"/>
      <point x="299" y="700"/>
      <point x="467" y="882"/>
      <point x="675" y="882" type="curve" smooth="yes"/>
      <point x="847" y="882"/>
      <point x="959" y="758"/>
      <point x="959" y="572" type="curve" smooth="yes"/>
      <point x="959" y="348"/>
      <point x="795" y="168"/>
    </contour>
  </outline>
</glyph>
<glyph name="e" format="2">
  <advance width="1176"/>
  <unicode hex="0065"/>
  <anchor x="545" y="0" name="bottom"/>
  <anchor x="935" y="0" name="ogonek"/>
  <anchor x="691" y="1070" name="top"/>
  <outline>
    <contour>
      <point x="585" y="-12" type="curve" smooth="yes"/>
      <point x="743" y="-12"/>
      <point x="879" y="34"/>
      <point x="985" y="124" type="curve"/>
      <point x="881" y="264" type="line"/>
      <point x="801" y="200"/>
      <point x="699" y="164"/>
      <point x="593" y="164" type="curve" smooth="yes"/>
      <point x="399" y="164"/>
      <point x="281" y="282"/>
      <point x="281" y="474" type="curve" smooth="yes"/>
      <point x="281" y="712"/>
      <point x="445" y="892"/>
      <point x="663" y="892" type="curve" smooth="yes"/>
      <point x="833" y="892"/>
      <point x="925" y="792"/>
      <point x="925" y="608" type="curve"/>
      <point x="267" y="608" type="line"/>
      <point x="235" y="444" type="line"/>
      <point x="1109" y="444" type="line"/>
      <point x="1193" y="816"/>
      <point x="1011" y="1070"/>
      <point x="661" y="1070" type="curve" smooth="yes"/>
      <point x="315" y="1070"/>
      <point x="55" y="814"/>
      <point x="55" y="476" type="curve" smooth="yes"/>
      <point x="55" y="180"/>
      <point x="263" y="-12"/>
    </contour>
  </outline>
</glyph>
<glyph name="f" format="2">
  <advance width="319"/>
  <unicode hex="0066"/>
  <outline>
    <contour>
      <point x="79" y="531" type="line"/>
      <point x="63" y="449" type="line"/>
      <point x="386" y="449" type="line"/>
      <point x="402" y="531" type="line"/>
    </contour>
    <contour>
      <point x="468" y="741" type="line"/>
      <point x="442" y="757"/>
      <point x="409" y="766"/>
      <point x="372" y="766" type="curve" smooth="yes"/>
      <point x="284" y="766"/>
      <point x="186" y="713"/>
      <point x="161" y="588" type="curve" smooth="yes"/>
      <point x="43" y="0" type="line"/>
      <point x="157" y="0" type="line"/>
      <point x="275" y="592" type="line" smooth="yes"/>
      <point x="285" y="644"/>
      <point x="327" y="671"/>
      <point x="370" y="671" type="curve" smooth="yes"/>
      <point x="389" y="671"/>
      <point x="416" y="664"/>
      <point x="434" y="654" type="curve"/>
    </contour>
  </outline>
</glyph>
<glyph name="g" format="2">
  <advance width="621"/>
  <unicode hex="0067"/>
  <anchor x="258" y="0" name="bottom"/>
  <anchor x="344" y="531" name="top"/>
  <outline>
    <contour>
      <point x="200" y="-197" type="curve" smooth="yes"/>
      <point x="370" y="-197"/>
      <point x="475" y="-124"/>
      <point x="504" y="16" type="curve" smooth="yes"/>
      <point x="610" y="531" type="line"/>
      <point x="496" y="531" type="line"/>
      <point x="474" y="426" type="line"/>
      <point x="448" y="498"/>
      <point x="388" y="536"/>
      <point x="300" y="536" type="curve" smooth="yes"/>
      <point x="145" y="536"/>
      <point x="27" y="412"/>
      <point x="27" y="251" type="curve" smooth="yes"/>
      <point x="27" y="117"/>
      <point x="111" y="26"/>
      <point x="235" y="26" type="curve" smooth="yes"/>
      <point x="302" y="26"/>
      <point x="363" y="53"/>
      <point x="410" y="103" type="curve"/>
      <point x="391" y="23" type="line" smooth="yes"/>
      <point x="370" y="-63"/>
      <point x="305" y="-107"/>
      <point x="199" y="-107" type="curve" smooth="yes"/>
      <point x="138" y="-107"/>
      <point x="83" y="-88"/>
      <point x="37" y="-50" type="curve"/>
      <point x="-16" y="-124" type="line"/>
      <point x="53" y="-174"/>
      <point x="122" y="-197"/>
    </contour>
    <contour>
      <point x="275" y="115" type="curve" smooth="yes"/>
      <point x="196" y="115"/>
      <point x="143" y="171"/>
      <point x="143" y="256" type="curve" smooth="yes"/>
      <point x="143" y="358"/>
      <point x="220" y="441"/>
      <point x="315" y="441" type="curve" smooth="yes"/>
      <point x="394" y="441"/>
      <point x="446" y="385"/>
      <point x="446" y="300" type="curve" smooth="yes"/>
      <point x="446" y="197"/>
      <point x="370" y="115"/>
    </contour>
  </outline>
</glyph>
<glyph name="h" format="2">
  <advance width="1338"/>
  <unicode hex="0068"/>
  <anchor x="564" y="0" name="bottom"/>
  <anchor x="476" y="1230" name="center"/>
  <anchor x="482" y="1484" name="top"/>
  <outline>
    <contour>
      <point x="840" y="1076" type="curve" smooth="yes"/>
      <point x="688" y="1076"/>
      <point x="572" y="1020"/>
      <point x="488" y="908" type="curve"/>
      <point x="600" y="1484" type="line"/>
      <point x="368" y="1484" type="line"/>
      <point x="76" y="0" type="line"/>
      <point x="306" y="0" type="line"/>
      <point x="422" y="576" type="line" smooth="yes"/>
      <point x="460" y="760"/>
      <point x="594" y="882"/>
      <point x="758" y="882" type="curve" smooth="yes"/>
      <point x="928" y="882"/>
      <point x="1016" y="770"/>
      <point x="982" y="596" type="curve" smooth="yes"/>
      <point x="864" y="0" type="line"/>
      <point x="1094" y="0" type="line"/>
      <point x="1220" y="624" type="line" smooth="yes"/>
      <point x="1276" y="900"/>
      <point x="1128" y="1076"/>
    </contour>
  </outline>
</glyph>
<glyph name="k" format="2">
  <advance width="591"/>
  <unicode hex="006B"/>
  <anchor x="251" y="0" name="bottom"/>
  <anchor x="232" y="742" name="top"/>
  <anchor x="308" y="531" name="topright"/>
  <outline>
    <contour>
      <point x="174" y="742" type="line"/>
      <point x="26" y="0" type="line"/>
      <point x="141" y="0" type="line"/>
      <point x="289" y="742" type="line"/>
    </contour>
    <contour>
      <point x="481" y="531" type="line"/>
      <point x="187" y="278" type="line"/>
      <point x="159" y="128" type="line"/>
      <point x="631" y="531" type="line"/>
    </contour>
    <contour>
      <point x="274" y="273" type="line"/>
      <point x="392" y="0" type="line"/>
      <point x="531" y="0" type="line"/>
      <point x="366" y="342" type="line"/>
    </contour>
  </outline>
</glyph>
<glyph name="l" format="2">
  <advance width="290"/>
  <unicode hex="006C"/>
  <anchor x="93" y="0" name="bottom"/>
  <anchor x="314" y="399" name="center"/>
  <anchor x="218" y="742" name="top"/>
  <anchor x="339" y="742" name="topright"/>
  <outline>
    <contour>
      <point x="42" y="149" type="line" smooth="yes"/>
      <point x="22" y="52"/>
      <point x="72" y="-5"/>
      <point x="150" y="-5" type="curve" smooth="yes"/>
      <point x="178" y="-5"/>
      <point x="214" y="3"/>
      <point x="251" y="22" type="curve"/>
      <point x="247" y="113" type="line"/>
      <point x="225" y="102"/>
      <point x="207" y="94"/>
      <point x="187" y="94" type="curve" smooth="yes"/>
      <point x="161" y="94"/>
      <point x="148" y="109"/>
      <point x="156" y="152" type="curve" smooth="yes"/>
      <point x="274" y="742" type="line"/>
      <point x="160" y="742" type="line"/>
    </contour>
  </outline>
</glyph>
<glyph name="m" format="2">
  <advance width="1037"/>
  <unicode hex="006D"/>
  <anchor x="473" y="0" name="bottom"/>
  <anchor x="572" y="531" name="top"/>
  <outline>
    <contour>
      <point x="404" y="538" type="curve" smooth="yes"/>
      <point x="328" y="538"/>
      <point x="270" y="510"/>
      <point x="228" y="454" type="curve"/>
      <point x="243" y="531" type="line"/>
      <point x="127" y="531" type="line"/>
      <point x="22" y="0" type="line"/>
      <point x="137" y="0" type="line"/>
      <point x="195" y="288" type="line" smooth="yes"/>
      <point x="214" y="380"/>
      <point x="281" y="441"/>
      <point x="363" y="441" type="curve" smooth="yes"/>
      <point x="448" y="441"/>
      <point x="492" y="385"/>
      <point x="475" y="298" type="curve" smooth="yes"/>
      <point x="416" y="0" type="line"/>
      <point x="531" y="0" type="line"/>
      <point x="594" y="312" type="line" smooth="yes"/>
      <point x="622" y="450"/>
      <point x="548" y="538"/>
    </contour>
    <contour>
      <point x="798" y="538" type="curve" smooth="yes"/>
      <point x="678" y="538"/>
      <point x="595" y="463"/>
      <point x="545" y="309" type="curve"/>
      <point x="531" y="0" type="line"/>
      <point x="589" y="288" type="line" smooth="yes"/>
      <point x="608" y="380"/>
      <point x="675" y="441"/>
      <point x="757" y="441" type="curve" smooth="yes"/>
      <point x="842" y="441"/>
      <point x="886" y="385"/>
      <point x="869" y="298" type="curve" smooth="yes"/>
      <point x="810" y="0" type="line"/>
      <point x="925" y="0" type="line"/>
      <point x="988" y="312" type="line" smooth="yes"/>
      <point x="1016" y="450"/>
      <point x="942" y="538"/>
    </contour>
  </outline>
</glyph>
<glyph name="n" format="2">
  <advance width="643"/>
  <unicode hex="006E"/>
  <anchor x="286" y="0" name="bottom"/>
  <anchor x="386" y="531" name="top"/>
  <anchor x="78" y="531" name="topleft"/>
  <outline>
    <contour>
      <point x="404" y="538" type="curve" smooth="yes"/>
      <point x="328" y="538"/>
      <point x="270" y="510"/>
      <point x="228" y="454" type="curve"/>
      <point x="243" y="531" type="line"/>
      <point x="127" y="531" type="line"/>
      <point x="22" y="0" type="line"/>
      <point x="137" y="0" type="line"/>
      <point x="195" y="288" type="line" smooth="yes"/>
      <point x="214" y="380"/>
      <point x="281" y="441"/>
      <point x="363" y="441" type="curve" smooth="yes"/>
      <point x="448" y="441"/>
      <point x="492" y="385"/>
      <point x="475" y="298" type="curve" smooth="yes"/>
      <point x="416" y="0" type="line"/>
      <point x="531" y="0" type="line"/>
      <point x="594" y="312" type="line" smooth="yes"/>
      <point x="622" y="450"/>
      <point x="548" y="538"/>
    </contour>
  </outline>
</glyph>
<glyph name="o" format="2">
  <advance width="609"/>
  <unicode hex="006F"/>
  <anchor x="282" y="0" name="bottom"/>
  <anchor x="305" y="266" name="center"/>
  <anchor x="451" y="0" name="ogonek"/>
  <anchor x="331" y="531" name="top"/>
  <anchor x="475" y="531" name="topright"/>
  <outline>
    <contour>
      <point x="331" y="535" type="curve" smooth="yes"/>
      <point x="155" y="535"/>
      <point x="25" y="413"/>
      <point x="25" y="240" type="curve" smooth="yes"/>
      <point x="25" y="95"/>
      <point x="124" y="-4"/>
      <point x="277" y="-4" type="curve" smooth="yes"/>
      <point x="453" y="-4"/>
      <point x="584" y="118"/>
      <point x="584" y="292" type="curve" smooth="yes"/>
      <point x="584" y="436"/>
      <point x="484" y="535"/>
    </contour>
    <contour>
      <point x="322" y="442" type="curve" smooth="yes"/>
      <point x="410" y="442"/>
      <point x="467" y="377"/>
      <point x="467" y="284" type="curve" smooth="yes"/>
      <point x="467" y="168"/>
      <point x="389" y="87"/>
      <point x="286" y="87" type="curve" smooth="yes"/>
      <point x="198" y="87"/>
      <point x="141" y="151"/>
      <point x="141" y="245" type="curve" smooth="yes"/>
      <point x="141" y="360"/>
      <point x="219" y="442"/>
    </contour>
  </outline>
</glyph>
<glyph name="q" format="2">
  <advance width="1364"/>
  <unicode hex="0071"/>
  <outline>
    <contour>
      <point x="509" y="-10" type="curve" smooth="yes"/>
      <point x="659" y="-10"/>
      <point x="789" y="52"/>
      <point x="885" y="156" type="curve"/>
      <point x="775" y="-388" type="line"/>
      <point x="1003" y="-388" type="line"/>
      <point x="1293" y="1062" type="line"/>
      <point x="1065" y="1062" type="line"/>
      <point x="1019" y="832" type="line"/>
      <point x="963" y="988"/>
      <point x="835" y="1072"/>
      <point x="647" y="1072" type="curve" smooth="yes"/>
      <point x="317" y="1072"/>
      <point x="67" y="810"/>
      <point x="67" y="468" type="curve" smooth="yes"/>
      <point x="67" y="182"/>
      <point x="245" y="-10"/>
    </contour>
    <contour>
      <point x="587" y="168" type="curve" smooth="yes"/>
      <point x="415" y="168"/>
      <point x="299" y="292"/>
      <point x="299" y="478" type="curve" smooth="yes"/>
      <point x="299" y="700"/>
      <point x="467" y="882"/>
      <point x="675" y="882" type="curve" smooth="yes"/>
      <point x="847" y="882"/>
      <point x="959" y="758"/>
      <point x="959" y="572" type="curve" smooth="yes"/>
      <point x="959" y="348"/>
      <point x="795" y="168"/>
    </contour>
  </outline>
</glyph>
<glyph name="r" format="2">
  <advance width="788"/>
  <unicode hex="0072"/>
  <anchor x="171" y="0" name="bottom"/>
  <anchor x="599" y="1062" name="top"/>
  <outline>
    <contour>
      <point x="273" y="1062" type="line"/>
      <point x="61" y="0" type="line"/>
      <point x="291" y="0" type="line"/>
      <point x="503" y="1062" type="line"/>
    </contour>
    <contour>
      <point x="865" y="1070" type="line"/>
      <point x="597" y="1068"/>
      <point x="403" y="888"/>
      <point x="331" y="532" type="curve"/>
      <point x="389" y="504" type="line"/>
      <point x="431" y="712"/>
      <point x="609" y="872"/>
      <point x="837" y="862" type="curve"/>
    </contour>
  </outline>
</glyph>
<glyph name="s" format="2">
  <advance width="940"/>
  <unicode hex="0073"/>
  <anchor x="365" y="0" name="bottom"/>
  <anchor x="637" y="1062" name="top"/>
  <outline>
    <contour>
      <point x="437" y="-10" type="curve" smooth="yes"/>
      <point x="673" y="-10"/>
      <point x="839" y="124"/>
      <point x="839" y="316" type="curve" smooth="yes"/>
      <point x="839" y="642"/>
      <point x="357" y="598"/>
      <point x="357" y="776" type="curve" smooth="yes"/>
      <point x="357" y="844"/>
      <point x="425" y="896"/>
      <point x="515" y="896" type="curve" smooth="yes"/>
      <point x="607" y="896"/>
      <point x="735" y="846"/>
      <point x="831" y="774" type="curve"/>
      <point x="943" y="924" type="line"/>
      <point x="845" y="1012"/>
      <point x="675" y="1072"/>
      <point x="519" y="1072" type="curve" smooth="yes"/>
      <point x="289" y="1072"/>
      <point x="133" y="944"/>
      <point x="133" y="756" type="curve" smooth="yes"/>
      <point x="133" y="430"/>
      <point x="607" y="492"/>
      <point x="607" y="296" type="curve" smooth="yes"/>
      <point x="607" y="218"/>
      <point x="535" y="164"/>
      <point x="431" y="164" type="curve" smooth="yes"/>
      <point x="307" y="164"/>
      <point x="147" y="238"/>
      <point x="65" y="334" type="curve"/>
      <point x="-37" y="188" type="line"/>
      <point x="57" y="72"/>
      <point x="253" y="-10"/>
    </contour>
  </outline>
</glyph>
<glyph name="t" format="2">
  <advance width="387"/>
  <unicode hex="0074"/>
  <anchor x="182" y="0" name="bottom"/>
  <anchor x="185" y="300" name="center"/>
  <anchor x="224" y="656" name="top"/>
  <anchor x="377" y="742" name="topright"/>
  <outline>
    <contour>
      <point x="173" y="657" type="line"/>
      <point x="72" y="153" type="line" smooth="yes"/>
      <point x="51" y="44"/>
      <point x="113" y="-5"/>
      <point x="197" y="-5" type="curve" smooth="yes"/>
      <point x="238" y="-5"/>
      <point x="284" y="7"/>
      <point x="331" y="33" type="curve"/>
      <point x="313" y="120" type="line"/>
      <point x="280" y="104"/>
      <point x="253" y="94"/>
      <point x="225" y="94" type="curve" smooth="yes"/>
      <point x="193" y="94"/>
      <point x="177" y="106"/>
      <point x="188" y="163" type="curve" smooth="yes"/>
      <point x="287" y="657" type="line"/>
    </contour>
    <contour>
      <point x="74" y="531" type="line"/>
      <point x="58" y="449" type="line"/>
      <point x="404" y="449" type="line"/>
      <point x="420" y="531" type="line"/>
    </contour>
  </outline>
</glyph>
<glyph name="u" format="2">
  <advance width="643"/>
  <unicode hex="0075"/>
  <anchor x="268" y="0" name="bottom"/>
  <anchor x="516" y="0" name="ogonek"/>
  <anchor x="374" y="531" name="top"/>
  <anchor x="591" y="531" name="topright"/>
  <anchor x="587" y="0" name="topleft"/>
  <outline>
    <contour>
      <point x="261" y="-7" type="curve" smooth="yes"/>
      <point x="337" y="-7"/>
      <point x="395" y="21"/>
      <point x="437" y="77" type="curve"/>
      <point x="422" y="0" type="line"/>
      <point x="538" y="0" type="line"/>
      <point x="643" y="531" type="line"/>
      <point x="528" y="531" type="line"/>
      <point x="470" y="243" type="line" smooth="yes"/>
      <point x="451" y="151"/>
      <point x="384" y="90"/>
      <point x="302" y="90" type="curve" smooth="yes"/>
      <point x="217" y="90"/>
      <point x="173" y="146"/>
      <point x="190" y="233" type="curve" smooth="yes"/>
      <point x="249" y="531" type="line"/>
      <point x="134" y="531" type="line"/>
      <point x="71" y="219" type="line" smooth="yes"/>
      <point x="43" y="81"/>
      <point x="117" y="-7"/>
    </contour>
  </outline>
</glyph>
<glyph name="v" format="2">
  <advance width="503"/>
  <unicode hex="0076"/>
  <outline>
    <contour>
      <point x="455" y="531" type="line"/>
      <point x="223" y="106" type="line"/>
      <point x="161" y="531" type="line"/>
      <point x="43" y="531" type="line"/>
      <point x="143" y="0" type="line"/>
      <point x="262" y="0" type="line"/>
      <point x="572" y="531" type="line"/>
    </contour>
  </outline>
</glyph>
<glyph name="w" format="2">
  <advance width="871"/>
  <unicode hex="0077"/>
  <anchor x="488" y="531" name="top"/>
  <outline>
    <contour>
      <point x="821" y="531" type="line"/>
      <point x="600" y="106" type="line"/>
      <point x="550" y="531" type="line"/>
      <point x="431" y="531" type="line"/>
      <point x="211" y="106" type="line"/>
      <point x="159" y="531" type="line"/>
      <point x="43" y="531" type="line"/>
      <point x="133" y="0" type="line"/>
      <point x="251" y="0" type="line"/>
      <point x="468" y="402" type="line"/>
      <point x="521" y="0" type="line"/>
      <point x="640" y="0" type="line"/>
      <point x="940" y="531" type="line"/>
    </contour>
  </outline>
</glyph>
<glyph name="x" format="2">
  <advance width="532"/>
  <unicode hex="0078"/>
  <outline>
    <contour>
      <point x="71" y="531" type="line"/>
      <point x="193" y="272" type="line"/>
      <point x="-50" y="0" type="line"/>
      <point x="80" y="0" type="line"/>
      <point x="258" y="199" type="line"/>
      <point x="343" y="0" type="line"/>
      <point x="473" y="0" type="line"/>
      <point x="345" y="272" type="line"/>
      <point x="569" y="531" type="line"/>
      <point x="441" y="531" type="line"/>
      <point x="281" y="345" type="line"/>
      <point x="201" y="531" type="line"/>
    </contour>
  </outline>
</glyph>
<glyph name="y" format="2">
  <advance width="509"/>
  <unicode hex="0079"/>
  <anchor x="372" y="0" name="bottom"/>
  <anchor x="308" y="531" name="top"/>
  <outline>
    <contour>
      <point x="461" y="531" type="line"/>
      <point x="205" y="76" type="line"/>
      <point x="239" y="70" type="line"/>
      <point x="154" y="531" type="line"/>
      <point x="37" y="531" type="line"/>
      <point x="151" y="7" type="line"/>
      <point x="125" y="-32" type="line" smooth="yes"/>
      <point x="97" y="-73"/>
      <point x="64" y="-96"/>
      <point x="25" y="-96" type="curve" smooth="yes"/>
      <point x="5" y="-96"/>
      <point x="-14" y="-91"/>
      <point x="-36" y="-73" type="curve"/>
      <point x="-96" y="-152" type="line"/>
      <point x="-63" y="-182"/>
      <point x="-29" y="-199"/>
      <point x="23" y="-199" type="curve" smooth="yes"/>
      <point x="99" y="-199"/>
      <point x="165" y="-162"/>
      <point x="214" y="-79" type="curve" smooth="yes"/>
      <point x="578" y="531" type="line"/>
    </contour>
  </outline>
</glyph>
<glyph name="z" format="2">
  <advance width="1074"/>
  <unicode hex="007A"/>
  <anchor x="472" y="0" name="bottom"/>
  <anchor x="644" y="1062" name="top"/>
  <outline>
    <contour>
      <point x="216" y="1062" type="line"/>
      <point x="182" y="886" type="line"/>
      <point x="768" y="884" type="line"/>
      <point x="14" y="148" type="line"/>
      <point x="-14" y="0" type="line"/>
      <point x="894" y="-2" type="line"/>
      <point x="930" y="176" type="line"/>
      <point x="306" y="176" type="line"/>
      <point x="1062" y="912" type="line"/>
      <point x="1090" y="1060" type="line"/>
    </contour>
  </outline>
</glyph>
<glyph name="braceleft" format="2">
  <advance width="324"/>
  <unicode hex="007B"/>
  <outline>
    <contour>
      <point x="277" y="585" type="line" smooth="yes"/>
      <point x="287" y="637"/>
      <point x="317" y="656"/>
      <point x="386" y="656" type="curve"/>
      <point x="404" y="743" type="line"/>
      <point x="361" y="743" type="line" smooth="yes"/>
      <point x="249" y="743"/>
      <point x="199" y="708"/>
      <point x="181" y="617" type="curve" smooth="yes"/>
      <point x="139" y="408" type="line" smooth="yes"/>
      <point x="131" y="369"/>
      <point x="115" y="353"/>
      <point x="84" y="353" type="curve" smooth="yes"/>
      <point x="53" y="353" type="line"/>
      <point x="35" y="264" type="line"/>
      <point x="66" y="264" type="line" smooth="yes"/>
      <point x="97" y="264"/>
      <point x="107" y="247"/>
      <point x="99" y="209" type="curve" smooth="yes"/>
      <point x="57" y="0" type="line" smooth="yes"/>
      <point x="39" y="-91"/>
      <point x="75" y="-126"/>
      <point x="187" y="-126" type="curve" smooth="yes"/>
      <point x="230" y="-126" type="line"/>
      <point x="248" y="-39" type="line"/>
      <point x="179" y="-39"/>
      <point x="157" y="-19"/>
      <point x="167" y="32" type="curve" smooth="yes"/>
      <point x="201" y="202" type="line" smooth="yes"/>
      <point x="214" y="266"/>
      <point x="201" y="293"/>
      <point x="153" y="308" type="curve"/>
      <point x="204" y="318"/>
      <point x="230" y="349"/>
      <point x="243" y="414" type="curve" smooth="yes"/>
    </contour>
  </outline>
</glyph>
<glyph name="bar" format="2">
  <advance width="248"/>
  <unicode hex="007C"/>
  <outline>
    <contour>
      <point x="189" y="811" type="line"/>
      <point x="3" y="-117" type="line"/>
      <point x="91" y="-117" type="line"/>
      <point x="277" y="811" type="line"/>
    </contour>
  </outline>
</glyph>
<glyph name="braceright" format="2">
  <advance width="325"/>
  <unicode hex="007D"/>
  <outline>
    <contour>
      <point x="69" y="33" type="line" smooth="yes"/>
      <point x="59" y="-19"/>
      <point x="29" y="-38"/>
      <point x="-40" y="-38" type="curve"/>
      <point x="-58" y="-125" type="line"/>
      <point x="-15" y="-125" type="line" smooth="yes"/>
      <point x="97" y="-125"/>
      <point x="147" y="-90"/>
      <point x="165" y="1" type="curve" smooth="yes"/>
      <point x="207" y="210" type="line" smooth="yes"/>
      <point x="215" y="249"/>
      <point x="231" y="265"/>
      <point x="262" y="265" type="curve" smooth="yes"/>
      <point x="293" y="265" type="line"/>
      <point x="311" y="354" type="line"/>
      <point x="280" y="354" type="line" smooth="yes"/>
      <point x="249" y="354"/>
      <point x="239" y="371"/>
      <point x="247" y="409" type="curve" smooth="yes"/>
      <point x="289" y="618" type="line" smooth="yes"/>
      <point x="307" y="709"/>
      <point x="271" y="744"/>
      <point x="159" y="744" type="curve" smooth="yes"/>
      <point x="116" y="744" type="line"/>
      <point x="98" y="657" type="line"/>
      <point x="167" y="657"/>
      <point x="189" y="637"/>
      <point x="179" y="586" type="curve" smooth="yes"/>
      <point x="145" y="416" type="line" smooth="yes"/>
      <point x="132" y="352"/>
      <point x="145" y="325"/>
      <point x="193" y="310" type="curve"/>
      <point x="142" y="300"/>
      <point x="116" y="269"/>
      <point x="103" y="204" type="curve" smooth="yes"/>
    </contour>
  </outline>
</glyph>
<glyph name="asciitilde" format="2">
  <advance width="996"/>
  <unicode hex="007E"/>
  <outline>
    <contour>
      <point x="369" y="790" type="curve" smooth="yes"/>
      <point x="241" y="790"/>
      <point x="165" y="698"/>
      <point x="129" y="518" type="curve"/>
      <point x="289" y="518" type="line"/>
      <point x="301" y="584"/>
      <point x="335" y="620"/>
      <point x="387" y="620" type="curve" smooth="yes"/>
      <point x="469" y="620"/>
      <point x="531" y="504"/>
      <point x="667" y="504" type="curve" smooth="yes"/>
      <point x="795" y="504"/>
      <point x="877" y="596"/>
      <point x="913" y="776" type="curve"/>
      <point x="755" y="776" type="line"/>
      <point x="741" y="710"/>
      <point x="699" y="674"/>
      <point x="649" y="674" type="curve" smooth="yes"/>
      <point x="567" y="674"/>
      <point x="497" y="790"/>
    </contour>
  </outline>
</glyph>
<glyph name="exclamdown" format="2">
  <advance width="420"/>
  <unicode hex="00A1"/>
  <outline>
    <contour>
      <point x="124" y="-338" type="line"/>
      <point x="195" y="24" type="line"/>
      <point x="279" y="622" type="line"/>
      <point x="133" y="622" type="line"/>
      <point x="-23" y="24" type="line"/>
      <point x="-94" y="-338" type="line"/>
    </contour>
    <contour>
      <point x="253" y="826" type="curve" smooth="yes"/>
      <point x="331" y="826"/>
      <point x="391" y="886"/>
      <point x="391" y="964" type="curve" smooth="yes"/>
      <point x="391" y="1032"/>
      <point x="345" y="1080"/>
      <point x="277" y="1080" type="curve" smooth="yes"/>
      <point x="199" y="1080"/>
      <point x="139" y="1018"/>
      <point x="139" y="940" type="curve" smooth="yes"/>
      <point x="139" y="872"/>
      <point x="185" y="826"/>
    </contour>
  </outline>
</glyph>
<glyph name="cent" format="2">
  <advance width="1200"/>
  <unicode hex="00A2"/>
  <anchor x="514" y="0" name="bottom"/>
  <anchor x="706" y="1062" name="top"/>
  <outline>
    <contour>
      <point x="446" y="94" type="line"/>
      <point x="372" y="-280" type="line"/>
      <point x="546" y="-280" type="line"/>
      <point x="620" y="94" type="line"/>
    </contour>
    <contour>
      <point x="696" y="1364" type="line"/>
      <point x="614" y="940" type="line"/>
      <point x="790" y="940" type="line"/>
      <point x="872" y="1364" type="line"/>
    </contour>
    <contour>
      <point x="572" y="-8" type="curve" smooth="yes"/>
      <point x="776" y="-8"/>
      <point x="936" y="62"/>
      <point x="1044" y="182" type="curve"/>
      <point x="928" y="308" type="line"/>
      <point x="850" y="222"/>
      <point x="736" y="178"/>
      <point x="602" y="178" type="curve" smooth="yes"/>
      <point x="432" y="178"/>
      <point x="318" y="306"/>
      <point x="318" y="492" type="curve" smooth="yes"/>
      <point x="318" y="720"/>
      <point x="472" y="880"/>
      <point x="672" y="880" type="curve" smooth="yes"/>
      <point x="800" y="880"/>
      <point x="898" y="834"/>
      <point x="964" y="758" type="curve"/>
      <point x="1104" y="906" type="line"/>
      <point x="1016" y="1010"/>
      <point x="872" y="1070"/>
      <point x="682" y="1070" type="curve" smooth="yes"/>
      <point x="342" y="1070"/>
      <point x="88" y="824"/>
      <point x="88" y="476" type="curve" smooth="yes"/>
      <point x="88" y="188"/>
      <point x="280" y="-8"/>
    </contour>
  </outline>
</glyph>
<glyph name="sterling" format="2">
  <advance width="525"/>
  <unicode hex="00A3"/>
  <outline>
    <contour>
      <point x="410" y="705" type="curve" smooth="yes"/>
      <point x="274" y="705"/>
      <point x="181" y="625"/>
      <point x="153" y="484" type="curve" smooth="yes"/>
      <point x="64" y="40" type="line"/>
      <point x="126" y="91" type="line"/>
      <point x="-9" y="91" type="line"/>
      <point x="-27" y="0" type="line"/>
      <point x="454" y="0" type="line"/>
      <point x="472" y="91" type="line"/>
      <point x="140" y="91" type="line"/>
      <point x="182" y="40" type="line"/>
      <point x="270" y="482" type="line" smooth="yes"/>
      <point x="286" y="563"/>
      <point x="333" y="605"/>
      <point x="402" y="605" type="curve" smooth="yes"/>
      <point x="451" y="605"/>
      <point x="493" y="578"/>
      <point x="526" y="528" type="curve"/>
      <point x="590" y="614" type="line"/>
      <point x="550" y="672"/>
      <point x="486" y="705"/>
    </contour>
    <contour>
      <point x="37" y="322" type="line"/>
      <point x="414" y="322" type="line"/>
      <point x="426" y="382" type="line"/>
      <point x="49" y="382" type="line"/>
    </contour>
  </outline>
</glyph>
<glyph name="currency" format="2">
  <advance width="1422"/>
  <unicode hex="00A4"/>
  <outline>
    <contour>
      <point x="730" y="1166" type="curve" smooth="yes"/>
      <point x="434" y="1166"/>
      <point x="194" y="930"/>
      <point x="194" y="638" type="curve" smooth="yes"/>
      <point x="194" y="350"/>
      <point x="434" y="114"/>
      <point x="730" y="114" type="curve" smooth="yes"/>
      <point x="1028" y="114"/>
      <point x="1270" y="350"/>
      <point x="1270" y="638" type="curve" smooth="yes"/>
      <point x="1270" y="930"/>
      <point x="1028" y="1166"/>
    </contour>
    <contour>
      <point x="90" y="124" type="line"/>
      <point x="220" y="-6" type="line"/>
      <point x="450" y="222" type="line"/>
      <point x="318" y="354" type="line"/>
    </contour>
    <contour>
      <point x="1012" y="222" type="line"/>
      <point x="1240" y="-6" type="line"/>
      <point x="1372" y="124" type="line"/>
      <point x="1144" y="354" type="line"/>
    </contour>
    <contour>
      <point x="90" y="1146" type="line"/>
      <point x="318" y="916" type="line"/>
      <point x="450" y="1048" type="line"/>
      <point x="220" y="1276" type="line"/>
    </contour>
    <contour>
      <point x="730" y="984" type="curve" smooth="yes"/>
      <point x="926" y="984"/>
      <point x="1088" y="828"/>
      <point x="1088" y="638" type="curve" smooth="yes"/>
      <point x="1088" y="450"/>
      <point x="926" y="296"/>
      <point x="730" y="296" type="curve" smooth="yes"/>
      <point x="536" y="296"/>
      <point x="378" y="450"/>
      <point x="378" y="638" type="curve" smooth="yes"/>
      <point x="378" y="828"/>
      <point x="536" y="984"/>
    </contour>
    <contour>
      <point x="1012" y="1048" type="line"/>
      <point x="1144" y="916" type="line"/>
      <point x="1372" y="1146" type="line"/>
      <point x="1240" y="1276" type="line"/>
    </contour>
  </outline>
</glyph>
<glyph name="yen" format="2">
  <advance width="606"/>
  <unicode hex="00A5"/>
  <outline>
    <contour>
      <point x="592" y="700" type="line"/>
      <point x="308" y="312" type="line"/>
      <point x="369" y="306" type="line"/>
      <point x="206" y="700" type="line"/>
      <point x="87" y="700" type="line"/>
      <point x="307" y="148" type="line"/>
      <point x="313" y="148" type="line"/>
      <point x="712" y="700" type="line"/>
    </contour>
    <contour>
      <point x="271" y="295" type="line"/>
      <point x="223" y="0" type="line"/>
      <point x="341" y="0" type="line"/>
      <point x="389" y="295" type="line"/>
    </contour>
    <contour>
      <point x="74" y="237" type="line"/>
      <point x="574" y="237" type="line"/>
      <point x="586" y="297" type="line"/>
      <point x="86" y="297" type="line"/>
    </contour>
    <contour>
      <point x="51" y="117" type="line"/>
      <point x="551" y="117" type="line"/>
      <point x="563" y="177" type="line"/>
      <point x="63" y="177" type="line"/>
    </contour>
  </outline>
</glyph>
<glyph name="brokenbar" format="2">
  <advance width="538"/>
  <unicode hex="00A6"/>
  <outline>
    <contour>
      <point x="167" y="460" type="line"/>
      <point x="27" y="-234" type="line"/>
      <point x="203" y="-234" type="line"/>
      <point x="343" y="460" type="line"/>
    </contour>
    <contour>
      <point x="399" y="1622" type="line"/>
      <point x="261" y="930" type="line"/>
      <point x="437" y="930" type="line"/>
      <point x="575" y="1622" type="line"/>
    </contour>
  </outline>
</glyph>
<glyph name="section" format="2">
  <advance width="484"/>
  <unicode hex="00A7"/>
  <outline>
    <contour>
      <point x="201" y="-82" type="curve" smooth="yes"/>
      <point x="319" y="-82"/>
      <point x="401" y="-19"/>
      <point x="401" y="72" type="curve" smooth="yes"/>
      <point x="401" y="111"/>
      <point x="381" y="140"/>
      <point x="334" y="167" type="curve"/>
      <point x="411" y="180"/>
      <point x="470" y="241"/>
      <point x="470" y="310" type="curve" smooth="yes"/>
      <point x="470" y="460"/>
      <point x="212" y="451"/>
      <point x="212" y="548" type="curve" smooth="yes"/>
      <point x="212" y="587"/>
      <point x="247" y="612"/>
      <point x="303" y="612" type="curve" smooth="yes"/>
      <point x="352" y="612"/>
      <point x="410" y="590"/>
      <point x="464" y="552" type="curve"/>
      <point x="513" y="616" type="line"/>
      <point x="454" y="662"/>
      <point x="378" y="688"/>
      <point x="302" y="688" type="curve" smooth="yes"/>
      <point x="188" y="688"/>
      <point x="110" y="628"/>
      <point x="110" y="540" type="curve" smooth="yes"/>
      <point x="110" y="501"/>
      <point x="134" y="471"/>
      <point x="190" y="439" type="curve"/>
      <point x="96" y="427"/>
      <point x="41" y="376"/>
      <point x="41" y="301" type="curve" smooth="yes"/>
      <point x="41" y="154"/>
      <point x="296" y="161"/>
      <point x="296" y="63" type="curve" smooth="yes"/>
      <point x="296" y="24"/>
      <point x="253" y="-5"/>
      <point x="195" y="-5" type="curve" smooth="yes"/>
      <point x="130" y="-5"/>
      <point x="63" y="26"/>
      <point x="9" y="81" type="curve"/>
      <point x="-40" y="17" type="line"/>
      <point x="17" y="-44"/>
      <point x="109" y="-82"/>
    </contour>
    <contour>
      <point x="275" y="229" type="curve" smooth="yes"/>
      <point x="201" y="229"/>
      <point x="144" y="265"/>
      <point x="144" y="312" type="curve" smooth="yes"/>
      <point x="144" y="353"/>
      <point x="178" y="378"/>
      <point x="234" y="378" type="curve" smooth="yes"/>
      <point x="311" y="378"/>
      <point x="365" y="345"/>
      <point x="365" y="298" type="curve" smooth="yes"/>
      <point x="365" y="255"/>
      <point x="331" y="229"/>
    </contour>
  </outline>
</glyph>
<glyph name="copyright" format="2">
  <advance width="1490"/>
  <unicode hex="00A9"/>
  <outline>
    <contour>
      <point x="779" y="1378" type="curve" smooth="yes"/>
      <point x="397" y="1378"/>
      <point x="101" y="1066"/>
      <point x="101" y="696" type="curve" smooth="yes"/>
      <point x="101" y="326"/>
      <point x="395" y="18"/>
      <point x="775" y="18" type="curve" smooth="yes"/>
      <point x="1157" y="18"/>
      <point x="1455" y="330"/>
      <point x="1455" y="700" type="curve" smooth="yes"/>
      <point x="1455" y="1072"/>
      <point x="1159" y="1378"/>
    </contour>
    <contour>
      <point x="779" y="1264" type="curve" smooth="yes"/>
      <point x="1097" y="1264"/>
      <point x="1341" y="1010"/>
      <point x="1341" y="700" type="curve" smooth="yes"/>
      <point x="1341" y="390"/>
      <point x="1095" y="132"/>
      <point x="775" y="132" type="curve" smooth="yes"/>
      <point x="457" y="132"/>
      <point x="215" y="386"/>
      <point x="215" y="696" type="curve" smooth="yes"/>
      <point x="215" y="1006"/>
      <point x="459" y="1264"/>
    </contour>
    <contour>
      <point x="789" y="1042" type="curve" smooth="yes"/>
      <point x="587" y="1042"/>
      <point x="429" y="892"/>
      <point x="429" y="698" type="curve" smooth="yes"/>
      <point x="429" y="502"/>
      <point x="585" y="350"/>
      <point x="785" y="350" type="curve" smooth="yes"/>
      <point x="883" y="350"/>
      <point x="981" y="394"/>
      <point x="1051" y="462" type="curve"/>
      <point x="981" y="536" type="line"/>
      <point x="929" y="486"/>
      <point x="857" y="456"/>
      <point x="791" y="456" type="curve" smooth="yes"/>
      <point x="655" y="456"/>
      <point x="549" y="564"/>
      <point x="549" y="700" type="curve" smooth="yes"/>
      <point x="549" y="834"/>
      <point x="655" y="940"/>
      <point x="791" y="940" type="curve" smooth="yes"/>
      <point x="861" y="940"/>
      <point x="929" y="908"/>
      <point x="981" y="856" type="curve"/>
      <point x="1051" y="936" type="line"/>
      <point x="983" y="1002"/>
      <point x="885" y="1042"/>
    </contour>
  </outline>
</glyph>
<glyph name="ordfeminine" format="2">
  <advance width="770"/>
  <unicode hex="00AA"/>
  <outline>
    <contour>
      <point x="498" y="1148" type="curve" smooth="yes"/>
      <point x="418" y="1148"/>
      <point x="324" y="1124"/>
      <point x="212" y="1074" type="curve"/>
      <point x="230" y="966" type="line"/>
      <point x="314" y="1008"/>
      <point x="382" y="1028"/>
      <point x="438" y="1028" type="curve" smooth="yes"/>
      <point x="550" y="1028"/>
      <point x="600" y="986"/>
      <point x="584" y="906" type="curve" smooth="yes"/>
      <point x="506" y="512" type="line"/>
      <point x="666" y="512" type="line"/>
      <point x="748" y="924" type="line" smooth="yes"/>
      <point x="776" y="1066"/>
      <point x="684" y="1148"/>
    </contour>
    <contour>
      <point x="598" y="876" type="line"/>
      <point x="384" y="876" type="line"/>
      <point x="216" y="874"/>
      <point x="123" y="818"/>
      <point x="100" y="708" type="curve" smooth="yes"/>
      <point x="77" y="596"/>
      <point x="162" y="506"/>
      <point x="296" y="506" type="curve" smooth="yes"/>
      <point x="416" y="506"/>
      <point x="498" y="554"/>
      <point x="564" y="664" type="curve"/>
      <point x="548" y="714" type="line"/>
      <point x="500" y="644"/>
      <point x="434" y="610"/>
      <point x="352" y="610" type="curve" smooth="yes"/>
      <point x="280" y="610"/>
      <point x="243" y="648"/>
      <point x="254" y="708" type="curve" smooth="yes"/>
      <point x="265" y="764"/>
      <point x="316" y="796"/>
      <point x="400" y="796" type="curve" smooth="yes"/>
      <point x="582" y="796" type="line"/>
    </contour>
  </outline>
</glyph>
<glyph name="logicalnot" format="2">
  <advance width="550"/>
  <unicode hex="00AC"/>
  <outline>
    <contour>
      <point x="52" y="401" type="line"/>
      <point x="37" y="326" type="line"/>
      <point x="488" y="326" type="line"/>
      <point x="503" y="401" type="line"/>
    </contour>
    <contour>
      <point x="503" y="401" type="line"/>
      <point x="418" y="401" type="line"/>
      <point x="367" y="146" type="line"/>
      <point x="452" y="146" type="line"/>
    </contour>
  </outline>
</glyph>
<glyph name="registered" format="2">
  <advance width="736"/>
  <unicode hex="00AE"/>
  <outline>
    <contour>
      <point x="385" y="689" type="curve" smooth="yes"/>
      <point x="194" y="689"/>
      <point x="46" y="533"/>
      <point x="46" y="348" type="curve" smooth="yes"/>
      <point x="46" y="163"/>
      <point x="193" y="9"/>
      <point x="383" y="9" type="curve" smooth="yes"/>
      <point x="574" y="9"/>
      <point x="723" y="165"/>
      <point x="723" y="350" type="curve" smooth="yes"/>
      <point x="723" y="536"/>
      <point x="575" y="689"/>
    </contour>
    <contour>
      <point x="393" y="314" type="line"/>
      <point x="470" y="188" type="line"/>
      <point x="536" y="188" type="line"/>
      <point x="450" y="314" type="line"/>
    </contour>
    <contour>
      <point x="385" y="632" type="curve" smooth="yes"/>
      <point x="544" y="632"/>
      <point x="666" y="505"/>
      <point x="666" y="350" type="curve" smooth="yes"/>
      <point x="666" y="195"/>
      <point x="543" y="66"/>
      <point x="383" y="66" type="curve" smooth="yes"/>
      <point x="224" y="66"/>
      <point x="103" y="193"/>
      <point x="103" y="348" type="curve" smooth="yes"/>
      <point x="103" y="503"/>
      <point x="225" y="632"/>
    </contour>
    <contour>
      <point x="256" y="529" type="line"/>
      <point x="256" y="188" type="line"/>
      <point x="313" y="188" type="line"/>
      <point x="313" y="292" type="line"/>
      <point x="392" y="292" type="line" smooth="yes"/>
      <point x="480" y="292"/>
      <point x="529" y="337"/>
      <point x="529" y="413" type="curve" smooth="yes"/>
      <point x="529" y="487"/>
      <point x="480" y="529"/>
      <point x="392" y="529" type="curve" smooth="yes"/>
    </contour>
    <contour>
      <point x="392" y="483" type="line" smooth="yes"/>
      <point x="444" y="483"/>
      <point x="475" y="458"/>
      <point x="475" y="412" type="curve" smooth="yes"/>
      <point x="475" y="365"/>
      <point x="444" y="338"/>
      <point x="392" y="338" type="curve" smooth="yes"/>
      <point x="313" y="338" type="line"/>
      <point x="313" y="483" type="line"/>
    </contour>
  </outline>
</glyph>
<glyph name="degree" format="2">
  <advance width="330"/>
  <unicode hex="00B0"/>
  <outline>
    <contour>
      <point x="274" y="809" type="curve" smooth="yes"/>
      <point x="211" y="809"/>
      <point x="158" y="757"/>
      <point x="158" y="694" type="curve" smooth="yes"/>
      <point x="158" y="632"/>
      <point x="211" y="580"/>
      <point x="274" y="580" type="curve" smooth="yes"/>
      <point x="338" y="580"/>
      <point x="391" y="632"/>
      <point x="391" y="694" type="curve" smooth="yes"/>
      <point x="391" y="757"/>
      <point x="338" y="809"/>
    </contour>
    <contour>
      <point x="274" y="760" type="curve" smooth="yes"/>
      <point x="311" y="760"/>
      <point x="342" y="730"/>
      <point x="342" y="694" type="curve" smooth="yes"/>
      <point x="342" y="659"/>
      <point x="311" y="629"/>
      <point x="274" y="629" type="curve" smooth="yes"/>
      <point x="237" y="629"/>
      <point x="207" y="659"/>
      <point x="207" y="694" type="curve" smooth="yes"/>
      <point x="207" y="730"/>
      <point x="237" y="760"/>
    </contour>
  </outline>
</glyph>
<glyph name="micro" format="2">
  <advance width="1350"/>
  <unicode hex="00B5"/>
  <outline>
    <contour>
      <point x="531" y="-14" type="curve" smooth="yes"/>
      <point x="683" y="-14"/>
      <point x="799" y="42"/>
      <point x="883" y="154" type="curve"/>
      <point x="853" y="0" type="line"/>
      <point x="1085" y="0" type="line"/>
      <point x="1295" y="1062" type="line"/>
      <point x="1065" y="1062" type="line"/>
      <point x="949" y="486" type="line" smooth="yes"/>
      <point x="911" y="302"/>
      <point x="777" y="180"/>
      <point x="613" y="180" type="curve" smooth="yes"/>
      <point x="443" y="180"/>
      <point x="355" y="292"/>
      <point x="389" y="466" type="curve" smooth="yes"/>
      <point x="507" y="1062" type="line"/>
      <point x="277" y="1062" type="line"/>
      <point x="151" y="438" type="line" smooth="yes"/>
      <point x="95" y="162"/>
      <point x="243" y="-14"/>
    </contour>
    <contour>
      <point x="219" y="-388" type="line"/>
      <point x="507" y="1062" type="line"/>
      <point x="277" y="1062" type="line"/>
      <point x="-11" y="-388" type="line"/>
    </contour>
  </outline>
</glyph>
<glyph name="paragraph" format="2">
  <advance width="1230"/>
  <unicode hex="00B6"/>
  <outline>
    <contour>
      <point x="638" y="1484" type="line" smooth="yes"/>
      <point x="314" y="1484"/>
      <point x="150" y="1292"/>
      <point x="110" y="1094" type="curve" smooth="yes"/>
      <point x="80" y="948"/>
      <point x="112" y="720"/>
      <point x="410" y="720" type="curve" smooth="yes"/>
      <point x="430" y="720"/>
      <point x="450" y="720"/>
      <point x="472" y="722" type="curve"/>
      <point x="284" y="-218" type="line"/>
      <point x="458" y="-218" type="line"/>
      <point x="770" y="1348" type="line"/>
      <point x="1032" y="1348" type="line"/>
      <point x="720" y="-218" type="line"/>
      <point x="896" y="-218" type="line"/>
      <point x="1236" y="1484" type="line"/>
    </contour>
  </outline>
</glyph>
<glyph name="periodcentered" format="2">
  <advance width="452"/>
  <unicode hex="00B7"/>
  <anchor x="491" y="572" name="_center"/>
  <anchor x="383" y="268" name="_top"/>
  <anchor x="501" y="618" name="top"/>
  <outline>
    <contour>
      <point x="251" y="706" type="curve" smooth="yes"/>
      <point x="165" y="706"/>
      <point x="89" y="638"/>
      <point x="89" y="550" type="curve" smooth="yes"/>
      <point x="89" y="486"/>
      <point x="133" y="438"/>
      <point x="199" y="438" type="curve" smooth="yes"/>
      <point x="285" y="438"/>
      <point x="363" y="508"/>
      <point x="363" y="596" type="curve" smooth="yes"/>
      <point x="363" y="660"/>
      <point x="319" y="706"/>
    </contour>
  </outline>
</glyph>
<glyph name="ordmasculine" format="2">
  <advance width="814"/>
  <unicode hex="00BA"/>
  <outline>
    <contour>
      <point x="552" y="1418" type="curve" smooth="yes"/>
      <point x="332" y="1418"/>
      <point x="172" y="1276"/>
      <point x="172" y="1068" type="curve" smooth="yes"/>
      <point x="172" y="896"/>
      <point x="296" y="780"/>
      <point x="490" y="780" type="curve" smooth="yes"/>
      <point x="710" y="780"/>
      <point x="870" y="922"/>
      <point x="870" y="1128" type="curve" smooth="yes"/>
      <point x="870" y="1302"/>
      <point x="746" y="1418"/>
    </contour>
    <contour>
      <point x="540" y="1292" type="curve" smooth="yes"/>
      <point x="640" y="1292"/>
      <point x="704" y="1222"/>
      <point x="704" y="1118" type="curve" smooth="yes"/>
      <point x="704" y="990"/>
      <point x="618" y="902"/>
      <point x="502" y="902" type="curve" smooth="yes"/>
      <point x="402" y="902"/>
      <point x="336" y="972"/>
      <point x="336" y="1076" type="curve" smooth="yes"/>
      <point x="336" y="1204"/>
      <point x="424" y="1292"/>
    </contour>
  </outline>
</glyph>
<glyph name="questiondown" format="2">
  <advance width="1154"/>
  <unicode hex="00BF"/>
  <outline>
    <contour>
      <point x="522" y="609" type="line"/>
      <point x="493" y="462" type="line" smooth="yes"/>
      <point x="467" y="328"/>
      <point x="51" y="335"/>
      <point x="51" y="-14" type="curve" smooth="yes"/>
      <point x="51" y="-278"/>
      <point x="352" y="-354"/>
      <point x="564" y="-354" type="curve" smooth="yes"/>
      <point x="745" y="-354"/>
      <point x="915" y="-296"/>
      <point x="1047" y="-171" type="curve"/>
      <point x="901" y="-37" type="line"/>
      <point x="813" y="-120"/>
      <point x="704" y="-161"/>
      <point x="584" y="-161" type="curve" smooth="yes"/>
      <point x="463" y="-161"/>
      <point x="293" y="-119"/>
      <point x="293" y="31" type="curve" smooth="yes"/>
      <point x="293" y="265"/>
      <point x="680" y="212"/>
      <point x="730" y="462" type="curve" smooth="yes"/>
      <point x="759" y="608" type="line"/>
    </contour>
    <contour>
      <point x="717" y="1076" type="curve" smooth="yes"/>
      <point x="630" y="1076"/>
      <point x="557" y="1006"/>
      <point x="557" y="918" type="curve" smooth="yes"/>
      <point x="557" y="840"/>
      <point x="618" y="792"/>
      <point x="692" y="792" type="curve" smooth="yes"/>
      <point x="780" y="792"/>
      <point x="852" y="862"/>
      <point x="852" y="950" type="curve" smooth="yes"/>
      <point x="852" y="1027"/>
      <point x="791" y="1076"/>
    </contour>
  </outline>
</glyph>
<glyph name="AE" format="2">
  <advance width="2102"/>
  <unicode hex="00C6"/>
  <anchor x="1348" y="0" name="bottom"/>
  <anchor x="1890" y="20" name="ogonek"/>
  <anchor x="1426" y="1400" name="top"/>
  <outline>
    <contour>
      <point x="988" y="1400" type="line"/>
      <point x="-104" y="0" type="line"/>
      <point x="146" y="0" type="line"/>
      <point x="1070" y="1216" type="line"/>
      <point x="1646" y="1216" type="line"/>
      <point x="1682" y="1400" type="line"/>
    </contour>
    <contour>
      <point x="376" y="528" type="line"/>
      <point x="336" y="352" type="line"/>
      <point x="1062" y="352" type="line"/>
      <point x="1104" y="528" type="line"/>
    </contour>
    <contour>
      <point x="1150" y="1400" type="line"/>
      <point x="870" y="0" type="line"/>
      <point x="1892" y="0" type="line"/>
      <point x="1932" y="202" type="line"/>
      <point x="1144" y="202" type="line"/>
      <point x="1224" y="604" type="line"/>
      <point x="1910" y="604" type="line"/>
      <point x="1950" y="804" type="line"/>
      <point x="1264" y="804" type="line"/>
      <point x="1344" y="1198" type="line"/>
      <point x="2108" y="1198" type="line"/>
      <point x="2148" y="1400" type="line"/>
    </contour>
  </outline>
</glyph>
<glyph name="multiply" format="2">
  <advance width="526"/>
  <unicode hex="00D7"/>
  <outline>
    <contour>
      <point x="150" y="502" type="line"/>
      <point x="97" y="448" type="line"/>
      <point x="399" y="147" type="line"/>
      <point x="452" y="200" type="line"/>
    </contour>
    <contour>
      <point x="399" y="502" type="line"/>
      <point x="97" y="200" type="line"/>
      <point x="150" y="147" type="line"/>
      <point x="452" y="448" type="line"/>
    </contour>
  </outline>
</glyph>
<glyph name="Oslash" format="2">
  <advance width="1620"/>
  <unicode hex="00D8"/>
  <anchor x="784" y="0" name="bottom"/>
  <anchor x="846" y="702" name="center"/>
  <anchor x="1184" y="0" name="ogonek"/>
  <anchor x="968" y="1400" name="top"/>
  <anchor x="212" y="1400" name="topleft"/>
  <anchor x="1242" y="1400" name="topright"/>
  <outline>
    <contour>
      <point x="94" y="-110" type="line"/>
      <point x="292" y="-110" type="line"/>
      <point x="1514" y="1510" type="line"/>
      <point x="1314" y="1510" type="line"/>
    </contour>
    <contour>
      <point x="918" y="1414" type="curve" smooth="yes"/>
      <point x="474" y="1414"/>
      <point x="100" y="1074"/>
      <point x="100" y="642" type="curve" smooth="yes"/>
      <point x="100" y="270"/>
      <point x="382" y="-16"/>
      <point x="774" y="-16" type="curve" smooth="yes"/>
      <point x="1218" y="-16"/>
      <point x="1592" y="330"/>
      <point x="1592" y="760" type="curve" smooth="yes"/>
      <point x="1592" y="1132"/>
      <point x="1310" y="1414"/>
    </contour>
    <contour>
      <point x="900" y="1214" type="curve" smooth="yes"/>
      <point x="1154" y="1214"/>
      <point x="1348" y="1010"/>
      <point x="1348" y="744" type="curve" smooth="yes"/>
      <point x="1348" y="436"/>
      <point x="1088" y="184"/>
      <point x="798" y="184" type="curve" smooth="yes"/>
      <point x="540" y="184"/>
      <point x="340" y="392"/>
      <point x="340" y="658" type="curve" smooth="yes"/>
      <point x="340" y="966"/>
      <point x="604" y="1214"/>
    </contour>
  </outline>
</glyph>
<glyph name="Thorn" format="2">
  <advance width="670"/>
  <unicode hex="00DE"/>
  <outline>
    <contour>
      <point x="241" y="600" type="line"/>
      <point x="238" y="508" type="line"/>
      <point x="390" y="508" type="line" smooth="yes"/>
      <point x="493" y="508"/>
      <point x="545" y="468"/>
      <point x="545" y="393" type="curve" smooth="yes"/>
      <point x="545" y="282"/>
      <point x="472" y="216"/>
      <point x="331" y="216" type="curve" smooth="yes"/>
      <point x="181" y="216" type="line"/>
      <point x="162" y="124" type="line"/>
      <point x="317" y="124" type="line" smooth="yes"/>
      <point x="539" y="124"/>
      <point x="668" y="235"/>
      <point x="668" y="411" type="curve" smooth="yes"/>
      <point x="668" y="531"/>
      <point x="579" y="600"/>
      <point x="413" y="600" type="curve" smooth="yes"/>
    </contour>
    <contour>
      <point x="168" y="700" type="line"/>
      <point x="28" y="0" type="line"/>
      <point x="146" y="0" type="line"/>
      <point x="286" y="700" type="line"/>
    </contour>
  </outline>
</glyph>
<glyph name="germandbls" format="2">
  <advance width="1308"/>
  <unicode hex="00DF"/>
  <outline>
    <contour>
      <point x="835" y="1494" type="curve" smooth="yes"/>
      <point x="527" y="1494"/>
      <point x="307" y="1302"/>
      <point x="241" y="974" type="curve" smooth="yes"/>
      <point x="47" y="0" type="line"/>
      <point x="275" y="0" type="line"/>
      <point x="473" y="990" type="line" smooth="yes"/>
      <point x="513" y="1190"/>
      <point x="647" y="1318"/>
      <point x="817" y="1318" type="curve" smooth="yes"/>
      <point x="943" y="1318"/>
      <point x="1023" y="1244"/>
      <point x="1023" y="1124" type="curve" smooth="yes"/>
      <point x="1023" y="948"/>
      <point x="883" y="822"/>
      <point x="683" y="822" type="curve"/>
      <point x="651" y="656" type="line"/>
      <point x="677" y="656" type="line" smooth="yes"/>
      <point x="857" y="656"/>
      <point x="967" y="580"/>
      <point x="967" y="452" type="curve" smooth="yes"/>
      <point x="967" y="290"/>
      <point x="821" y="168"/>
      <point x="629" y="168" type="curve" smooth="yes"/>
      <point x="509" y="168" type="line"/>
      <point x="475" y="0" type="line"/>
      <point x="577" y="0" type="line" smooth="yes"/>
      <point x="935" y="0"/>
      <point x="1195" y="198"/>
      <point x="1195" y="470" type="curve" smooth="yes"/>
      <point x="1195" y="618"/>
      <point x="1099" y="728"/>
      <point x="943" y="762" type="curve"/>
      <point x="1131" y="826"/>
      <point x="1253" y="984"/>
      <point x="1253" y="1160" type="curve" smooth="yes"/>
      <point x="1253" y="1354"/>
      <point x="1079" y="1494"/>
    </contour>
  </outline>
</glyph>
<glyph name="ae" format="2">
  <advance width="1950"/>
  <unicode hex="00E6"/>
  <anchor x="1006" y="1062" name="top"/>
  <outline>
    <contour>
      <point x="400" y="-10" type="curve" smooth="yes"/>
      <point x="612" y="-10"/>
      <point x="772" y="74"/>
      <point x="872" y="248" type="curve"/>
      <point x="942" y="88"/>
      <point x="1098" y="-8"/>
      <point x="1306" y="-8" type="curve" smooth="yes"/>
      <point x="1482" y="-8"/>
      <point x="1638" y="52"/>
      <point x="1758" y="170" type="curve"/>
      <point x="1640" y="296" type="line"/>
      <point x="1556" y="214"/>
      <point x="1444" y="168"/>
      <point x="1326" y="168" type="curve" smooth="yes"/>
      <point x="1150" y="168"/>
      <point x="1008" y="298"/>
      <point x="1022" y="450" type="curve"/>
      <point x="1022" y="470" type="line"/>
      <point x="1862" y="470" type="line"/>
      <point x="1904" y="816"/>
      <point x="1712" y="1070"/>
      <point x="1382" y="1070" type="curve" smooth="yes"/>
      <point x="1230" y="1070"/>
      <point x="1096" y="1018"/>
      <point x="992" y="910" type="curve"/>
      <point x="930" y="1010"/>
      <point x="804" y="1070"/>
      <point x="630" y="1070" type="curve" smooth="yes"/>
      <point x="486" y="1070"/>
      <point x="330" y="1028"/>
      <point x="164" y="942" type="curve"/>
      <point x="214" y="782" type="line"/>
      <point x="340" y="854"/>
      <point x="466" y="894"/>
      <point x="578" y="894" type="curve" smooth="yes"/>
      <point x="740" y="894"/>
      <point x="820" y="820"/>
      <point x="810" y="678" type="curve" smooth="yes"/>
      <point x="806" y="622" type="line"/>
      <point x="478" y="622" type="line" smooth="yes"/>
      <point x="220" y="622"/>
      <point x="66" y="502"/>
      <point x="50" y="318" type="curve" smooth="yes"/>
      <point x="32" y="122"/>
      <point x="174" y="-10"/>
    </contour>
    <contour>
      <point x="452" y="144" type="curve" smooth="yes"/>
      <point x="328" y="144"/>
      <point x="256" y="214"/>
      <point x="266" y="320" type="curve" smooth="yes"/>
      <point x="276" y="428"/>
      <point x="366" y="474"/>
      <point x="514" y="470" type="curve"/>
      <point x="790" y="470" type="line"/>
      <point x="780" y="342" type="line"/>
      <point x="706" y="212"/>
      <point x="596" y="144"/>
    </contour>
    <contour>
      <point x="1036" y="622" type="line"/>
      <point x="1074" y="802"/>
      <point x="1214" y="910"/>
      <point x="1382" y="910" type="curve" smooth="yes"/>
      <point x="1550" y="910"/>
      <point x="1658" y="808"/>
      <point x="1648" y="622" type="curve"/>
    </contour>
  </outline>
</glyph>
<glyph name="ccedilla" format="2">
  <advance width="562"/>
  <unicode hex="00E7"/>
  <anchor x="180" y="-222" name="bottom"/>
  <anchor x="329" y="531" name="top"/>
  <outline>
    <contour>
      <point x="151" y="-91" type="line"/>
      <point x="181" y="-91" type="line" smooth="yes"/>
      <point x="210" y="-91"/>
      <point x="226" y="-101"/>
      <point x="226" y="-113" type="curve" smooth="yes"/>
      <point x="226" y="-126"/>
      <point x="208" y="-139"/>
      <point x="181" y="-139" type="curve" smooth="yes"/>
      <point x="163" y="-139"/>
      <point x="142" y="-134"/>
      <point x="126" y="-127" type="curve"/>
      <point x="88" y="-197" type="line"/>
      <point x="116" y="-210"/>
      <point x="149" y="-218"/>
      <point x="184" y="-218" type="curve" smooth="yes"/>
      <point x="256" y="-218"/>
      <point x="320" y="-185"/>
      <point x="320" y="-117" type="curve" smooth="yes"/>
      <point x="320" y="-87"/>
      <point x="302" y="-59"/>
      <point x="254" y="-50" type="curve"/>
      <point x="281" y="-4" type="line"/>
      <point x="376" y="-1"/>
      <point x="451" y="34"/>
      <point x="503" y="91" type="curve"/>
      <point x="445" y="154" type="line"/>
      <point x="406" y="111"/>
      <point x="349" y="89"/>
      <point x="282" y="89" type="curve" smooth="yes"/>
      <point x="197" y="89"/>
      <point x="140" y="153"/>
      <point x="140" y="246" type="curve" smooth="yes"/>
      <point x="140" y="360"/>
      <point x="217" y="440"/>
      <point x="317" y="440" type="curve" smooth="yes"/>
      <point x="381" y="440"/>
      <point x="430" y="417"/>
      <point x="463" y="379" type="curve"/>
      <point x="533" y="453" type="line"/>
      <point x="489" y="505"/>
      <point x="417" y="535"/>
      <point x="322" y="535" type="curve" smooth="yes"/>
      <point x="152" y="535"/>
      <point x="25" y="412"/>
      <point x="25" y="238" type="curve" smooth="yes"/>
      <point x="25" y="117"/>
      <point x="92" y="30"/>
      <point x="200" y="4" type="curve"/>
    </contour>
  </outline>
</glyph>
<glyph name="eth" format="2">
  <advance width="571"/>
  <unicode hex="00F0"/>
  <outline>
    <contour>
      <point x="171" y="701" type="line"/>
      <point x="316" y="619"/>
      <point x="423" y="483"/>
      <point x="443" y="354" type="curve"/>
      <point x="415" y="408"/>
      <point x="343" y="444"/>
      <point x="263" y="444" type="curve" smooth="yes"/>
      <point x="118" y="444"/>
      <point x="18" y="345"/>
      <point x="18" y="200" type="curve" smooth="yes"/>
      <point x="18" y="75"/>
      <point x="109" y="-4"/>
      <point x="251" y="-4" type="curve" smooth="yes"/>
      <point x="429" y="-4"/>
      <point x="548" y="119"/>
      <point x="548" y="305" type="curve" smooth="yes"/>
      <point x="548" y="480"/>
      <point x="435" y="649"/>
      <point x="251" y="748" type="curve"/>
    </contour>
    <contour>
      <point x="288" y="364" type="curve" smooth="yes"/>
      <point x="370" y="364"/>
      <point x="420" y="319"/>
      <point x="420" y="247" type="curve" smooth="yes"/>
      <point x="420" y="156"/>
      <point x="354" y="92"/>
      <point x="258" y="92" type="curve" smooth="yes"/>
      <point x="178" y="92"/>
      <point x="128" y="137"/>
      <point x="128" y="208" type="curve" smooth="yes"/>
      <point x="128" y="298"/>
      <point x="196" y="364"/>
    </contour>
    <contour>
      <point x="148" y="488" type="line"/>
      <point x="559" y="660" type="line"/>
      <point x="535" y="716" type="line"/>
      <point x="125" y="544" type="line"/>
    </contour>
  </outline>
</glyph>
<glyph name="divide" format="2">
  <advance width="476"/>
  <unicode hex="00F7"/>
  <outline>
    <component base="dotaccent" xScale="0.9077" yScale="0.9077" xOffset="69" yOffset="-117"/>
    <component base="dotaccent" xScale="0.9077" yScale="0.9077" xOffset="-1" yOffset="-472"/>
    <contour>
      <point x="43" y="362" type="line"/>
      <point x="28" y="286" type="line"/>
      <point x="456" y="286" type="line"/>
      <point x="471" y="362" type="line"/>
    </contour>
  </outline>
</glyph>
<glyph name="oslash" format="2">
  <advance width="609"/>
  <unicode hex="00F8"/>
  <anchor x="342" y="531" name="top"/>
  <outline>
    <contour>
      <point x="331" y="535" type="curve" smooth="yes"/>
      <point x="155" y="535"/>
      <point x="25" y="413"/>
      <point x="25" y="240" type="curve" smooth="yes"/>
      <point x="25" y="95"/>
      <point x="124" y="-4"/>
      <point x="277" y="-4" type="curve" smooth="yes"/>
      <point x="453" y="-4"/>
      <point x="584" y="118"/>
      <point x="584" y="292" type="curve" smooth="yes"/>
      <point x="584" y="436"/>
      <point x="484" y="535"/>
    </contour>
    <contour>
      <point x="323" y="449" type="curve" smooth="yes"/>
      <point x="414" y="449"/>
      <point x="474" y="381"/>
      <point x="474" y="285" type="curve" smooth="yes"/>
      <point x="474" y="164"/>
      <point x="392" y="80"/>
      <point x="285" y="80" type="curve" smooth="yes"/>
      <point x="194" y="80"/>
      <point x="134" y="146"/>
      <point x="134" y="244" type="curve" smooth="yes"/>
      <point x="134" y="364"/>
      <point x="216" y="449"/>
    </contour>
    <contour>
      <point x="8" y="-96" type="line"/>
      <point x="90" y="-96" type="line"/>
      <point x="596" y="627" type="line"/>
      <point x="514" y="627" type="line"/>
    </contour>
  </outline>
</glyph>
<glyph name="thorn" format="2">
  <advance width="663"/>
  <unicode hex="00FE"/>
  <anchor x="137" y="0" name="bottom"/>
  <anchor x="137" y="742" name="top"/>
  <anchor x="255" y="531" name="topright"/>
  <outline>
    <contour>
      <point x="418" y="536" type="curve" smooth="yes"/>
      <point x="343" y="536"/>
      <point x="278" y="505"/>
      <point x="230" y="453" type="curve"/>
      <point x="288" y="742" type="line"/>
      <point x="174" y="742" type="line"/>
      <point x="-13" y="-194" type="line"/>
      <point x="101" y="-194" type="line"/>
      <point x="163" y="115" type="line"/>
      <point x="191" y="37"/>
      <point x="255" y="-5"/>
      <point x="349" y="-5" type="curve" smooth="yes"/>
      <point x="514" y="-5"/>
      <point x="639" y="126"/>
      <point x="639" y="297" type="curve" smooth="yes"/>
      <point x="639" y="440"/>
      <point x="550" y="536"/>
    </contour>
    <contour>
      <point x="379" y="447" type="curve" smooth="yes"/>
      <point x="465" y="447"/>
      <point x="523" y="385"/>
      <point x="523" y="292" type="curve" smooth="yes"/>
      <point x="523" y="181"/>
      <point x="439" y="90"/>
      <point x="335" y="90" type="curve" smooth="yes"/>
      <point x="249" y="90"/>
      <point x="193" y="152"/>
      <point x="193" y="245" type="curve" smooth="yes"/>
      <point x="193" y="357"/>
      <point x="275" y="447"/>
    </contour>
  </outline>
</glyph>
<glyph name="Dcroat" format="2">
  <advance width="755"/>
  <unicode hex="0110"/>
  <outline>
    <component base="D"/>
    <contour>
      <point x="32" y="383" type="line"/>
      <point x="19" y="317" type="line"/>
      <point x="386" y="317" type="line"/>
      <point x="399" y="383" type="line"/>
    </contour>
  </outline>
</glyph>
<glyph name="dcroat" format="2">
  <advance width="651"/>
  <unicode hex="0111"/>
  <outline>
    <contour>
      <point x="331" y="590" type="line"/>
      <point x="720" y="590" type="line"/>
      <point x="733" y="656" type="line"/>
      <point x="344" y="656" type="line"/>
    </contour>
    <contour>
      <point x="247" y="-5" type="curve" smooth="yes"/>
      <point x="322" y="-5"/>
      <point x="386" y="25"/>
      <point x="434" y="74" type="curve"/>
      <point x="419" y="0" type="line"/>
      <point x="533" y="0" type="line"/>
      <point x="680" y="742" type="line"/>
      <point x="566" y="742" type="line"/>
      <point x="499" y="403" type="line"/>
      <point x="470" y="477"/>
      <point x="406" y="516"/>
      <point x="312" y="516" type="curve" smooth="yes"/>
      <point x="148" y="516"/>
      <point x="24" y="391"/>
      <point x="24" y="227" type="curve" smooth="yes"/>
      <point x="24" y="88"/>
      <point x="114" y="-5"/>
    </contour>
    <contour>
      <point x="285" y="84" type="curve" smooth="yes"/>
      <point x="199" y="84"/>
      <point x="140" y="143"/>
      <point x="140" y="231" type="curve" smooth="yes"/>
      <point x="140" y="336"/>
      <point x="223" y="421"/>
      <point x="327" y="421" type="curve" smooth="yes"/>
      <point x="413" y="421"/>
      <point x="470" y="362"/>
      <point x="470" y="274" type="curve" smooth="yes"/>
      <point x="470" y="169"/>
      <point x="389" y="84"/>
    </contour>
  </outline>
</glyph>
<glyph name="Hbar" format="2">
  <advance width="1582"/>
  <unicode hex="0126"/>
  <anchor x="686" y="0" name="bottom"/>
  <anchor x="826" y="700" name="center"/>
  <anchor x="966" y="1400" name="top"/>
  <anchor x="214" y="1400" name="topleft"/>
  <outline>
    <contour>
      <point x="132" y="1180" type="line"/>
      <point x="106" y="1048" type="line"/>
      <point x="1680" y="1048" type="line"/>
      <point x="1706" y="1180" type="line"/>
    </contour>
    <contour>
      <point x="594" y="1400" type="line"/>
      <point x="358" y="1400" type="line"/>
      <point x="78" y="0" type="line"/>
      <point x="314" y="0" type="line"/>
    </contour>
    <contour>
      <point x="1056" y="0" type="line"/>
      <point x="1292" y="0" type="line"/>
      <point x="1572" y="1400" type="line"/>
      <point x="1336" y="1400" type="line"/>
    </contour>
    <contour>
      <point x="398" y="586" type="line"/>
      <point x="1204" y="586" type="line"/>
      <point x="1244" y="786" type="line"/>
      <point x="438" y="786" type="line"/>
    </contour>
  </outline>
</glyph>
<glyph name="hbar" format="2">
  <advance width="647"/>
  <unicode hex="0127"/>
  <outline>
    <contour>
      <point x="73" y="590" type="line"/>
      <point x="462" y="590" type="line"/>
      <point x="475" y="656" type="line"/>
      <point x="86" y="656" type="line"/>
    </contour>
    <contour>
      <point x="406" y="517" type="curve" smooth="yes"/>
      <point x="330" y="517"/>
      <point x="272" y="490"/>
      <point x="230" y="437" type="curve"/>
      <point x="290" y="742" type="line"/>
      <point x="174" y="742" type="line"/>
      <point x="28" y="0" type="line"/>
      <point x="143" y="0" type="line"/>
      <point x="199" y="275" type="line" smooth="yes"/>
      <point x="217" y="362"/>
      <point x="283" y="420"/>
      <point x="365" y="420" type="curve" smooth="yes"/>
      <point x="450" y="420"/>
      <point x="495" y="368"/>
      <point x="479" y="286" type="curve" smooth="yes"/>
      <point x="422" y="0" type="line"/>
      <point x="537" y="0" type="line"/>
      <point x="598" y="300" type="line" smooth="yes"/>
      <point x="625" y="432"/>
      <point x="550" y="517"/>
    </contour>
  </outline>
</glyph>
<glyph name="dotlessi" format="2">
  <advance width="568"/>
  <unicode hex="0131"/>
  <anchor x="178" y="0" name="bottom"/>
  <anchor x="292" y="0" name="ogonek"/>
  <anchor x="390" y="1062" name="top"/>
  <outline>
    <contour>
      <point x="276" y="1062" type="line"/>
      <point x="64" y="0" type="line"/>
      <point x="292" y="0" type="line"/>
      <point x="504" y="1062" type="line"/>
    </contour>
  </outline>
</glyph>
<glyph name="idotless" format="2">
  <advance width="262"/>
  <unicode hex="0131"/>
  <anchor x="78" y="0" name="bottom"/>
  <anchor x="135" y="0" name="ogonek"/>
  <anchor x="184" y="531" name="top"/>
  <outline>
    <contour>
      <point x="127" y="531" type="line"/>
      <point x="21" y="0" type="line"/>
      <point x="135" y="0" type="line"/>
      <point x="241" y="531" type="line"/>
    </contour>
  </outline>
</glyph>
<glyph name="kgreenlandic" format="2">
  <advance width="1180"/>
  <unicode hex="0138"/>
  <anchor x="558" y="0" name="bottom"/>
  <anchor x="470" y="20" name="ogonek"/>
  <anchor x="256" y="1062" name="top"/>
  <outline>
    <contour>
      <point x="258" y="1062" type="line"/>
      <point x="46" y="0" type="line"/>
      <point x="276" y="0" type="line"/>
      <point x="488" y="1062" type="line"/>
    </contour>
    <contour>
      <point x="956" y="1062" type="line"/>
      <point x="368" y="556" type="line"/>
      <point x="312" y="256" type="line"/>
      <point x="1256" y="1062" type="line"/>
    </contour>
    <contour>
      <point x="542" y="546" type="line"/>
      <point x="778" y="0" type="line"/>
      <point x="1056" y="0" type="line"/>
      <point x="726" y="684" type="line"/>
    </contour>
  </outline>
</glyph>
<glyph name="Lslash" format="2">
  <advance width="539"/>
  <unicode hex="0141"/>
  <anchor x="273" y="0" name="bottom"/>
  <anchor x="434" y="390" name="center"/>
  <anchor x="256" y="700" name="top"/>
  <anchor x="421" y="699" name="topright"/>
  <outline>
    <contour>
      <point x="19" y="252" type="line"/>
      <point x="380" y="429" type="line"/>
      <point x="395" y="506" type="line"/>
      <point x="34" y="328" type="line"/>
    </contour>
    <contour>
      <point x="195" y="700" type="line"/>
      <point x="55" y="0" type="line"/>
      <point x="476" y="0" type="line"/>
      <point x="496" y="101" type="line"/>
      <point x="141" y="101" type="line"/>
      <point x="183" y="50" type="line"/>
      <point x="313" y="700" type="line"/>
    </contour>
  </outline>
</glyph>
<glyph name="lslash" format="2">
  <advance width="776"/>
  <unicode hex="0142"/>
  <outline>
    <component base="l"/>
    <contour>
      <point x="62" y="504" type="line"/>
      <point x="782" y="858" type="line"/>
      <point x="812" y="1012" type="line"/>
      <point x="92" y="656" type="line"/>
    </contour>
  </outline>
</glyph>
<glyph name="Eng" format="2">
  <advance width="1584"/>
  <unicode hex="014A"/>
  <anchor x="686" y="0" name="bottom"/>
  <anchor x="966" y="1400" name="top"/>
  <outline>
    <contour>
      <point x="1062" y="40" type="line"/>
      <point x="1032" y="-108"/>
      <point x="936" y="-188"/>
      <point x="814" y="-188" type="curve" smooth="yes"/>
      <point x="730" y="-188"/>
      <point x="634" y="-150"/>
      <point x="562" y="-74" type="curve"/>
      <point x="414" y="-246" type="line"/>
      <point x="492" y="-348"/>
      <point x="614" y="-406"/>
      <point x="774" y="-406" type="curve" smooth="yes"/>
      <point x="1040" y="-406"/>
      <point x="1242" y="-246"/>
      <point x="1292" y="2" type="curve"/>
    </contour>
    <contour>
      <point x="1340" y="1400" type="line"/>
      <point x="1134" y="374" type="line"/>
      <point x="590" y="1400" type="line"/>
      <point x="358" y="1400" type="line"/>
      <point x="78" y="0" type="line"/>
      <point x="314" y="0" type="line"/>
      <point x="518" y="1024" type="line"/>
      <point x="1060" y="0" type="line"/>
      <point x="1292" y="0" type="line"/>
      <point x="1572" y="1400" type="line"/>
    </contour>
  </outline>
</glyph>
<glyph name="eng" format="2">
  <advance width="641"/>
  <unicode hex="014B"/>
  <anchor x="272" y="0" name="bottom"/>
  <anchor x="388" y="531" name="top"/>
  <outline>
    <contour>
      <point x="439" y="535" type="curve" smooth="yes"/>
      <point x="349" y="535"/>
      <point x="275" y="503"/>
      <point x="222" y="430" type="curve"/>
      <point x="242" y="531" type="line"/>
      <point x="127" y="531" type="line"/>
      <point x="21" y="0" type="line"/>
      <point x="136" y="0" type="line"/>
      <point x="193" y="283" type="line" smooth="yes"/>
      <point x="210" y="371"/>
      <point x="285" y="433"/>
      <point x="374" y="433" type="curve" smooth="yes"/>
      <point x="454" y="433"/>
      <point x="492" y="383"/>
      <point x="475" y="300" type="curve" smooth="yes"/>
      <point x="409" y="-29" type="line" smooth="yes"/>
      <point x="399" y="-81"/>
      <point x="366" y="-103"/>
      <point x="331" y="-103" type="curve" smooth="yes"/>
      <point x="309" y="-103"/>
      <point x="286" y="-94"/>
      <point x="268" y="-78" type="curve"/>
      <point x="213" y="-163" type="line"/>
      <point x="240" y="-186"/>
      <point x="277" y="-199"/>
      <point x="317" y="-199" type="curve" smooth="yes"/>
      <point x="402" y="-199"/>
      <point x="502" y="-142"/>
      <point x="527" y="-15" type="curve" smooth="yes"/>
      <point x="596" y="330" type="line" smooth="yes"/>
      <point x="621" y="457"/>
      <point x="563" y="535"/>
    </contour>
  </outline>
</glyph>
<glyph name="OE" format="2">
  <advance width="2194"/>
  <unicode hex="0152"/>
  <anchor x="1445" y="0" name="bottom"/>
  <anchor x="1985" y="20" name="ogonek"/>
  <anchor x="1281" y="1400" name="top"/>
  <outline>
    <contour>
      <point x="917" y="1400" type="line" smooth="yes"/>
      <point x="473" y="1400"/>
      <point x="101" y="1070"/>
      <point x="101" y="656" type="curve" smooth="yes"/>
      <point x="101" y="284"/>
      <point x="389" y="0"/>
      <point x="777" y="0" type="curve" smooth="yes"/>
      <point x="1035" y="0" type="line"/>
      <point x="1077" y="200" type="line"/>
      <point x="799" y="200" type="line" smooth="yes"/>
      <point x="535" y="200"/>
      <point x="343" y="402"/>
      <point x="343" y="666" type="curve" smooth="yes"/>
      <point x="343" y="964"/>
      <point x="599" y="1198"/>
      <point x="899" y="1198" type="curve" smooth="yes"/>
      <point x="1259" y="1198" type="line"/>
      <point x="1301" y="1400" type="line"/>
    </contour>
    <contour>
      <point x="1289" y="604" type="line"/>
      <point x="2005" y="604" type="line"/>
      <point x="2045" y="804" type="line"/>
      <point x="1329" y="804" type="line"/>
    </contour>
    <contour>
      <point x="1461" y="1300" type="line"/>
      <point x="1337" y="1198" type="line"/>
      <point x="2205" y="1198" type="line"/>
      <point x="2245" y="1400" type="line"/>
      <point x="1245" y="1400" type="line"/>
      <point x="965" y="0" type="line"/>
      <point x="1989" y="0" type="line"/>
      <point x="2029" y="202" type="line"/>
      <point x="1137" y="202" type="line"/>
      <point x="1221" y="100" type="line"/>
    </contour>
  </outline>
</glyph>
<glyph name="oe" format="2">
  <advance width="1023"/>
  <unicode hex="0153"/>
  <outline>
    <contour>
      <point x="331" y="535" type="curve" smooth="yes"/>
      <point x="155" y="535"/>
      <point x="25" y="413"/>
      <point x="25" y="240" type="curve" smooth="yes"/>
      <point x="25" y="95"/>
      <point x="124" y="-4"/>
      <point x="278" y="-4" type="curve" smooth="yes"/>
      <point x="447" y="-4"/>
      <point x="561" y="120"/>
      <point x="561" y="295" type="curve" smooth="yes"/>
      <point x="561" y="438"/>
      <point x="475" y="535"/>
    </contour>
    <contour>
      <point x="322" y="442" type="curve" smooth="yes"/>
      <point x="410" y="442"/>
      <point x="468" y="377"/>
      <point x="468" y="284" type="curve" smooth="yes"/>
      <point x="468" y="168"/>
      <point x="389" y="87"/>
      <point x="287" y="87" type="curve" smooth="yes"/>
      <point x="199" y="87"/>
      <point x="141" y="151"/>
      <point x="141" y="245" type="curve" smooth="yes"/>
      <point x="141" y="360"/>
      <point x="219" y="442"/>
    </contour>
    <contour>
      <point x="554" y="242" type="line"/>
      <point x="996" y="242" type="line"/>
      <point x="1019" y="416"/>
      <point x="926" y="535"/>
      <point x="760" y="535" type="curve" smooth="yes"/>
      <point x="596" y="535"/>
      <point x="484" y="410"/>
      <point x="484" y="234" type="curve" smooth="yes"/>
      <point x="484" y="92"/>
      <point x="566" y="-4"/>
      <point x="709" y="-4" type="curve" smooth="yes"/>
      <point x="802" y="-4"/>
      <point x="882" y="29"/>
      <point x="940" y="86" type="curve"/>
      <point x="885" y="147" type="line"/>
      <point x="841" y="106"/>
      <point x="786" y="84"/>
      <point x="727" y="84" type="curve" smooth="yes"/>
      <point x="634" y="84"/>
      <point x="573" y="149"/>
      <point x="573" y="250" type="curve" smooth="yes"/>
      <point x="573" y="367"/>
      <point x="649" y="455"/>
      <point x="753" y="455" type="curve" smooth="yes"/>
      <point x="840" y="455"/>
      <point x="893" y="391"/>
      <point x="887" y="301" type="curve"/>
      <point x="560" y="301" type="line"/>
    </contour>
  </outline>
</glyph>
<glyph name="Scedilla" format="2">
  <advance width="592"/>
  <unicode hex="015E"/>
  <anchor x="187" y="-217" name="bottom"/>
  <anchor x="336" y="536" name="top"/>
  <outline>
    <contour>
      <point x="621" y="611" type="line"/>
      <point x="565" y="659"/>
      <point x="482" y="707"/>
      <point x="392" y="707" type="curve" smooth="yes"/>
      <point x="240" y="707"/>
      <point x="123" y="656"/>
      <point x="100" y="539" type="curve" smooth="yes"/>
      <point x="50" y="286"/>
      <point x="444" y="339"/>
      <point x="412" y="176" type="curve" smooth="yes"/>
      <point x="401" y="119"/>
      <point x="345" y="97"/>
      <point x="264" y="97" type="curve" smooth="yes"/>
      <point x="189" y="97"/>
      <point x="107" y="150"/>
      <point x="48" y="224" type="curve"/>
      <point x="-22" y="133" type="line"/>
      <point x="29" y="69"/>
      <point x="108" y="9"/>
      <point x="200" y="-5" type="curve"/>
      <point x="158" y="-86" type="line"/>
      <point x="188" y="-86" type="line" smooth="yes"/>
      <point x="217" y="-86"/>
      <point x="233" y="-96"/>
      <point x="233" y="-108" type="curve" smooth="yes"/>
      <point x="233" y="-121"/>
      <point x="215" y="-134"/>
      <point x="188" y="-134" type="curve" smooth="yes"/>
      <point x="170" y="-134"/>
      <point x="149" y="-129"/>
      <point x="133" y="-122" type="curve"/>
      <point x="95" y="-192" type="line"/>
      <point x="123" y="-205"/>
      <point x="156" y="-213"/>
      <point x="191" y="-213" type="curve" smooth="yes"/>
      <point x="263" y="-213"/>
      <point x="327" y="-180"/>
      <point x="327" y="-112" type="curve" smooth="yes"/>
      <point x="327" y="-82"/>
      <point x="309" y="-54"/>
      <point x="261" y="-45" type="curve"/>
      <point x="283" y="-7" type="line"/>
      <point x="416" y="2"/>
      <point x="521" y="57"/>
      <point x="544" y="168" type="curve" smooth="yes"/>
      <point x="594" y="421"/>
      <point x="202" y="375"/>
      <point x="233" y="535" type="curve" smooth="yes"/>
      <point x="243" y="584"/>
      <point x="293" y="601"/>
      <point x="362" y="601" type="curve" smooth="yes"/>
      <point x="414" y="601"/>
      <point x="487" y="571"/>
      <point x="553" y="516" type="curve"/>
    </contour>
  </outline>
</glyph>
<glyph name="scedilla" format="2">
  <advance width="459"/>
  <unicode hex="015F"/>
  <anchor x="119" y="-222" name="bottom"/>
  <anchor x="268" y="531" name="top"/>
  <outline>
    <contour>
      <point x="90" y="-91" type="line"/>
      <point x="120" y="-91" type="line" smooth="yes"/>
      <point x="149" y="-91"/>
      <point x="165" y="-101"/>
      <point x="165" y="-113" type="curve" smooth="yes"/>
      <point x="165" y="-126"/>
      <point x="147" y="-139"/>
      <point x="120" y="-139" type="curve" smooth="yes"/>
      <point x="102" y="-139"/>
      <point x="81" y="-134"/>
      <point x="65" y="-127" type="curve"/>
      <point x="27" y="-197" type="line"/>
      <point x="55" y="-210"/>
      <point x="88" y="-218"/>
      <point x="123" y="-218" type="curve" smooth="yes"/>
      <point x="195" y="-218"/>
      <point x="259" y="-185"/>
      <point x="259" y="-117" type="curve" smooth="yes"/>
      <point x="259" y="-87"/>
      <point x="241" y="-59"/>
      <point x="193" y="-50" type="curve"/>
      <point x="219" y="-5" type="line"/>
      <point x="334" y="-3"/>
      <point x="414" y="64"/>
      <point x="414" y="158" type="curve" smooth="yes"/>
      <point x="414" y="321"/>
      <point x="173" y="299"/>
      <point x="173" y="388" type="curve" smooth="yes"/>
      <point x="173" y="422"/>
      <point x="207" y="448"/>
      <point x="252" y="448" type="curve" smooth="yes"/>
      <point x="298" y="448"/>
      <point x="362" y="423"/>
      <point x="410" y="387" type="curve"/>
      <point x="466" y="462" type="line"/>
      <point x="417" y="506"/>
      <point x="332" y="536"/>
      <point x="254" y="536" type="curve" smooth="yes"/>
      <point x="139" y="536"/>
      <point x="61" y="472"/>
      <point x="61" y="378" type="curve" smooth="yes"/>
      <point x="61" y="215"/>
      <point x="298" y="246"/>
      <point x="298" y="148" type="curve" smooth="yes"/>
      <point x="298" y="109"/>
      <point x="262" y="82"/>
      <point x="210" y="82" type="curve" smooth="yes"/>
      <point x="148" y="82"/>
      <point x="68" y="119"/>
      <point x="27" y="167" type="curve"/>
      <point x="-24" y="94" type="line"/>
      <point x="10" y="52"/>
      <point x="72" y="18"/>
      <point x="139" y="3" type="curve"/>
    </contour>
  </outline>
</glyph>
<glyph name="tcedilla" format="2">
  <advance width="387"/>
  <unicode hex="0163"/>
  <anchor x="124" y="-222" name="bottom"/>
  <anchor x="185" y="300" name="center"/>
  <anchor x="273" y="531" name="top"/>
  <anchor x="377" y="742" name="topright"/>
  <outline>
    <contour>
      <point x="173" y="657" type="line"/>
      <point x="148" y="531" type="line"/>
      <point x="74" y="531" type="line"/>
      <point x="58" y="449" type="line"/>
      <point x="131" y="449" type="line"/>
      <point x="72" y="153" type="line" smooth="yes"/>
      <point x="56" y="69"/>
      <point x="89" y="21"/>
      <point x="143" y="3" type="curve"/>
      <point x="95" y="-91" type="line"/>
      <point x="125" y="-91" type="line" smooth="yes"/>
      <point x="154" y="-91"/>
      <point x="170" y="-101"/>
      <point x="170" y="-113" type="curve" smooth="yes"/>
      <point x="170" y="-126"/>
      <point x="152" y="-139"/>
      <point x="125" y="-139" type="curve" smooth="yes"/>
      <point x="107" y="-139"/>
      <point x="86" y="-134"/>
      <point x="70" y="-127" type="curve"/>
      <point x="32" y="-197" type="line"/>
      <point x="60" y="-210"/>
      <point x="93" y="-218"/>
      <point x="128" y="-218" type="curve" smooth="yes"/>
      <point x="200" y="-218"/>
      <point x="264" y="-185"/>
      <point x="264" y="-117" type="curve" smooth="yes"/>
      <point x="264" y="-87"/>
      <point x="246" y="-59"/>
      <point x="198" y="-50" type="curve"/>
      <point x="225" y="-3" type="line"/>
      <point x="258" y="1"/>
      <point x="294" y="13"/>
      <point x="331" y="33" type="curve"/>
      <point x="313" y="120" type="line"/>
      <point x="280" y="104"/>
      <point x="253" y="94"/>
      <point x="225" y="94" type="curve" smooth="yes"/>
      <point x="193" y="94"/>
      <point x="177" y="106"/>
      <point x="188" y="163" type="curve" smooth="yes"/>
      <point x="245" y="449" type="line"/>
      <point x="404" y="449" type="line"/>
      <point x="420" y="531" type="line"/>
      <point x="262" y="531" type="line"/>
      <point x="287" y="657" type="line"/>
    </contour>
  </outline>
</glyph>
<glyph name="uni0163" format="2">
  <advance width="814"/>
  <unicode hex="0163"/>
  <anchor x="390" y="600" name="center"/>
  <anchor x="468" y="1312" name="top"/>
  <anchor x="774" y="1484" name="topright"/>
  <anchor x="364" y="-408" name="bottom"/>
  <outline>
    <contour>
      <point x="366" y="1314" type="line"/>
      <point x="316" y="1062" type="line"/>
      <point x="168" y="1062" type="line"/>
      <point x="136" y="898" type="line"/>
      <point x="283" y="898" type="line"/>
      <point x="164" y="306" type="line" smooth="yes"/>
      <point x="132" y="141"/>
      <point x="195" y="45"/>
      <point x="300" y="8" type="curve"/>
      <point x="221" y="-146" type="line"/>
      <point x="281" y="-146" type="line" smooth="yes"/>
      <point x="339" y="-146"/>
      <point x="371" y="-166"/>
      <point x="371" y="-190" type="curve" smooth="yes"/>
      <point x="371" y="-216"/>
      <point x="335" y="-242"/>
      <point x="281" y="-242" type="curve" smooth="yes"/>
      <point x="245" y="-242"/>
      <point x="203" y="-232"/>
      <point x="171" y="-218" type="curve"/>
      <point x="95" y="-358" type="line"/>
      <point x="151" y="-384"/>
      <point x="217" y="-400"/>
      <point x="287" y="-400" type="curve" smooth="yes"/>
      <point x="431" y="-400"/>
      <point x="559" y="-334"/>
      <point x="559" y="-198" type="curve" smooth="yes"/>
      <point x="559" y="-138"/>
      <point x="523" y="-82"/>
      <point x="427" y="-64" type="curve"/>
      <point x="460" y="-8" type="line"/>
      <point x="530" y="0"/>
      <point x="605" y="23"/>
      <point x="682" y="66" type="curve"/>
      <point x="646" y="240" type="line"/>
      <point x="580" y="208"/>
      <point x="526" y="188"/>
      <point x="470" y="188" type="curve" smooth="yes"/>
      <point x="406" y="188"/>
      <point x="374" y="212"/>
      <point x="396" y="326" type="curve" smooth="yes"/>
      <point x="511" y="898" type="line"/>
      <point x="828" y="898" type="line"/>
      <point x="860" y="1062" type="line"/>
      <point x="544" y="1062" type="line"/>
      <point x="594" y="1314" type="line"/>
    </contour>
  </outline>
</glyph>
<glyph name="tbar" format="2">
  <advance width="814"/>
  <unicode hex="0167"/>
  <anchor x="382" y="0" name="bottom"/>
  <outline>
    <contour>
      <point x="368" y="1314" type="line"/>
      <point x="164" y="296" type="line" smooth="yes"/>
      <point x="120" y="78"/>
      <point x="242" y="-10"/>
      <point x="402" y="-10" type="curve" smooth="yes"/>
      <point x="492" y="-10"/>
      <point x="584" y="18"/>
      <point x="680" y="70" type="curve"/>
      <point x="654" y="236" type="line"/>
      <point x="586" y="204"/>
      <point x="532" y="188"/>
      <point x="484" y="188" type="curve" smooth="yes"/>
      <point x="412" y="188"/>
      <point x="378" y="222"/>
      <point x="400" y="336" type="curve" smooth="yes"/>
      <point x="596" y="1314" type="line"/>
    </contour>
    <contour>
      <point x="164" y="1062" type="line"/>
      <point x="132" y="898" type="line"/>
      <point x="824" y="898" type="line"/>
      <point x="856" y="1062" type="line"/>
    </contour>
    <contour>
      <point x="88" y="664" type="line"/>
      <point x="56" y="500" type="line"/>
      <point x="748" y="500" type="line"/>
      <point x="780" y="664" type="line"/>
    </contour>
  </outline>
</glyph>
<glyph name="Schwa" format="2">
  <advance width="767"/>
  <unicode hex="018F"/>
  <outline>
    <contour>
      <point x="437" y="707" type="curve" smooth="yes"/>
      <point x="625" y="707"/>
      <point x="761" y="568"/>
      <point x="761" y="383" type="curve" smooth="yes"/>
      <point x="761" y="166"/>
      <point x="583" y="-8"/>
      <point x="373" y="-8" type="curve" smooth="yes"/>
      <point x="174" y="-8"/>
      <point x="45" y="132"/>
      <point x="45" y="335" type="curve" smooth="yes"/>
      <point x="45" y="350"/>
      <point x="46" y="365"/>
      <point x="47" y="380" type="curve"/>
      <point x="686" y="380" type="line"/>
      <point x="671" y="279" type="line"/>
      <point x="166" y="279" type="line"/>
      <point x="183" y="168"/>
      <point x="265" y="92"/>
      <point x="384" y="92" type="curve" smooth="yes"/>
      <point x="515" y="92"/>
      <point x="646" y="200"/>
      <point x="646" y="381" type="curve" smooth="yes"/>
      <point x="646" y="508"/>
      <point x="550" y="607"/>
      <point x="429" y="607" type="curve" smooth="yes"/>
      <point x="347" y="607"/>
      <point x="269" y="568"/>
      <point x="217" y="505" type="curve"/>
      <point x="139" y="581" type="line"/>
      <point x="217" y="659"/>
      <point x="311" y="707"/>
    </contour>
  </outline>
</glyph>
<glyph name="uni018F" format="2">
  <advance width="1560"/>
  <unicode hex="018F"/>
  <outline>
    <contour>
      <point x="887" y="1414" type="curve" smooth="yes"/>
      <point x="1263" y="1414"/>
      <point x="1535" y="1136"/>
      <point x="1535" y="766" type="curve" smooth="yes"/>
      <point x="1535" y="332"/>
      <point x="1179" y="-16"/>
      <point x="759" y="-16" type="curve" smooth="yes"/>
      <point x="361" y="-16"/>
      <point x="103" y="264"/>
      <point x="103" y="670" type="curve" smooth="yes"/>
      <point x="103" y="700"/>
      <point x="105" y="730"/>
      <point x="107" y="760" type="curve"/>
      <point x="1385" y="760" type="line"/>
      <point x="1355" y="558" type="line"/>
      <point x="345" y="558" type="line"/>
      <point x="379" y="336"/>
      <point x="543" y="184"/>
      <point x="781" y="184" type="curve" smooth="yes"/>
      <point x="1043" y="184"/>
      <point x="1305" y="400"/>
      <point x="1305" y="762" type="curve" smooth="yes"/>
      <point x="1305" y="1016"/>
      <point x="1113" y="1214"/>
      <point x="871" y="1214" type="curve" smooth="yes"/>
      <point x="707" y="1214"/>
      <point x="551" y="1136"/>
      <point x="447" y="1010" type="curve"/>
      <point x="291" y="1162" type="line"/>
      <point x="447" y="1318"/>
      <point x="635" y="1414"/>
    </contour>
  </outline>
</glyph>
<glyph name="florin" format="2">
  <advance width="402"/>
  <unicode hex="0192"/>
  <outline>
    <contour>
      <point x="360" y="752" type="curve" smooth="yes"/>
      <point x="259" y="753"/>
      <point x="181" y="689"/>
      <point x="161" y="586" type="curve" smooth="yes"/>
      <point x="46" y="-13" type="line" smooth="yes"/>
      <point x="35" y="-70"/>
      <point x="7" y="-109"/>
      <point x="-41" y="-108" type="curve"/>
      <point x="-60" y="-107"/>
      <point x="-86" y="-98"/>
      <point x="-103" y="-82" type="curve"/>
      <point x="-138" y="-160" type="line"/>
      <point x="-113" y="-182"/>
      <point x="-70" y="-198"/>
      <point x="-31" y="-199" type="curve" smooth="yes"/>
      <point x="70" y="-200"/>
      <point x="136" y="-136"/>
      <point x="157" y="-33" type="curve" smooth="yes"/>
      <point x="272" y="567" type="line" smooth="yes"/>
      <point x="283" y="624"/>
      <point x="323" y="662"/>
      <point x="373" y="661" type="curve" smooth="yes"/>
      <point x="395" y="660"/>
      <point x="423" y="651"/>
      <point x="441" y="635" type="curve"/>
      <point x="486" y="713" type="line"/>
      <point x="455" y="735"/>
      <point x="407" y="751"/>
    </contour>
    <contour>
      <point x="68" y="464" type="line"/>
      <point x="53" y="384" type="line"/>
      <point x="376" y="384" type="line"/>
      <point x="391" y="464" type="line"/>
    </contour>
  </outline>
</glyph>
<glyph name="dotlessj" format="2">
  <advance width="550"/>
  <unicode hex="0237"/>
  <anchor x="369" y="1062" name="top"/>
  <outline>
    <contour>
      <point x="-293" y="-358" type="line"/>
      <point x="-241" y="-380"/>
      <point x="-179" y="-394"/>
      <point x="-111" y="-396" type="curve" smooth="yes"/>
      <point x="85" y="-398"/>
      <point x="225" y="-282"/>
      <point x="269" y="-58" type="curve" smooth="yes"/>
      <point x="493" y="1062" type="line"/>
      <point x="263" y="1062" type="line"/>
      <point x="49" y="-8" type="line" smooth="yes"/>
      <point x="23" y="-138"/>
      <point x="-49" y="-216"/>
      <point x="-149" y="-214" type="curve"/>
      <point x="-173" y="-212"/>
      <point x="-201" y="-210"/>
      <point x="-225" y="-200" type="curve"/>
    </contour>
  </outline>
</glyph>
<glyph name="schwa" format="2">
  <advance width="584"/>
  <unicode hex="0259"/>
  <outline>
    <contour>
      <point x="294" y="535" type="curve" smooth="yes"/>
      <point x="215" y="535"/>
      <point x="147" y="512"/>
      <point x="94" y="467" type="curve"/>
      <point x="146" y="397" type="line"/>
      <point x="186" y="429"/>
      <point x="237" y="447"/>
      <point x="290" y="447" type="curve" smooth="yes"/>
      <point x="387" y="447"/>
      <point x="446" y="388"/>
      <point x="446" y="292" type="curve" smooth="yes"/>
      <point x="446" y="173"/>
      <point x="364" y="83"/>
      <point x="255" y="83" type="curve" smooth="yes"/>
      <point x="170" y="83"/>
      <point x="124" y="133"/>
      <point x="124" y="225" type="curve"/>
      <point x="453" y="225" type="line"/>
      <point x="469" y="307" type="line"/>
      <point x="32" y="307" type="line"/>
      <point x="-10" y="121"/>
      <point x="81" y="-6"/>
      <point x="256" y="-6" type="curve" smooth="yes"/>
      <point x="429" y="-6"/>
      <point x="559" y="122"/>
      <point x="559" y="291" type="curve" smooth="yes"/>
      <point x="559" y="439"/>
      <point x="455" y="535"/>
    </contour>
  </outline>
</glyph>
<glyph name="uni0259" format="2">
  <advance width="1176"/>
  <unicode hex="0259"/>
  <outline>
    <contour>
      <point x="592" y="1070" type="curve" smooth="yes"/>
      <point x="434" y="1070"/>
      <point x="298" y="1024"/>
      <point x="192" y="934" type="curve"/>
      <point x="296" y="794" type="line"/>
      <point x="376" y="858"/>
      <point x="478" y="894"/>
      <point x="584" y="894" type="curve" smooth="yes"/>
      <point x="778" y="894"/>
      <point x="896" y="776"/>
      <point x="896" y="584" type="curve" smooth="yes"/>
      <point x="896" y="346"/>
      <point x="732" y="166"/>
      <point x="514" y="166" type="curve" smooth="yes"/>
      <point x="344" y="166"/>
      <point x="252" y="266"/>
      <point x="252" y="450" type="curve"/>
      <point x="910" y="450" type="line"/>
      <point x="942" y="614" type="line"/>
      <point x="68" y="614" type="line"/>
      <point x="-16" y="242"/>
      <point x="166" y="-12"/>
      <point x="516" y="-12" type="curve" smooth="yes"/>
      <point x="862" y="-12"/>
      <point x="1122" y="244"/>
      <point x="1122" y="582" type="curve" smooth="yes"/>
      <point x="1122" y="878"/>
      <point x="914" y="1070"/>
    </contour>
  </outline>
</glyph>
<glyph name="commaturnedmod" format="2">
  <advance width="294"/>
  <unicode hex="02BB"/>
  <outline>
    <contour>
      <point x="278" y="700" type="line"/>
      <point x="200" y="700" type="line"/>
      <point x="137" y="528" type="line"/>
      <point x="241" y="505" type="line"/>
    </contour>
  </outline>
</glyph>
<glyph name="uni02BB" format="2">
  <advance width="416"/>
  <unicode hex="02BB"/>
  <outline>
    <contour>
      <point x="470" y="1400" type="line"/>
      <point x="314" y="1400" type="line"/>
      <point x="188" y="1056" type="line"/>
      <point x="396" y="1010" type="line"/>
    </contour>
  </outline>
</glyph>
<glyph name="apostrophemod" format="2">
  <advance width="126"/>
  <unicode hex="02BC"/>
  <outline>
    <contour>
      <point x="55" y="440" type="line"/>
      <point x="128" y="440" type="line"/>
      <point x="194" y="700" type="line"/>
      <point x="106" y="700" type="line"/>
    </contour>
  </outline>
</glyph>
<glyph name="ringhalfright" format="2">
  <advance width="287"/>
  <unicode hex="02BE"/>
  <outline>
    <contour>
      <point x="154" y="568" type="line"/>
      <point x="221" y="568"/>
      <point x="283" y="624"/>
      <point x="286" y="690" type="curve" smooth="yes"/>
      <point x="290" y="750"/>
      <point x="244" y="800"/>
      <point x="182" y="800" type="curve"/>
      <point x="176" y="750" type="line"/>
      <point x="211" y="750"/>
      <point x="238" y="723"/>
      <point x="236" y="689" type="curve"/>
      <point x="235" y="651"/>
      <point x="198" y="618"/>
      <point x="160" y="618" type="curve"/>
    </contour>
  </outline>
</glyph>
<glyph name="ringhalfrightmod" format="2">
  <advance width="486"/>
  <unicode hex="02BE"/>
  <outline>
    <contour>
      <point x="264" y="1136" type="line"/>
      <point x="398" y="1136"/>
      <point x="522" y="1248"/>
      <point x="528" y="1380" type="curve" smooth="yes"/>
      <point x="536" y="1500"/>
      <point x="444" y="1600"/>
      <point x="320" y="1600" type="curve"/>
      <point x="308" y="1500" type="line"/>
      <point x="378" y="1500"/>
      <point x="432" y="1446"/>
      <point x="428" y="1378" type="curve"/>
      <point x="426" y="1302"/>
      <point x="352" y="1236"/>
      <point x="276" y="1236" type="curve"/>
    </contour>
  </outline>
</glyph>
<glyph name="ringhalfleft" format="2">
  <advance width="269"/>
  <unicode hex="02BF"/>
  <outline>
    <contour>
      <point x="242" y="568" type="line"/>
      <point x="184" y="568"/>
      <point x="144" y="612"/>
      <point x="144" y="666" type="curve" smooth="yes"/>
      <point x="144" y="737"/>
      <point x="214" y="800"/>
      <point x="287" y="800" type="curve"/>
      <point x="277" y="750" type="line"/>
      <point x="236" y="750"/>
      <point x="195" y="715"/>
      <point x="195" y="674" type="curve" smooth="yes"/>
      <point x="195" y="643"/>
      <point x="218" y="618"/>
      <point x="251" y="618" type="curve"/>
    </contour>
  </outline>
</glyph>
<glyph name="uni02BF" format="2">
  <advance width="484"/>
  <unicode hex="02BF"/>
  <outline>
    <contour>
      <point x="457" y="1136" type="line"/>
      <point x="341" y="1136"/>
      <point x="261" y="1224"/>
      <point x="261" y="1332" type="curve" smooth="yes"/>
      <point x="261" y="1474"/>
      <point x="401" y="1600"/>
      <point x="547" y="1600" type="curve"/>
      <point x="527" y="1500" type="line"/>
      <point x="445" y="1500"/>
      <point x="363" y="1430"/>
      <point x="363" y="1348" type="curve" smooth="yes"/>
      <point x="363" y="1286"/>
      <point x="409" y="1236"/>
      <point x="475" y="1236" type="curve"/>
    </contour>
  </outline>
</glyph>
<glyph name="verticallinemod" format="2">
  <advance width="284"/>
  <unicode hex="02C8"/>
  <outline>
    <contour>
      <point x="236" y="525" type="line"/>
      <point x="270" y="700" type="line"/>
      <point x="187" y="700" type="line"/>
      <point x="153" y="525" type="line"/>
    </contour>
  </outline>
</glyph>
<glyph name="macronmod" format="2">
  <advance width="700"/>
  <unicode hex="02C9"/>
  <anchor x="519" y="1378" name="top"/>
  <outline>
    <contour>
      <point x="247" y="1292" type="line"/>
      <point x="757" y="1292" type="line"/>
      <point x="785" y="1432" type="line"/>
      <point x="275" y="1432" type="line"/>
    </contour>
  </outline>
</glyph>
<glyph name="acutemod" format="2">
  <advance width="311"/>
  <unicode hex="02CA"/>
  <anchor x="256" y="755" name="top"/>
  <outline>
    <contour>
      <point x="121" y="620" type="line"/>
      <point x="214" y="610" type="line"/>
      <point x="355" y="706" type="line"/>
      <point x="246" y="755" type="line"/>
    </contour>
  </outline>
</glyph>
<glyph name="uni02CA" format="2">
  <advance width="700"/>
  <unicode hex="02CA"/>
  <anchor x="551" y="1510" name="top"/>
  <outline>
    <contour>
      <point x="281" y="1240" type="line"/>
      <point x="467" y="1220" type="line"/>
      <point x="749" y="1412" type="line"/>
      <point x="531" y="1510" type="line"/>
    </contour>
  </outline>
</glyph>
<glyph name="fourthtonechinese" format="2">
  <advance width="275"/>
  <unicode hex="02CB"/>
  <anchor x="288" y="710" name="top"/>
  <outline>
    <contour>
      <point x="120" y="706" type="line"/>
      <point x="223" y="610" type="line"/>
      <point x="320" y="620" type="line"/>
      <point x="248" y="755" type="line"/>
    </contour>
  </outline>
</glyph>
<glyph name="gravemod" format="2">
  <advance width="700"/>
  <unicode hex="02CB"/>
  <anchor x="651" y="1420" name="top"/>
  <outline>
    <contour>
      <point x="315" y="1412" type="line"/>
      <point x="521" y="1220" type="line"/>
      <point x="715" y="1240" type="line"/>
      <point x="571" y="1510" type="line"/>
    </contour>
  </outline>
</glyph>
<glyph name="uni02CB" format="2">
  <advance width="700"/>
  <unicode hex="02CB"/>
  <anchor x="651" y="1420" name="top"/>
  <outline>
    <contour>
      <point x="315" y="1412" type="line"/>
      <point x="521" y="1220" type="line"/>
      <point x="715" y="1240" type="line"/>
      <point x="571" y="1510" type="line"/>
    </contour>
  </outline>
</glyph>
<glyph name="uni02CC" format="2">
  <advance width="244"/>
  <unicode hex="02CC"/>
  <outline>
    <contour>
      <point x="17" y="-412" type="line"/>
      <point x="85" y="-62" type="line"/>
      <point x="-79" y="-62" type="line"/>
      <point x="-147" y="-412" type="line"/>
    </contour>
  </outline>
</glyph>
<glyph name="verticallinelowmod" format="2">
  <advance width="283"/>
  <unicode hex="02CC"/>
  <outline>
    <contour>
      <point x="89" y="-206" type="line"/>
      <point x="123" y="-31" type="line"/>
      <point x="41" y="-31" type="line"/>
      <point x="7" y="-206" type="line"/>
    </contour>
  </outline>
</glyph>
<glyph name="gravecomb" format="2">
  <advance width="1128"/>
  <unicode hex="0300"/>
  <anchor x="788" y="1062" name="_top"/>
  <anchor x="598" y="1420" name="top"/>
  <outline>
    <contour>
      <point x="529" y="1412" type="line"/>
      <point x="773" y="1220" type="line"/>
      <point x="963" y="1240" type="line"/>
      <point x="765" y="1510" type="line"/>
    </contour>
  </outline>
</glyph>
<glyph name="acutecomb" format="2">
  <advance width="311"/>
  <unicode hex="0301"/>
  <anchor x="163" y="531" name="_top"/>
  <anchor x="256" y="755" name="top"/>
  <outline>
    <contour>
      <point x="121" y="620" type="line"/>
      <point x="216" y="610" type="line"/>
      <point x="338" y="706" type="line"/>
      <point x="220" y="755" type="line"/>
    </contour>
  </outline>
</glyph>
<glyph name="circumflexcomb" format="2">
  <advance width="396"/>
  <unicode hex="0302"/>
  <anchor x="300" y="720" name="top"/>
  <outline>
    <contour>
      <point x="115" y="615" type="line"/>
      <point x="227" y="615" type="line"/>
      <point x="333" y="713" type="line"/>
      <point x="265" y="713" type="line"/>
      <point x="333" y="615" type="line"/>
      <point x="445" y="615" type="line"/>
      <point x="365" y="753" type="line"/>
      <point x="249" y="753" type="line"/>
    </contour>
  </outline>
</glyph>
<glyph name="tildecomb" format="2">
  <advance width="780"/>
  <unicode hex="0303"/>
  <anchor x="496" y="1062" name="_top"/>
  <anchor x="686" y="1420" name="top"/>
  <outline>
    <contour>
      <point x="742" y="1468" type="line"/>
      <point x="734" y="1418"/>
      <point x="718" y="1376"/>
      <point x="672" y="1376" type="curve" smooth="yes"/>
      <point x="614" y="1376"/>
      <point x="536" y="1476"/>
      <point x="424" y="1476" type="curve" smooth="yes"/>
      <point x="294" y="1476"/>
      <point x="232" y="1350"/>
      <point x="206" y="1216" type="curve"/>
      <point x="362" y="1216" type="line"/>
      <point x="372" y="1266"/>
      <point x="388" y="1308"/>
      <point x="434" y="1308" type="curve" smooth="yes"/>
      <point x="492" y="1308"/>
      <point x="568" y="1208"/>
      <point x="680" y="1208" type="curve" smooth="yes"/>
      <point x="810" y="1208"/>
      <point x="872" y="1334"/>
      <point x="898" y="1468" type="curve"/>
    </contour>
  </outline>
</glyph>
<glyph name="macroncomb" format="2">
  <advance width="437"/>
  <unicode hex="0304"/>
  <anchor x="303" y="689" name="top"/>
  <outline>
    <contour>
      <point x="147" y="646" type="line"/>
      <point x="442" y="646" type="line"/>
      <point x="456" y="716" type="line"/>
      <point x="161" y="716" type="line"/>
    </contour>
  </outline>
</glyph>
<glyph name="uni0304" format="2">
  <advance width="590"/>
  <unicode hex="0304"/>
  <anchor x="428" y="1062" name="_top"/>
  <anchor x="628" y="1378" name="top"/>
  <outline>
    <contour>
      <point x="152" y="1292" type="line"/>
      <point x="742" y="1292" type="line"/>
      <point x="770" y="1432" type="line"/>
      <point x="180" y="1432" type="line"/>
    </contour>
  </outline>
</glyph>
<glyph name="brevecomb" format="2">
  <advance width="397"/>
  <unicode hex="0306"/>
  <anchor x="273" y="700" name="top"/>
  <outline>
    <contour>
      <point x="141" y="748" type="line"/>
      <point x="128" y="664"/>
      <point x="175" y="608"/>
      <point x="255" y="608" type="curve" smooth="yes"/>
      <point x="335" y="608"/>
      <point x="404" y="664"/>
      <point x="423" y="748" type="curve"/>
      <point x="345" y="748" type="line"/>
      <point x="335" y="709"/>
      <point x="304" y="681"/>
      <point x="269" y="681" type="curve" smooth="yes"/>
      <point x="234" y="681"/>
      <point x="213" y="709"/>
      <point x="219" y="748" type="curve"/>
    </contour>
  </outline>
</glyph>
<glyph name="dotaccentcomb" format="2">
  <advance width="281"/>
  <unicode hex="0307"/>
  <anchor x="223" y="683" name="_center"/>
  <anchor x="228" y="706" name="top"/>
  <outline>
    <contour>
      <point x="236" y="750" type="curve" smooth="yes"/>
      <point x="193" y="750"/>
      <point x="155" y="716"/>
      <point x="155" y="672" type="curve" smooth="yes"/>
      <point x="155" y="640"/>
      <point x="177" y="616"/>
      <point x="210" y="616" type="curve" smooth="yes"/>
      <point x="253" y="616"/>
      <point x="292" y="651"/>
      <point x="292" y="695" type="curve" smooth="yes"/>
      <point x="292" y="727"/>
      <point x="270" y="750"/>
    </contour>
  </outline>
</glyph>
<glyph name="uni0307" format="2">
  <advance width="468"/>
  <unicode hex="0307"/>
  <anchor x="468" y="1366" name="_center"/>
  <anchor x="360" y="1062" name="_top"/>
  <anchor x="478" y="1412" name="top"/>
  <outline>
    <contour>
      <point x="425" y="1500" type="curve" smooth="yes"/>
      <point x="339" y="1500"/>
      <point x="263" y="1432"/>
      <point x="263" y="1344" type="curve" smooth="yes"/>
      <point x="263" y="1280"/>
      <point x="307" y="1232"/>
      <point x="373" y="1232" type="curve" smooth="yes"/>
      <point x="459" y="1232"/>
      <point x="537" y="1302"/>
      <point x="537" y="1390" type="curve" smooth="yes"/>
      <point x="537" y="1454"/>
      <point x="493" y="1500"/>
    </contour>
  </outline>
</glyph>
<glyph name="dieresiscomb" format="2">
  <advance width="448"/>
  <unicode hex="0308"/>
  <anchor x="278" y="531" name="_top"/>
  <anchor x="311" y="700" name="top"/>
  <outline>
    <contour>
      <point x="231" y="742" type="curve" smooth="yes"/>
      <point x="191" y="742"/>
      <point x="157" y="712"/>
      <point x="157" y="672" type="curve" smooth="yes"/>
      <point x="157" y="643"/>
      <point x="177" y="621"/>
      <point x="207" y="621" type="curve" smooth="yes"/>
      <point x="246" y="621"/>
      <point x="280" y="654"/>
      <point x="280" y="692" type="curve" smooth="yes"/>
      <point x="280" y="721"/>
      <point x="261" y="742"/>
    </contour>
    <contour>
      <point x="409" y="742" type="curve" smooth="yes"/>
      <point x="369" y="742"/>
      <point x="335" y="712"/>
      <point x="335" y="672" type="curve" smooth="yes"/>
      <point x="335" y="643"/>
      <point x="355" y="621"/>
      <point x="385" y="621" type="curve" smooth="yes"/>
      <point x="424" y="621"/>
      <point x="458" y="654"/>
      <point x="458" y="692" type="curve" smooth="yes"/>
      <point x="458" y="721"/>
      <point x="439" y="742"/>
    </contour>
  </outline>
</glyph>
<glyph name="uni0308" format="2">
  <advance width="796"/>
  <unicode hex="0308"/>
  <anchor x="548" y="1062" name="_top"/>
  <anchor x="644" y="1400" name="top"/>
  <outline>
    <contour>
      <point x="412" y="1484" type="curve" smooth="yes"/>
      <point x="332" y="1484"/>
      <point x="264" y="1424"/>
      <point x="264" y="1344" type="curve" smooth="yes"/>
      <point x="264" y="1286"/>
      <point x="304" y="1242"/>
      <point x="364" y="1242" type="curve" smooth="yes"/>
      <point x="442" y="1242"/>
      <point x="510" y="1308"/>
      <point x="510" y="1384" type="curve" smooth="yes"/>
      <point x="510" y="1442"/>
      <point x="472" y="1484"/>
    </contour>
    <contour>
      <point x="768" y="1484" type="curve" smooth="yes"/>
      <point x="688" y="1484"/>
      <point x="620" y="1424"/>
      <point x="620" y="1344" type="curve" smooth="yes"/>
      <point x="620" y="1286"/>
      <point x="660" y="1242"/>
      <point x="720" y="1242" type="curve" smooth="yes"/>
      <point x="798" y="1242"/>
      <point x="866" y="1308"/>
      <point x="866" y="1384" type="curve" smooth="yes"/>
      <point x="866" y="1442"/>
      <point x="828" y="1484"/>
    </contour>
  </outline>
</glyph>
<glyph name="hookabovecomb" format="2">
  <advance width="289"/>
  <unicode hex="0309"/>
  <anchor x="174" y="531" name="_top"/>
  <anchor x="215" y="742" name="top"/>
  <outline>
    <contour>
      <point x="224" y="784" type="curve" smooth="yes"/>
      <point x="191" y="784"/>
      <point x="154" y="774"/>
      <point x="122" y="755" type="curve"/>
      <point x="147" y="698" type="line"/>
      <point x="162" y="707"/>
      <point x="174" y="710"/>
      <point x="184" y="710" type="curve" smooth="yes"/>
      <point x="198" y="710"/>
      <point x="208" y="701"/>
      <point x="208" y="688" type="curve" smooth="yes"/>
      <point x="208" y="669"/>
      <point x="187" y="633"/>
      <point x="150" y="603" type="curve"/>
      <point x="207" y="576" type="line"/>
      <point x="261" y="617"/>
      <point x="310" y="671"/>
      <point x="310" y="717" type="curve" smooth="yes"/>
      <point x="310" y="762"/>
      <point x="271" y="784"/>
    </contour>
  </outline>
</glyph>
<glyph name="ringcomb" format="2">
  <advance width="344"/>
  <unicode hex="030A"/>
  <anchor x="228" y="533" name="_top"/>
  <anchor x="270" y="750" name="top"/>
  <outline>
    <contour>
      <point x="269" y="796" type="curve" smooth="yes"/>
      <point x="204" y="796"/>
      <point x="145" y="739"/>
      <point x="145" y="673" type="curve" smooth="yes"/>
      <point x="145" y="620"/>
      <point x="186" y="578"/>
      <point x="243" y="578" type="curve" smooth="yes"/>
      <point x="308" y="578"/>
      <point x="367" y="633"/>
      <point x="367" y="699" type="curve" smooth="yes"/>
      <point x="367" y="753"/>
      <point x="327" y="796"/>
    </contour>
    <contour>
      <point x="262" y="736" type="curve" smooth="yes"/>
      <point x="288" y="736"/>
      <point x="307" y="716"/>
      <point x="307" y="692" type="curve" smooth="yes"/>
      <point x="307" y="663"/>
      <point x="279" y="637"/>
      <point x="250" y="637" type="curve" smooth="yes"/>
      <point x="224" y="637"/>
      <point x="206" y="656"/>
      <point x="206" y="680" type="curve" smooth="yes"/>
      <point x="206" y="710"/>
      <point x="232" y="736"/>
    </contour>
  </outline>
</glyph>
<glyph name="hungarumlautcomb" format="2">
  <advance width="456"/>
  <unicode hex="030B"/>
  <anchor x="326" y="762" name="top"/>
  <outline>
    <contour>
      <point x="132" y="619" type="line"/>
      <point x="214" y="610" type="line"/>
      <point x="308" y="718" type="line"/>
      <point x="219" y="762" type="line"/>
    </contour>
    <contour>
      <point x="297" y="619" type="line"/>
      <point x="379" y="610" type="line"/>
      <point x="473" y="718" type="line"/>
      <point x="384" y="762" type="line"/>
    </contour>
  </outline>
</glyph>
<glyph name="uni030B" format="2">
  <advance width="892"/>
  <unicode hex="030B"/>
  <anchor x="524" y="1062" name="_top"/>
  <anchor x="674" y="1524" name="top"/>
  <outline>
    <contour>
      <point x="254" y="1238" type="line"/>
      <point x="418" y="1220" type="line"/>
      <point x="606" y="1436" type="line"/>
      <point x="428" y="1524" type="line"/>
    </contour>
    <contour>
      <point x="584" y="1238" type="line"/>
      <point x="748" y="1220" type="line"/>
      <point x="936" y="1436" type="line"/>
      <point x="758" y="1524" type="line"/>
    </contour>
  </outline>
</glyph>
<glyph name="dblgravecomb" format="2">
  <advance width="416"/>
  <unicode hex="030F"/>
  <anchor x="303" y="531" name="_top"/>
  <anchor x="338" y="711" name="top"/>
  <outline>
    <contour>
      <point x="295" y="718" type="line"/>
      <point x="366" y="610" type="line"/>
      <point x="452" y="619" type="line"/>
      <point x="402" y="762" type="line"/>
    </contour>
    <contour>
      <point x="130" y="718" type="line"/>
      <point x="201" y="610" type="line"/>
      <point x="287" y="619" type="line"/>
      <point x="237" y="762" type="line"/>
    </contour>
  </outline>
</glyph>
<glyph name="uni030F" format="2">
  <advance width="892"/>
  <unicode hex="030F"/>
  <anchor x="675" y="1062" name="_top"/>
  <anchor x="698" y="1422" name="top"/>
  <outline>
    <contour>
      <point x="620" y="1436" type="line"/>
      <point x="762" y="1220" type="line"/>
      <point x="934" y="1238" type="line"/>
      <point x="834" y="1524" type="line"/>
    </contour>
    <contour>
      <point x="290" y="1436" type="line"/>
      <point x="432" y="1220" type="line"/>
      <point x="604" y="1238" type="line"/>
      <point x="504" y="1524" type="line"/>
    </contour>
  </outline>
</glyph>
<glyph name="breveinvertedcomb" format="2">
  <advance width="700"/>
  <unicode hex="0311"/>
  <anchor x="652" y="1062" name="_top"/>
  <anchor x="618" y="1400" name="top"/>
  <outline>
    <contour>
      <point x="931" y="1216" type="line"/>
      <point x="957" y="1384"/>
      <point x="863" y="1496"/>
      <point x="703" y="1496" type="curve" smooth="yes"/>
      <point x="543" y="1496"/>
      <point x="405" y="1384"/>
      <point x="367" y="1216" type="curve"/>
      <point x="523" y="1216" type="line"/>
      <point x="543" y="1294"/>
      <point x="605" y="1350"/>
      <point x="675" y="1350" type="curve" smooth="yes"/>
      <point x="745" y="1350"/>
      <point x="787" y="1294"/>
      <point x="775" y="1216" type="curve"/>
    </contour>
  </outline>
</glyph>
<glyph name="horncomb" format="2">
  <advance width="351"/>
  <unicode hex="031B"/>
  <outline>
    <contour>
      <point x="235" y="636" type="line"/>
      <point x="253" y="575"/>
      <point x="233" y="531"/>
      <point x="162" y="531" type="curve"/>
      <point x="148" y="461" type="line"/>
      <point x="284" y="461"/>
      <point x="357" y="546"/>
      <point x="328" y="667" type="curve"/>
    </contour>
  </outline>
</glyph>
<glyph name="commaaccentcomb" format="2">
  <advance width="289"/>
  <unicode hex="0326"/>
  <anchor x="111" y="0" name="_bottom"/>
  <anchor x="46" y="-204" name="bottom"/>
  <outline>
    <contour>
      <point x="-12" y="-219" type="line"/>
      <point x="70" y="-219" type="line"/>
      <point x="155" y="-58" type="line"/>
      <point x="49" y="-58" type="line"/>
    </contour>
  </outline>
  <guideline angle="90" x="71" y="0"/>
</glyph>
<glyph name="cedillacomb" format="2">
  <advance width="325"/>
  <unicode hex="0327"/>
  <anchor x="53" y="-222" name="bottom"/>
  <anchor x="202" y="531" name="top"/>
  <outline>
    <contour>
      <point x="24" y="-91" type="line"/>
      <point x="29" y="-91"/>
      <point x="46" y="-91"/>
      <point x="54" y="-91" type="curve" smooth="yes"/>
      <point x="83" y="-91"/>
      <point x="99" y="-101"/>
      <point x="99" y="-113" type="curve" smooth="yes"/>
      <point x="99" y="-126"/>
      <point x="81" y="-139"/>
      <point x="54" y="-139" type="curve" smooth="yes"/>
      <point x="36" y="-139"/>
      <point x="15" y="-134"/>
      <point x="-1" y="-127" type="curve"/>
      <point x="-39" y="-197" type="line"/>
      <point x="-11" y="-210"/>
      <point x="22" y="-218"/>
      <point x="57" y="-218" type="curve" smooth="yes"/>
      <point x="129" y="-218"/>
      <point x="193" y="-185"/>
      <point x="193" y="-117" type="curve" smooth="yes"/>
      <point x="193" y="-87"/>
      <point x="175" y="-59"/>
      <point x="127" y="-50" type="curve"/>
      <point x="156" y="0" type="line"/>
      <point x="75" y="8" type="line"/>
    </contour>
  </outline>
</glyph>
<glyph name="uni0327" format="2">
  <advance width="622"/>
  <unicode hex="0327"/>
  <anchor x="244" y="0" name="_bottom"/>
  <anchor x="128" y="-444" name="bottom"/>
  <anchor x="426" y="1062" name="top"/>
  <outline>
    <contour>
      <point x="81" y="-146" type="line"/>
      <point x="91" y="-146"/>
      <point x="125" y="-146"/>
      <point x="141" y="-146" type="curve" smooth="yes"/>
      <point x="199" y="-146"/>
      <point x="231" y="-166"/>
      <point x="231" y="-190" type="curve" smooth="yes"/>
      <point x="231" y="-216"/>
      <point x="195" y="-242"/>
      <point x="141" y="-242" type="curve" smooth="yes"/>
      <point x="105" y="-242"/>
      <point x="63" y="-232"/>
      <point x="31" y="-218" type="curve"/>
      <point x="-45" y="-358" type="line"/>
      <point x="11" y="-384"/>
      <point x="77" y="-400"/>
      <point x="147" y="-400" type="curve" smooth="yes"/>
      <point x="291" y="-400"/>
      <point x="419" y="-334"/>
      <point x="419" y="-198" type="curve" smooth="yes"/>
      <point x="419" y="-138"/>
      <point x="383" y="-82"/>
      <point x="287" y="-64" type="curve"/>
      <point x="345" y="36" type="line"/>
      <point x="183" y="52" type="line"/>
    </contour>
  </outline>
</glyph>
<glyph name="ogonekcomb" format="2">
  <advance width="329"/>
  <unicode hex="0328"/>
  <anchor x="203" y="0" name="_ogonek"/>
  <outline>
    <contour>
      <point x="138" y="36" type="line"/>
      <point x="20" y="-26"/>
      <point x="-16" y="-92"/>
      <point x="-16" y="-144" type="curve" smooth="yes"/>
      <point x="-16" y="-192"/>
      <point x="20" y="-217"/>
      <point x="74" y="-217" type="curve" smooth="yes"/>
      <point x="100" y="-217"/>
      <point x="130" y="-212"/>
      <point x="163" y="-198" type="curve"/>
      <point x="150" y="-127" type="line"/>
      <point x="139" y="-133"/>
      <point x="125" y="-135"/>
      <point x="116" y="-135" type="curve" smooth="yes"/>
      <point x="103" y="-135"/>
      <point x="94" y="-129"/>
      <point x="94" y="-114" type="curve" smooth="yes"/>
      <point x="94" y="-83"/>
      <point x="122" y="-54"/>
      <point x="203" y="0" type="curve"/>
    </contour>
  </outline>
</glyph>
<glyph name="macronbelowcomb" format="2">
  <advance width="437"/>
  <unicode hex="0331"/>
  <anchor x="165" y="0" name="_bottom"/>
  <outline>
    <contour>
      <point x="8" y="-151" type="line"/>
      <point x="263" y="-151" type="line"/>
      <point x="277" y="-81" type="line"/>
      <point x="22" y="-81" type="line"/>
    </contour>
  </outline>
</glyph>
<glyph name="uni0331" format="2">
  <advance width="710"/>
  <unicode hex="0331"/>
  <anchor x="232" y="0" name="_bottom"/>
  <outline>
    <contour>
      <point x="-66" y="-302" type="line"/>
      <point x="444" y="-302" type="line"/>
      <point x="472" y="-162" type="line"/>
      <point x="-38" y="-162" type="line"/>
    </contour>
  </outline>
</glyph>
<glyph name="strokeshortcomb" format="2">
  <advance width="527"/>
  <unicode hex="0335"/>
  <anchor x="298" y="441" name="_center"/>
  <outline>
    <contour>
      <point x="119" y="408" type="line"/>
      <point x="465" y="408" type="line"/>
      <point x="478" y="474" type="line"/>
      <point x="132" y="474" type="line"/>
    </contour>
  </outline>
</glyph>
<glyph name="strokelongcomb" format="2">
  <advance width="597"/>
  <unicode hex="0336"/>
  <anchor x="333" y="441" name="_center"/>
  <outline>
    <contour>
      <point x="119" y="408" type="line"/>
      <point x="535" y="408" type="line"/>
      <point x="548" y="474" type="line"/>
      <point x="132" y="474" type="line"/>
    </contour>
  </outline>
</glyph>
<glyph name="slashshortcomb" format="2">
  <advance width="357"/>
  <unicode hex="0337"/>
  <outline>
    <contour>
      <point x="265" y="558" type="line"/>
      <point x="16" y="91" type="line"/>
      <point x="114" y="91" type="line"/>
      <point x="363" y="558" type="line"/>
    </contour>
  </outline>
</glyph>
<glyph name="uni0338" format="2">
  <advance width="662"/>
  <unicode hex="0338"/>
  <outline>
    <contour>
      <point x="75" y="0" type="line"/>
      <point x="867" y="1484" type="line"/>
      <point x="671" y="1484" type="line"/>
      <point x="-121" y="0" type="line"/>
    </contour>
  </outline>
</glyph>
<glyph name="tonos" format="2">
  <advance width="354"/>
  <unicode hex="0384"/>
  <anchor x="106" y="1618" name="t.uni0308"/>
  <anchor x="-218" y="0" name="b.uni0324_3"/>
  <anchor x="98" y="0" name="m.uni0328_4"/>
  <outline>
    <contour>
      <point x="108" y="1214" type="line"/>
      <point x="248" y="1482" type="line"/>
      <point x="492" y="1482" type="line"/>
      <point x="282" y="1214" type="line"/>
    </contour>
  </outline>
</glyph>
<glyph name="Alphatonos" format="2">
  <advance width="1480"/>
  <unicode hex="0386"/>
  <anchor x="998" y="1400" name="t.uni0308"/>
  <anchor x="718" y="0" name="b.uni0324_3"/>
  <anchor x="1638" y="0" name="m.uni0328_4"/>
  <outline>
    <contour>
      <point x="-146" y="0" type="line"/>
      <point x="766" y="1400" type="line"/>
      <point x="992" y="1400" type="line"/>
      <point x="1346" y="0" type="line"/>
      <point x="1106" y="0" type="line"/>
      <point x="806" y="1274" type="line"/>
      <point x="898" y="1274" type="line"/>
      <point x="90" y="0" type="line"/>
    </contour>
    <contour>
      <point x="202" y="336" type="line"/>
      <point x="300" y="520" type="line"/>
      <point x="1072" y="520" type="line"/>
      <point x="1100" y="336" type="line"/>
    </contour>
    <contour>
      <point x="182" y="1214" type="line"/>
      <point x="322" y="1482" type="line"/>
      <point x="566" y="1482" type="line"/>
      <point x="356" y="1214" type="line"/>
    </contour>
  </outline>
</glyph>
<glyph name="Epsilontonos" format="2">
  <advance width="1614"/>
  <unicode hex="0388"/>
  <anchor x="1084" y="1400" name="t.uni0308"/>
  <anchor x="788" y="0" name="b.uni0324_3"/>
  <anchor x="1446" y="0" name="m.uni0328_4"/>
  <outline>
    <contour>
      <point x="706" y="808" type="line"/>
      <point x="1414" y="808" type="line"/>
      <point x="1374" y="614" type="line"/>
      <point x="666" y="614" type="line"/>
    </contour>
    <contour>
      <point x="602" y="198" type="line"/>
      <point x="1406" y="198" type="line"/>
      <point x="1366" y="0" type="line"/>
      <point x="334" y="0" type="line"/>
      <point x="614" y="1400" type="line"/>
      <point x="1618" y="1400" type="line"/>
      <point x="1578" y="1202" type="line"/>
      <point x="802" y="1202" type="line"/>
    </contour>
    <contour>
      <point x="138" y="1214" type="line"/>
      <point x="278" y="1482" type="line"/>
      <point x="522" y="1482" type="line"/>
      <point x="312" y="1214" type="line"/>
    </contour>
  </outline>
</glyph>
<glyph name="Etatonos" format="2">
  <advance width="1878"/>
  <unicode hex="0389"/>
  <anchor x="1194" y="1400" name="t.uni0308"/>
  <anchor x="1152" y="1188" name="t.uni0307_1"/>
  <anchor x="914" y="0" name="b.uni0324_3"/>
  <outline>
    <contour>
      <point x="1590" y="1400" type="line"/>
      <point x="1818" y="1400" type="line"/>
      <point x="1538" y="0" type="line"/>
      <point x="1310" y="0" type="line"/>
    </contour>
    <contour>
      <point x="544" y="0" type="line"/>
      <point x="316" y="0" type="line"/>
      <point x="596" y="1400" type="line"/>
      <point x="824" y="1400" type="line"/>
    </contour>
    <contour>
      <point x="1450" y="612" type="line"/>
      <point x="646" y="612" type="line"/>
      <point x="686" y="810" type="line"/>
      <point x="1490" y="810" type="line"/>
    </contour>
    <contour>
      <point x="114" y="1214" type="line"/>
      <point x="254" y="1482" type="line"/>
      <point x="498" y="1482" type="line"/>
      <point x="288" y="1214" type="line"/>
    </contour>
  </outline>
</glyph>
<glyph name="Iotatonos" format="2">
  <advance width="890"/>
  <unicode hex="038A"/>
  <anchor x="780" y="1400" name="t.uni0308"/>
  <anchor x="500" y="0" name="b.uni0324_3"/>
  <anchor x="830" y="0" name="m.uni0328_4"/>
  <outline>
    <contour>
      <point x="322" y="0" type="line"/>
      <point x="602" y="1400" type="line"/>
      <point x="830" y="1400" type="line"/>
      <point x="550" y="0" type="line"/>
    </contour>
    <contour>
      <point x="116" y="1214" type="line"/>
      <point x="256" y="1482" type="line"/>
      <point x="500" y="1482" type="line"/>
      <point x="290" y="1214" type="line"/>
    </contour>
  </outline>
</glyph>
<glyph name="Omicrontonos" format="2">
  <advance width="1682"/>
  <unicode hex="038C"/>
  <anchor x="994" y="1400" name="t.uni0308"/>
  <anchor x="854" y="700" name="t.uni0307_1"/>
  <anchor x="1252" y="1400" name="t.uni031B_2"/>
  <anchor x="714" y="0" name="b.uni0324_3"/>
  <anchor x="1022" y="0" name="m.uni0328_4"/>
  <outline>
    <component base="O" xOffset="64"/>
    <contour>
      <point x="118" y="1214" type="line"/>
      <point x="258" y="1482" type="line"/>
      <point x="502" y="1482" type="line"/>
      <point x="292" y="1214" type="line"/>
    </contour>
  </outline>
</glyph>
<glyph name="Upsilontonos" format="2">
  <advance width="1776"/>
  <unicode hex="038E"/>
  <anchor x="1362" y="1400" name="t.uni0308"/>
  <anchor x="1174" y="554" name="t.uni0307_1"/>
  <anchor x="1082" y="0" name="b.uni0324_3"/>
  <outline>
    <component base="Y" xOffset="328"/>
    <contour>
      <point x="118" y="1214" type="line"/>
      <point x="258" y="1482" type="line"/>
      <point x="502" y="1482" type="line"/>
      <point x="292" y="1214" type="line"/>
    </contour>
  </outline>
</glyph>
<glyph name="Omegatonos" format="2">
  <advance width="1792"/>
  <unicode hex="038F"/>
  <outline>
    <component base="uni03A9" xOffset="-22"/>
    <contour>
      <point x="126" y="1214" type="line"/>
      <point x="266" y="1482" type="line"/>
      <point x="510" y="1482" type="line"/>
      <point x="300" y="1214" type="line"/>
    </contour>
  </outline>
</glyph>
<glyph name="iotadieresistonos" format="2">
  <advance width="302"/>
  <unicode hex="0390"/>
  <anchor x="233" y="562" name="t.uni0308"/>
  <anchor x="121" y="-0" name="b.uni0324_3"/>
  <anchor x="279" y="-0" name="m.uni0328_4"/>
  <outline>
    <contour>
      <point x="28" y="0" type="line"/>
      <point x="134" y="532" type="line"/>
      <point x="244" y="532" type="line"/>
      <point x="138" y="0" type="line"/>
    </contour>
    <contour>
      <point x="190" y="741" type="line"/>
      <point x="260" y="875" type="line"/>
      <point x="382" y="875" type="line"/>
      <point x="277" y="741" type="line"/>
    </contour>
    <contour>
      <point x="294" y="589" type="qcurve" smooth="yes"/>
      <point x="271" y="589"/>
      <point x="244" y="620"/>
      <point x="249" y="645" type="qcurve" smooth="yes"/>
      <point x="254" y="670"/>
      <point x="293" y="701"/>
      <point x="316" y="701" type="qcurve" smooth="yes"/>
      <point x="339" y="701"/>
      <point x="366" y="670"/>
      <point x="361" y="645" type="qcurve" smooth="yes"/>
      <point x="356" y="620"/>
      <point x="317" y="589"/>
    </contour>
    <contour>
      <point x="104" y="589" type="qcurve" smooth="yes"/>
      <point x="81" y="589"/>
      <point x="54" y="620"/>
      <point x="59" y="645" type="qcurve" smooth="yes"/>
      <point x="64" y="670"/>
      <point x="103" y="701"/>
      <point x="126" y="701" type="qcurve" smooth="yes"/>
      <point x="149" y="701"/>
      <point x="176" y="670"/>
      <point x="171" y="645" type="qcurve" smooth="yes"/>
      <point x="166" y="620"/>
      <point x="127" y="589"/>
    </contour>
  </outline>
</glyph>
<glyph name="Beta" format="2">
  <advance width="759"/>
  <unicode hex="0392"/>
  <anchor x="454" y="700" name="t.uni0308"/>
  <anchor x="314" y="-0" name="b.uni0324_3"/>
  <outline>
    <contour>
      <point x="30" y="0" type="line"/>
      <point x="170" y="700" type="line"/>
      <point x="491" y="700" type="line" smooth="yes"/>
      <point x="614" y="700"/>
      <point x="725" y="602"/>
      <point x="709" y="518" type="qcurve" smooth="yes"/>
      <point x="697" y="462"/>
      <point x="631" y="383"/>
      <point x="539" y="341"/>
      <point x="492" y="341" type="qcurve"/>
      <point x="517" y="374" type="line"/>
      <point x="573" y="374"/>
      <point x="654" y="332"/>
      <point x="691" y="250"/>
      <point x="679" y="190" type="qcurve" smooth="yes"/>
      <point x="661" y="100"/>
      <point x="505" y="0"/>
      <point x="371" y="0" type="qcurve" smooth="yes"/>
    </contour>
    <contour>
      <point x="163" y="93" type="line"/>
      <point x="384" y="93" type="line" smooth="yes"/>
      <point x="462" y="93"/>
      <point x="555" y="144"/>
      <point x="566" y="200" type="qcurve" smooth="yes"/>
      <point x="577" y="256"/>
      <point x="505" y="308"/>
      <point x="427" y="308" type="qcurve" smooth="yes"/>
      <point x="197" y="308" type="line"/>
      <point x="215" y="401" type="line"/>
      <point x="419" y="401" type="line" smooth="yes"/>
      <point x="491" y="401"/>
      <point x="580" y="452"/>
      <point x="591" y="504" type="qcurve" smooth="yes"/>
      <point x="601" y="556"/>
      <point x="532" y="607"/>
      <point x="460" y="607" type="qcurve" smooth="yes"/>
      <point x="265" y="607" type="line"/>
    </contour>
  </outline>
</glyph>
<glyph name="Gamma" format="2">
  <advance width="581"/>
  <unicode hex="0393"/>
  <anchor x="379" y="700" name="t.uni0308"/>
  <outline>
    <contour>
      <point x="34" y="0" type="line"/>
      <point x="174" y="700" type="line"/>
      <point x="641" y="700" type="line"/>
      <point x="620" y="601" type="line"/>
      <point x="239" y="601" type="line"/>
      <point x="272" y="629" type="line"/>
      <point x="147" y="0" type="line"/>
    </contour>
  </outline>
</glyph>
<glyph name="Delta" format="2">
  <advance width="1476"/>
  <unicode hex="0394"/>
  <outline>
    <contour>
      <point x="744" y="1400" type="line"/>
      <point x="-104" y="0" type="line"/>
      <point x="140" y="0" type="line"/>
      <point x="818" y="1162" type="line"/>
      <point x="1116" y="0" type="line"/>
      <point x="1368" y="0" type="line"/>
      <point x="986" y="1400" type="line"/>
    </contour>
    <contour>
      <point x="74" y="200" type="line"/>
      <point x="40" y="0" type="line"/>
      <point x="1216" y="0" type="line"/>
      <point x="1194" y="200" type="line"/>
    </contour>
  </outline>
</glyph>
<glyph name="Theta" format="2">
  <advance width="1620"/>
  <unicode hex="0398"/>
  <anchor x="1010" y="1400" name="t.uni0308"/>
  <anchor x="870" y="700" name="t.uni0307_1"/>
  <anchor x="1268" y="1400" name="t.uni031B_2"/>
  <anchor x="730" y="0" name="b.uni0324_3"/>
  <anchor x="1038" y="0" name="m.uni0328_4"/>
  <anchor x="784" y="0" name="bottom"/>
  <anchor x="846" y="702" name="center"/>
  <anchor x="1184" y="0" name="ogonek"/>
  <anchor x="916" y="1400" name="top"/>
  <anchor x="212" y="1400" name="topleft"/>
  <anchor x="1260" y="1400" name="topright"/>
  <outline>
    <contour>
      <point x="470" y="814" type="line"/>
      <point x="1264" y="814" type="line"/>
      <point x="1222" y="604" type="line"/>
      <point x="428" y="604" type="line"/>
    </contour>
    <contour>
      <point x="918" y="1414" type="curve" smooth="yes"/>
      <point x="1310" y="1414"/>
      <point x="1592" y="1132"/>
      <point x="1592" y="760" type="curve" smooth="yes"/>
      <point x="1592" y="330"/>
      <point x="1218" y="-16"/>
      <point x="774" y="-16" type="curve" smooth="yes"/>
      <point x="382" y="-16"/>
      <point x="100" y="270"/>
      <point x="100" y="642" type="curve" smooth="yes"/>
      <point x="100" y="1074"/>
      <point x="474" y="1414"/>
    </contour>
    <contour>
      <point x="900" y="1214" type="curve" smooth="yes"/>
      <point x="604" y="1214"/>
      <point x="340" y="966"/>
      <point x="340" y="658" type="curve" smooth="yes"/>
      <point x="340" y="392"/>
      <point x="540" y="184"/>
      <point x="798" y="184" type="curve" smooth="yes"/>
      <point x="1088" y="184"/>
      <point x="1348" y="436"/>
      <point x="1348" y="744" type="curve" smooth="yes"/>
      <point x="1348" y="1010"/>
      <point x="1154" y="1214"/>
    </contour>
  </outline>
</glyph>
<glyph name="Kappa" format="2">
  <advance width="724"/>
  <unicode hex="039A"/>
  <anchor x="460" y="700" name="t.uni0308"/>
  <anchor x="320" y="0" name="b.uni0324_3"/>
  <outline>
    <contour>
      <point x="164" y="167" type="line"/>
      <point x="186" y="306" type="line"/>
      <point x="647" y="700" type="line"/>
      <point x="777" y="700" type="line"/>
      <point x="406" y="376" type="line"/>
      <point x="328" y="305" type="line"/>
    </contour>
    <contour>
      <point x="30" y="0" type="line"/>
      <point x="170" y="700" type="line"/>
      <point x="284" y="700" type="line"/>
      <point x="144" y="0" type="line"/>
    </contour>
    <contour>
      <point x="522" y="0" type="line"/>
      <point x="309" y="326" type="line"/>
      <point x="402" y="411" type="line"/>
      <point x="656" y="0" type="line"/>
    </contour>
  </outline>
</glyph>
<glyph name="Lambda" format="2">
  <advance width="1480"/>
  <unicode hex="039B"/>
  <anchor x="998" y="1400" name="t.uni0308"/>
  <anchor x="718" y="0" name="b.uni0324_3"/>
  <anchor x="1638" y="0" name="m.uni0328_4"/>
  <outline>
    <contour>
      <point x="-146" y="0" type="line"/>
      <point x="766" y="1400" type="line"/>
      <point x="992" y="1400" type="line"/>
      <point x="1346" y="0" type="line"/>
      <point x="1106" y="0" type="line"/>
      <point x="806" y="1274" type="line"/>
      <point x="898" y="1274" type="line"/>
      <point x="90" y="0" type="line"/>
    </contour>
  </outline>
</glyph>
<glyph name="Xi" format="2">
  <advance width="830"/>
  <unicode hex="039E"/>
  <anchor x="517" y="700" name="t.uni0308"/>
  <anchor x="372" y="0" name="b.uni0324_3"/>
  <outline>
    <contour>
      <point x="181" y="307" type="line"/>
      <point x="201" y="404" type="line"/>
      <point x="651" y="404" type="line"/>
      <point x="631" y="307" type="line"/>
    </contour>
    <contour>
      <point x="30" y="0" type="line"/>
      <point x="50" y="98" type="line"/>
      <point x="680" y="98" type="line"/>
      <point x="660" y="0" type="line"/>
    </contour>
    <contour>
      <point x="165" y="601" type="line"/>
      <point x="185" y="700" type="line"/>
      <point x="785" y="700" type="line"/>
      <point x="765" y="601" type="line"/>
    </contour>
  </outline>
</glyph>
<glyph name="Pi" format="2">
  <advance width="819"/>
  <unicode hex="03A0"/>
  <outline>
    <contour>
      <point x="34" y="0" type="line"/>
      <point x="174" y="700" type="line"/>
      <point x="785" y="700" type="line"/>
      <point x="645" y="0" type="line"/>
      <point x="532" y="0" type="line"/>
      <point x="658" y="630" type="line"/>
      <point x="679" y="601" type="line"/>
      <point x="240" y="601" type="line"/>
      <point x="273" y="630" type="line"/>
      <point x="147" y="0" type="line"/>
    </contour>
  </outline>
</glyph>
